<svg xmlns="http://www.w3.org/2000/svg" viewBox="0 0 1676 845.23"><defs><style>.cls-1,.cls-5{fill:#75de6a;}.cls-1,.cls-2,.cls-3,.cls-8{stroke:#32602e;}.cls-1,.cls-10,.cls-2,.cls-3,.cls-4,.cls-8,.cls-9{stroke-miterlimit:10;}.cls-1,.cls-10,.cls-2,.cls-3,.cls-8,.cls-9{stroke-width:3px;}.cls-2{fill:none;}.cls-11,.cls-3,.cls-6{fill:#32602e;}.cls-4,.cls-8,.cls-9{fill:#fff;}.cls-4,.cls-9{stroke:#000;}.cls-4{stroke-width:4px;}.cls-10,.cls-7{fill:#d3f2d1;}.cls-10{stroke:#d3f2d1;}.cls-11{font-size:14.7px;font-family:Plume-Regular, Plume;}.cls-12{letter-spacing:-0.05em;}.cls-13{letter-spacing:-0.02em;}.cls-14{letter-spacing:-0.02em;}.cls-15{letter-spacing:-0.04em;}</style></defs><title>Asset 6</title><g id="Layer_2" data-name="Layer 2"><g id="Layer_1-2" data-name="Layer 1"><polygon class="cls-1" points="1537.71 673.09 1507.14 658.86 1578.47 513.53 1602.93 524.91 1537.71 673.09"/><path class="cls-1" d="M1578.47,513.53l-2.21-8.2a7.48,7.48,0,0,1,2.74-7l44.33-35.25a7.48,7.48,0,0,1,10.1.73l4.26,4.53a7.48,7.48,0,0,1,1.33,8.28l-3.29,7.07a7.48,7.48,0,0,1-5.64,4.24h0a7.48,7.48,0,0,0-6.13,9.16l2.36,9.67a7.48,7.48,0,0,1-1.23,6.19l-5.95,8.11a7.48,7.48,0,0,1-5.82,3.05l-11.42.32Z"/><path class="cls-2" d="M1591.55,549.37"/><path class="cls-2" d="M1580.17,573.83"/><path class="cls-2" d="M1555.71,562.45"/><line class="cls-2" x1="1566.25" y1="538.02" x2="1591.73" y2="549.87"/><line class="cls-2" x1="1581.03" y1="574.64" x2="1554.54" y2="562.32"/><line class="cls-2" x1="1542.64" y1="586.12" x2="1570.15" y2="598.92"/><line class="cls-2" x1="1533.53" y1="604.82" x2="1562.06" y2="618.09"/><line class="cls-2" x1="1526.33" y1="620.27" x2="1554.87" y2="633.55"/><line class="cls-2" x1="1519.52" y1="634.04" x2="1548.73" y2="647.63"/><line class="cls-2" x1="1514.38" y1="644.19" x2="1544.28" y2="658.09"/><line class="cls-2" x1="1509.88" y1="652.97" x2="1540.45" y2="667.2"/><circle class="cls-3" cx="1624.15" cy="469.37" r="1.12" transform="translate(-62.48 585.32) rotate(-20.05)"/><circle class="cls-3" cx="1616.73" cy="475.27" r="1.12" transform="translate(-64.95 583.14) rotate(-20.05)"/><circle class="cls-3" cx="1609.8" cy="481.39" r="1.12" transform="translate(-67.47 581.13) rotate(-20.05)"/><circle class="cls-3" cx="1602.38" cy="487.29" r="1.12" transform="translate(-69.95 578.94) rotate(-20.05)"/><circle class="cls-3" cx="1594.38" cy="493.8" r="1.12" transform="translate(-72.66 576.6) rotate(-20.05)"/><circle class="cls-3" cx="1586.04" cy="500.44" r="1.12" transform="translate(-75.44 574.14) rotate(-20.05)"/><polygon class="cls-1" points="1414.44 746.96 1523.67 761.79 1583.94 236.03 1496.56 224.16 1414.44 746.96"/><path class="cls-1" d="M1583.94,236l20.55-18.67a24.44,24.44,0,0,0,4.81-24.06L1549.53,18.06a24.44,24.44,0,0,0-29.08-15.82l-19.71,4.94a24.44,24.44,0,0,0-18.28,20.42L1479,52.85a24.44,24.44,0,0,0,8,21.62h0a24.44,24.44,0,0,1,.69,36l-23.55,22.43a24.44,24.44,0,0,0-7.54,19.22l2,32.8a24.44,24.44,0,0,0,10.62,18.67l30.85,21Z"/><path class="cls-2" d="M1484.7,311.54"/><path class="cls-2" d="M1472.83,398.92"/><path class="cls-2" d="M1560.21,410.79"/><line class="cls-2" x1="1574.34" y1="324.95" x2="1483.32" y2="312.59"/><line class="cls-2" x1="1469.02" y1="399.64" x2="1563.69" y2="412.5"/><line class="cls-2" x1="1554.41" y1="498.99" x2="1456.11" y2="485.64"/><line class="cls-2" x1="1546.48" y1="566.51" x2="1444.54" y2="552.67"/><line class="cls-2" x1="1538.98" y1="621.73" x2="1437.04" y2="607.89"/><line class="cls-2" x1="1533.44" y1="671.65" x2="1429.07" y2="657.48"/><line class="cls-2" x1="1529.65" y1="708.63" x2="1422.85" y2="694.13"/><line class="cls-2" x1="1526.52" y1="740.75" x2="1417.3" y2="725.92"/><circle class="cls-3" cx="1536.19" cy="33.89" r="3.67" transform="translate(293.13 937.12) rotate(-37.27)"/><circle class="cls-3" cx="1546.2" cy="63.21" r="3.67" transform="translate(277.42 949.16) rotate(-37.27)"/><circle class="cls-3" cx="1554.48" cy="92.3" r="3.67" transform="translate(261.49 960.12) rotate(-37.27)"/><circle class="cls-3" cx="1564.48" cy="121.63" r="3.67" transform="translate(245.78 972.16) rotate(-37.27)"/><circle class="cls-3" cx="1574.99" cy="153.64" r="3.67" transform="translate(228.54 985.07) rotate(-37.27)"/><circle class="cls-3" cx="1586.24" cy="186.64" r="3.67" transform="translate(210.86 998.61) rotate(-37.27)"/><path class="cls-1" d="M1293,31.49l-13.76,23.07a16.32,16.32,0,0,0-1.08,14.56l12.45,30.35a16.32,16.32,0,0,1,1.13,7.95L1228.93,688.6a16.32,16.32,0,0,0,15,18l26.7,2A16.32,16.32,0,0,0,1288.17,693l23.95-584.07a16.32,16.32,0,0,1,2.29-7.69l16.81-28.18a16.32,16.32,0,0,0,1.08-14.56l-10.2-24.85a16.32,16.32,0,0,0-13.89-10.08h0A16.32,16.32,0,0,0,1293,31.49Z"/><path class="cls-1" d="M1189.65,55l-5.34,26.33a16.32,16.32,0,0,0,3.8,14.09l21.81,24.51a16.32,16.32,0,0,1,3.7,7.13L1347,696.18a16.32,16.32,0,0,0,20.14,12l25.85-7a16.32,16.32,0,0,0,11.36-20.53l-171-559a16.32,16.32,0,0,1-.39-8l6.52-32.16a16.32,16.32,0,0,0-3.8-14.09l-17.86-20.07a16.32,16.32,0,0,0-16.44-4.91h0A16.32,16.32,0,0,0,1189.65,55Z"/><polygon class="cls-1" points="1390.42 690.07 1453.88 680.77 1402.87 377.14 1352.11 384.58 1390.42 690.07"/><path class="cls-1" d="M1402.87,377.14l8.48-13.75a14.22,14.22,0,0,0-1.19-14.23l-61.64-88.34a14.22,14.22,0,0,0-18.8-4.16l-10.22,5.94a14.22,14.22,0,0,0-6.93,14.36l2.15,14.67a14.22,14.22,0,0,0,8,10.79h0a14.22,14.22,0,0,1,6.19,20l-9.55,16.34a14.22,14.22,0,0,0-1.12,12l6.43,18a14.22,14.22,0,0,0,8.95,8.73l20.63,6.79Z"/><path class="cls-2" d="M1359.55,435.34"/><path class="cls-2" d="M1367,486.1"/><path class="cls-2" d="M1417.76,478.66"/><line class="cls-2" x1="1411.83" y1="428.39" x2="1358.95" y2="436.15"/><line class="cls-2" x1="1364.98" y1="487.12" x2="1419.97" y2="479.05"/><line class="cls-2" x1="1428.72" y1="528.9" x2="1371.62" y2="537.27"/><line class="cls-2" x1="1435.17" y1="567.92" x2="1375.95" y2="576.61"/><line class="cls-2" x1="1439.87" y1="600" x2="1380.65" y2="608.69"/><line class="cls-2" x1="1444.81" y1="628.8" x2="1384.18" y2="637.7"/><line class="cls-2" x1="1448.66" y1="650.09" x2="1386.61" y2="659.18"/><line class="cls-2" x1="1452.08" y1="668.55" x2="1388.63" y2="677.85"/><circle class="cls-3" cx="1343.61" cy="271.82" r="2.14" transform="translate(323.37 1187.4) rotate(-53.34)"/><circle class="cls-3" cx="1353.93" cy="286.6" r="2.14" transform="translate(315.67 1201.63) rotate(-53.34)"/><circle class="cls-3" cx="1363.24" cy="301.53" r="2.14" transform="translate(307.45 1215.13) rotate(-53.34)"/><circle class="cls-3" cx="1373.56" cy="316.32" r="2.14" transform="translate(299.75 1229.36) rotate(-53.34)"/><circle class="cls-3" cx="1384.59" cy="332.52" r="2.14" transform="translate(291.19 1244.74) rotate(-53.34)"/><circle class="cls-3" cx="1396.2" cy="349.15" r="2.14" transform="translate(282.53 1260.75) rotate(-53.34)"/><path class="cls-1" d="M1220.8,478.48c-44.17-64-63.57-234.52-68.3-282.9-.55-5.61-6.65-9.33-10.8-6.58L961,308.86c-4.11,2.73-3.13,9.7,1.75,12.45,42.11,23.7,191.19,110.45,235.43,174.57l115.63,177.39,26.54-17.6Z"/><ellipse class="cls-1" cx="1050.73" cy="249.33" rx="120.69" ry="30.17" transform="translate(37.25 622.25) rotate(-33.55)"/><rect class="cls-1" x="1302.2" y="663.45" width="60.35" height="15.09" rx="6.16" ry="6.16" transform="translate(-148.87 848.15) rotate(-33.55)"/><rect class="cls-1" x="1148.14" y="449.38" width="90.52" height="30.17" rx="7.7" ry="7.7" transform="translate(-57.88 736.94) rotate(-33.55)"/><rect class="cls-1" x="1173.16" y="487.1" width="90.52" height="30.17" rx="7.7" ry="7.7" transform="translate(-74.56 757.05) rotate(-33.55)"/><rect class="cls-1" x="1198.17" y="524.82" width="90.52" height="30.17" rx="7.7" ry="7.7" transform="translate(-91.23 777.15) rotate(-33.55)"/><rect class="cls-1" x="1229.87" y="435.28" width="15.09" height="0.02" transform="translate(-34.42 756.4) rotate(-33.55)"/><rect class="cls-1" x="1242.44" y="411.86" width="15.09" height="30.17" rx="6.16" ry="6.16" transform="translate(-27.71 761.96) rotate(-33.55)"/><rect class="cls-1" x="1267.45" y="449.58" width="15.09" height="30.17" rx="6.16" ry="6.16" transform="translate(-44.39 782.06) rotate(-33.55)"/><rect class="cls-1" x="1254.88" y="473" width="15.09" height="0.02" transform="translate(-51.1 776.51) rotate(-33.55)"/><rect class="cls-1" x="1279.9" y="510.72" width="15.09" height="0.02" transform="translate(-67.78 796.62) rotate(-33.55)"/><rect class="cls-1" x="1292.47" y="487.3" width="15.09" height="30.17" rx="6.16" ry="6.16" transform="translate(-61.07 802.17) rotate(-33.55)"/><path class="cls-1" d="M1674.5,843.73H1.5V750.47l50.86-33.84A178.07,178.07,0,0,1,158.71,687l212,9.2a87.61,87.61,0,0,0,51-13.7L615.12,558.86a72.25,72.25,0,0,1,55.39-9.46l436.36,102.23a88.67,88.67,0,0,0,57.85-6l97.73-45.79a118.59,118.59,0,0,1,82-6.89l330,91.57Z"/><path class="cls-4" d="M794.52,619"/><rect class="cls-5" x="478.84" y="668.58" width="305.64" height="101.71" rx="3" ry="3"/><path class="cls-6" d="M781.48,670.08a1.5,1.5,0,0,1,1.5,1.5v95.72a1.5,1.5,0,0,1-1.5,1.5H481.84a1.5,1.5,0,0,1-1.5-1.5V671.58a1.5,1.5,0,0,1,1.5-1.5H781.48m0-3H481.84a4.5,4.5,0,0,0-4.5,4.5v95.72a4.5,4.5,0,0,0,4.5,4.5H781.48a4.5,4.5,0,0,0,4.5-4.5V671.58a4.5,4.5,0,0,0-4.5-4.5Z"/><rect class="cls-7" x="748.9" y="690.62" width="30.07" height="79.67" rx="3" ry="3"/><path class="cls-6" d="M776,692.12a1.5,1.5,0,0,1,1.5,1.5v73.67a1.5,1.5,0,0,1-1.5,1.5H751.9a1.5,1.5,0,0,1-1.5-1.5V693.62a1.5,1.5,0,0,1,1.5-1.5H776m0-3H751.9a4.5,4.5,0,0,0-4.5,4.5v73.67a4.5,4.5,0,0,0,4.5,4.5H776a4.5,4.5,0,0,0,4.5-4.5V693.62a4.5,4.5,0,0,0-4.5-4.5Z"/><rect class="cls-5" x="743.39" y="751.25" width="46.6" height="19.04" rx="3" ry="3"/><path class="cls-6" d="M787,752.75a1.5,1.5,0,0,1,1.5,1.5v13a1.5,1.5,0,0,1-1.5,1.5h-40.6a1.5,1.5,0,0,1-1.5-1.5v-13a1.5,1.5,0,0,1,1.5-1.5H787m0-3h-40.6a4.5,4.5,0,0,0-4.5,4.5v13a4.5,4.5,0,0,0,4.5,4.5H787a4.5,4.5,0,0,0,4.5-4.5v-13a4.5,4.5,0,0,0-4.5-4.5Z"/><rect class="cls-5" x="473.33" y="751.25" width="13.53" height="19.04" rx="3" ry="3"/><path class="cls-6" d="M483.86,752.75a1.5,1.5,0,0,1,1.5,1.5v13a1.5,1.5,0,0,1-1.5,1.5h-7.53a1.5,1.5,0,0,1-1.5-1.5v-13a1.5,1.5,0,0,1,1.5-1.5h7.53m0-3h-7.53a4.5,4.5,0,0,0-4.5,4.5v13a4.5,4.5,0,0,0,4.5,4.5h7.53a4.5,4.5,0,0,0,4.5-4.5v-13a4.5,4.5,0,0,0-4.5-4.5Z"/><path class="cls-5" d="M543.48,797.85A20.55,20.55,0,1,1,564,777.3,20.57,20.57,0,0,1,543.48,797.85Z"/><path class="cls-6" d="M543.48,758.26a19,19,0,1,1-19,19,19.07,19.07,0,0,1,19-19m0-3a22,22,0,1,0,22,22,22,22,0,0,0-22-22Z"/><path class="cls-6" d="M543.48,786.83A9.52,9.52,0,1,1,553,777.3,9.53,9.53,0,0,1,543.48,786.83Z"/><path class="cls-6" d="M543.48,769.28a8,8,0,1,1-8,8,8,8,0,0,1,8-8m0-3a11,11,0,1,0,11,11,11,11,0,0,0-11-11Z"/><path class="cls-5" d="M719.84,797.85a20.55,20.55,0,1,1,20.55-20.55A20.57,20.57,0,0,1,719.84,797.85Z"/><path class="cls-6" d="M719.84,758.26a19,19,0,1,1-19,19,19.07,19.07,0,0,1,19-19m0-3a22,22,0,1,0,22,22,22,22,0,0,0-22-22Z"/><rect class="cls-7" x="495.38" y="685.11" width="24.56" height="35.58" rx="3" ry="3"/><path class="cls-6" d="M516.93,686.61a1.5,1.5,0,0,1,1.5,1.5v29.58a1.5,1.5,0,0,1-1.5,1.5H498.38a1.5,1.5,0,0,1-1.5-1.5V688.11a1.5,1.5,0,0,1,1.5-1.5h18.56m0-3H498.38a4.5,4.5,0,0,0-4.5,4.5v29.58a4.5,4.5,0,0,0,4.5,4.5h18.56a4.5,4.5,0,0,0,4.5-4.5V688.11a4.5,4.5,0,0,0-4.5-4.5Z"/><rect class="cls-7" x="533.96" y="685.11" width="24.56" height="35.58" rx="3" ry="3"/><path class="cls-6" d="M555.51,686.61a1.5,1.5,0,0,1,1.5,1.5v29.58a1.5,1.5,0,0,1-1.5,1.5H537a1.5,1.5,0,0,1-1.5-1.5V688.11a1.5,1.5,0,0,1,1.5-1.5h18.56m0-3H537a4.5,4.5,0,0,0-4.5,4.5v29.58a4.5,4.5,0,0,0,4.5,4.5h18.56a4.5,4.5,0,0,0,4.5-4.5V688.11a4.5,4.5,0,0,0-4.5-4.5Z"/><rect class="cls-7" x="572.53" y="685.11" width="24.56" height="35.58" rx="3" ry="3"/><path class="cls-6" d="M594.09,686.61a1.5,1.5,0,0,1,1.5,1.5v29.58a1.5,1.5,0,0,1-1.5,1.5H575.53a1.5,1.5,0,0,1-1.5-1.5V688.11a1.5,1.5,0,0,1,1.5-1.5h18.56m0-3H575.53a4.5,4.5,0,0,0-4.5,4.5v29.58a4.5,4.5,0,0,0,4.5,4.5h18.56a4.5,4.5,0,0,0,4.5-4.5V688.11a4.5,4.5,0,0,0-4.5-4.5Z"/><rect class="cls-7" x="611.11" y="685.11" width="24.56" height="35.58" rx="3" ry="3"/><path class="cls-6" d="M632.67,686.61a1.5,1.5,0,0,1,1.5,1.5v29.58a1.5,1.5,0,0,1-1.5,1.5H614.11a1.5,1.5,0,0,1-1.5-1.5V688.11a1.5,1.5,0,0,1,1.5-1.5h18.56m0-3H614.11a4.5,4.5,0,0,0-4.5,4.5v29.58a4.5,4.5,0,0,0,4.5,4.5h18.56a4.5,4.5,0,0,0,4.5-4.5V688.11a4.5,4.5,0,0,0-4.5-4.5Z"/><rect class="cls-7" x="649.69" y="685.11" width="24.56" height="35.58" rx="3" ry="3"/><path class="cls-6" d="M671.25,686.61a1.5,1.5,0,0,1,1.5,1.5v29.58a1.5,1.5,0,0,1-1.5,1.5H652.69a1.5,1.5,0,0,1-1.5-1.5V688.11a1.5,1.5,0,0,1,1.5-1.5h18.56m0-3H652.69a4.5,4.5,0,0,0-4.5,4.5v29.58a4.5,4.5,0,0,0,4.5,4.5h18.56a4.5,4.5,0,0,0,4.5-4.5V688.11a4.5,4.5,0,0,0-4.5-4.5Z"/><rect class="cls-7" x="688.27" y="685.11" width="24.56" height="35.58" rx="3" ry="3"/><path class="cls-6" d="M709.83,686.61a1.5,1.5,0,0,1,1.5,1.5v29.58a1.5,1.5,0,0,1-1.5,1.5H691.27a1.5,1.5,0,0,1-1.5-1.5V688.11a1.5,1.5,0,0,1,1.5-1.5h18.56m0-3H691.27a4.5,4.5,0,0,0-4.5,4.5v29.58a4.5,4.5,0,0,0,4.5,4.5h18.56a4.5,4.5,0,0,0,4.5-4.5V688.11a4.5,4.5,0,0,0-4.5-4.5Z"/><path class="cls-8" d="M477.34,738.72"/><rect class="cls-1" x="477.34" y="738.72" width="259.03" height="5.51" rx="2.25" ry="2.25"/><line class="cls-2" x1="763.93" y1="689.12" x2="763.93" y2="749.75"/><path class="cls-6" d="M719.84,786.83a9.52,9.52,0,1,1,9.52-9.52A9.53,9.53,0,0,1,719.84,786.83Z"/><path class="cls-6" d="M719.84,769.28a8,8,0,1,1-8,8,8,8,0,0,1,8-8m0-3a11,11,0,1,0,11,11,11,11,0,0,0-11-11Z"/><path class="cls-9" d="M418.17,717.63a16.16,16.16,0,0,1-2,4,25.86,25.86,0,0,0-1.73-2.93A10.66,10.66,0,0,1,418.17,717.63Z"/><path class="cls-9" d="M418.17,717.63a16.16,16.16,0,0,1-2,4,25.86,25.86,0,0,0-1.73-2.93A10.66,10.66,0,0,1,418.17,717.63Z"/><path class="cls-10" d="M456.23,752.6a11,11,0,0,1-11,11,10.81,10.81,0,0,1-4.41-.93,5.51,5.51,0,1,1-6.42-8,11.65,11.65,0,0,1-.2-2.08,11,11,0,1,1,22,0Z"/><circle class="cls-10" cx="460.74" cy="781.16" r="5.51"/><path class="cls-10" d="M414.47,720.37a18.5,18.5,0,0,0,2.34-4.53,13,13,0,0,1,1.9,0,11.84,11.84,0,0,1,10.4,6.52c4.51,9.44-2.26,18.72-11.19,18.72h-.63a31.56,31.56,0,0,1-48.14,20.16,44.26,44.26,0,0,1-60.71-20.37l-.22,0a37.88,37.88,0,1,1,26.18-60.63,44.29,44.29,0,0,1,50.41,16.72,18.87,18.87,0,0,1,14.54-6.38,19.09,19.09,0,0,1,18.42,16.59,18.88,18.88,0,0,1-1,8.71"/><text class="cls-11" transform="translate(320.83 715.43)"><tspan class="cls-12">P</tspan><tspan class="cls-13" x="7.92" y="0">o</tspan><tspan class="cls-14" x="15.83" y="0">w</tspan><tspan x="27.12" y="0">e</tspan><tspan class="cls-15" x="34.8" y="0">r</tspan><tspan x="39.98" y="0">ed </tspan><tspan x="-7.47" y="17.64">by Busbud</tspan></text><line class="cls-8" x1="1675.5" y1="798.95" x2="1.5" y2="798.95"/></g></g></svg>