<?xml version="1.0" encoding="UTF-8" standalone="no"?>
<!-- Created with Inkscape (http://www.inkscape.org/) -->
<svg
   xmlns:dc="http://purl.org/dc/elements/1.1/"
   xmlns:cc="http://creativecommons.org/ns#"
   xmlns:rdf="http://www.w3.org/1999/02/22-rdf-syntax-ns#"
   xmlns:svg="http://www.w3.org/2000/svg"
   xmlns="http://www.w3.org/2000/svg"
   xmlns:sodipodi="http://sodipodi.sourceforge.net/DTD/sodipodi-0.dtd"
   xmlns:inkscape="http://www.inkscape.org/namespaces/inkscape"
   version="1.0"
   viewBox="0 0 240 180"
   id="svg2325"
   sodipodi:version="0.32"
   inkscape:version="0.46"
   sodipodi:docname="buddy_crying.svg"
   inkscape:output_extension="org.inkscape.output.svg.inkscape">
  <g
     id="layer1">
    <g
       transform="translate(241.42857,201.42857)"
       id="g2546">
      <path
         d="M 367.85713 604.50507 A 61.42857 13.571428 0 1 1  244.99999,604.50507 A 61.42857 13.571428 0 1 1  367.85713 604.50507 z"
         transform="matrix(1.093023,0,0,0.842105,-467.33603,-549.73907)"
         style="opacity:1;fill:#000000;fill-opacity:0.39215686;stroke:none;stroke-width:2.5;stroke-linecap:round;stroke-linejoin:round;stroke-miterlimit:4;stroke-dasharray:none;stroke-opacity:1"
         id="path2183" />
      <path
         d="M -56.126576,-115.46432 C -56.126576,-67.88189 -96.361596,-38.01425 -138.36121,-38.01425 C -180.36081,-38.01425 -213.6789,-58.57091 -213.6789,-106.15334 C -213.6789,-153.73577 -179.59225,-192.35338 -137.59266,-192.35338 C -95.593046,-192.35338 -56.126576,-163.04675 -56.126576,-115.46432 z "
         style="fill:#ffffff;fill-opacity:0.65;stroke:#000000;stroke-width:2.49999952;stroke-linecap:round;stroke-linejoin:round;stroke-miterlimit:4;stroke-opacity:1"
         id="path2185" />
      <path
         d="M -109.55563,-150.95559 C -108.54107,-135.52572 -92.167276,-120.22334 -79.593206,-119.72451 C -67.019126,-119.22568 -59.858876,-130.13281 -59.433746,-143.43925 C -59.008606,-156.74568 -69.890876,-169.22877 -83.724516,-171.30328 C -97.558136,-173.37779 -110.56794,-166.3509 -109.55563,-150.95559 z "
         style="fill:#ffffff;fill-opacity:1;stroke:#000000;stroke-width:2.50000119;stroke-linecap:round;stroke-linejoin:round;stroke-miterlimit:4;stroke-opacity:1"
         id="path2187" />
      <path
         d="M -114.54637,-154.35186 C -114.95276,-137.34467 -133.01593,-125.80027 -147.46773,-125.27971 C -161.91955,-124.75917 -173.38646,-133.36076 -171.35609,-148.01828 C -169.40495,-162.10389 -156.29592,-172.91173 -140.5879,-176.92609 C -125.62172,-180.75091 -114.1409,-171.32097 -114.54637,-154.35186 z "
         style="fill:#ffffff;fill-opacity:1;stroke:#000000;stroke-width:2.50000048;stroke-linecap:round;stroke-linejoin:round;stroke-miterlimit:4;stroke-opacity:1"
         id="path2189" />
      <path
         d="M -108.46721,-158.3146 C -100.7014,-162.66681 -84.035046,-164.02844 -71.169876,-158.81268"
         style="fill:none;fill-opacity:0.75;fill-rule:evenodd;stroke:#000000;stroke-width:2.50000095;stroke-linecap:round;stroke-linejoin:round;stroke-miterlimit:4;stroke-dasharray:none;stroke-opacity:1"
         id="path2193" />
      <path
         d="M -108.57539,-156.18982 C -101.25036,-149.11951 -85.244446,-142.53983 -67.215346,-139.38725"
         style="fill:none;fill-opacity:0.75;fill-rule:evenodd;stroke:#000000;stroke-width:2.50000095;stroke-linecap:round;stroke-linejoin:round;stroke-miterlimit:4;stroke-dasharray:none;stroke-opacity:1"
         id="path2195" />
      <path
         d="M -107.86965,-157.44148 C -103.07074,-158.77403 -94.683166,-156.53291 -89.989896,-152.80183"
         style="fill:none;fill-opacity:0.75;fill-rule:evenodd;stroke:#000000;stroke-width:2.50000238;stroke-linecap:round;stroke-linejoin:round;stroke-miterlimit:4;stroke-dasharray:none;stroke-opacity:1"
         id="path2197" />
      <path
         d="M -115.82706,-161.06951 C -124.28263,-165.37566 -142.60912,-166.62132 -156.89711,-161.30262"
         style="fill:none;fill-opacity:0.75;fill-rule:evenodd;stroke:#000000;stroke-width:2.50000072;stroke-linecap:round;stroke-linejoin:round;stroke-miterlimit:4;stroke-dasharray:none;stroke-opacity:1"
         id="path2199" />
      <path
         d="M -115.58189,-158.66541 C -122.63309,-149.9508 -138.35044,-142.31556 -156.20328,-139.19234"
         style="fill:none;fill-opacity:0.75;fill-rule:evenodd;stroke:#000000;stroke-width:2.50000095;stroke-linecap:round;stroke-linejoin:round;stroke-miterlimit:4;stroke-dasharray:none;stroke-opacity:1"
         id="path2201" />
      <path
         d="M -115.15668,-159.15719 C -122.11559,-158.8514 -128.67267,-157.59596 -133.65996,-154.91158"
         style="fill:none;fill-opacity:0.75;fill-rule:evenodd;stroke:#000000;stroke-width:2.50000191;stroke-linecap:round;stroke-linejoin:round;stroke-miterlimit:4;stroke-dasharray:none;stroke-opacity:1"
         id="path2203" />
      <path
         d="M -161.76079,-71.16609 C -161.09788,-50.36001 -147.96113,-45.34289 -126.69836,-49.37476 C -96.875686,-55.02978 -84.058856,-64.96826 -84.721756,-85.77434 C -85.384656,-106.58042 -98.821636,-121.02059 -120.08442,-116.98872 C -141.34719,-112.95685 -162.4237,-91.97218 -161.76079,-71.16609 z "
         style="fill:#000000;fill-opacity:1;stroke:none;stroke-width:2.5;stroke-linecap:round;stroke-linejoin:round;stroke-miterlimit:4;stroke-opacity:1"
         id="path2205" />
      <path
         d="M -206.71415,-179.72134 C -210.97659,-162.72603 -185.87862,-173.21117 -175.79118,-161.18021 C -177.17611,-179.6351 -202.60252,-196.11526 -206.71415,-179.72134 z "
         style="fill:#ffffff;fill-opacity:1;fill-rule:evenodd;stroke:#000000;stroke-width:2.50000238;stroke-linecap:butt;stroke-linejoin:miter;stroke-miterlimit:4;stroke-dasharray:none;stroke-opacity:1"
         id="path2207" />
      <path
         d="M -23.230936,-179.67155 C -21.634526,-162.22277 -44.820086,-176.44512 -56.638726,-166.10972 C -52.430406,-184.13168 -24.770876,-196.50289 -23.230936,-179.67155 z "
         style="fill:#ffffff;fill-opacity:1;fill-rule:evenodd;stroke:#000000;stroke-width:2.50000072;stroke-linecap:butt;stroke-linejoin:miter;stroke-miterlimit:4;stroke-dasharray:none;stroke-opacity:1"
         id="path2209" />
      <path
         d="M -6.8409065,-148.82962 C -16.843146,-140.2825 -18.762196,-160.01979 -30.561266,-162.40567 C -17.534816,-167.81559 2.8074035,-157.0743 -6.8409065,-148.82962 z "
         style="fill:#ffffff;fill-opacity:1;fill-rule:evenodd;stroke:#000000;stroke-width:2.50000072;stroke-linecap:butt;stroke-linejoin:miter;stroke-miterlimit:4;stroke-dasharray:none;stroke-opacity:1"
         id="path2211" />
      <path
         d="M -236.01624,-141.7454 C -226.014,-133.19828 -224.09495,-152.93557 -212.29588,-155.32145 C -225.32233,-160.73137 -245.66455,-149.99008 -236.01624,-141.7454 z "
         style="fill:#ffffff;fill-opacity:1;fill-rule:evenodd;stroke:#000000;stroke-width:2.50000072;stroke-linecap:butt;stroke-linejoin:miter;stroke-miterlimit:4;stroke-dasharray:none;stroke-opacity:1"
         id="path2213" />
    </g>
  </g>
</svg>
