<?xml version="1.0" encoding="UTF-8"?>
<svg viewBox="0 0 496 135" version="1.1" xmlns="http://www.w3.org/2000/svg" xmlns:xlink="http://www.w3.org/1999/xlink">
    <!-- Generator: Sketch 46.2 (44496) - http://www.bohemiancoding.com/sketch -->
    <title>osheaga-logo</title>
    <desc>Created with Sketch.</desc>
    <defs>
        <path d="M74.3213729,43.4321373 C74.3213729,14.2277691 62.1528861,0 37.0670827,0 C23.400936,0 13.4789392,4.49297972 7.30109204,13.2917317 C2.43369735,20.4056162 0,30.1404056 0,43.2449298 C0,72.449298 12.1684867,86.4898596 37.0670827,86.4898596 C62.1528861,86.4898596 74.3213729,72.449298 74.3213729,43.4321373 Z M37.0670827,15.9126365 C51.1076443,15.9126365 56.9110764,23.775351 56.9110764,43.2449298 C56.9110764,56.9110764 56.9110764,64.5865835 54.6645866,67.5819033 C52.6053042,70.3900156 47.3634945,70.3900156 37.0670827,70.3900156 C23.0265211,70.3900156 17.4102964,62.5273011 17.4102964,43.0577223 C17.4102964,29.2043682 17.4102964,21.7160686 19.6567863,18.5335413 C21.7160686,15.9126365 26.9578783,15.9126365 37.0670827,15.9126365 Z M135.538222,59.9063963 C135.538222,41.3728549 118.876755,37.6287051 106.895476,34.8205928 C97.3478939,32.574103 91.5444618,31.0764431 91.5444618,26.2090484 C91.5444618,21.9032761 91.5444618,18.7207488 92.2932917,17.9719189 C93.0421217,17.0358814 96.4118565,16.8486739 100.530421,16.8486739 L120.936037,16.8486739 C126.365055,16.8486739 129.360374,16.8486739 131.232449,14.6021841 C132.917317,12.5429017 132.917317,9.5475819 132.917317,2.99531981 L132.917317,0.748829953 L105.959438,0.748829953 C94.5397816,0.748829953 85.9282371,3.55694228 80.6864275,8.98595944 C76.3806552,13.4789392 74.3213729,19.4695788 74.3213729,26.9578783 C74.5085803,44.1809672 89.4851794,47.550702 101.279251,50.1716069 C111.950078,52.6053042 118.50234,54.2901716 118.50234,61.2168487 C118.50234,64.9609984 118.50234,67.7691108 117.75351,68.5179407 C117.00468,69.2667707 112.5117,69.2667707 109.141966,69.2667707 L89.2979719,69.2667707 C83.8689548,69.2667707 80.6864275,69.2667707 78.8143526,71.5132605 C76.9422777,73.5725429 76.9422777,76.7550702 76.9422777,83.3073323 L76.9422777,85.5538222 L103.712949,85.5538222 C132.355694,85.7410296 135.538222,67.5819033 135.538222,59.9063963 Z M187.020281,71.8876755 C187.020281,78.2527301 187.020281,81.4352574 189.453978,83.4945398 C191.700468,85.5538222 195.25741,85.5538222 202.184087,85.5538222 L204.430577,85.5538222 L204.430577,14.4149766 C204.430577,8.42433697 204.430577,5.05460218 201.99688,2.99531981 C199.75039,1.12324493 196.380655,1.12324493 189.453978,1.12324493 L187.207488,1.12324493 L187.207488,34.8205928 L155.75663,34.8205928 L155.75663,14.4149766 C155.75663,8.23712949 155.75663,5.05460218 153.322933,2.99531981 C151.076443,1.12324493 147.706708,1.12324493 140.780031,1.12324493 L138.533541,1.12324493 L138.533541,72.074883 C138.533541,78.4399376 138.533541,81.6224649 140.780031,83.6817473 C143.026521,85.7410296 146.396256,85.7410296 153.322933,85.7410296 L155.569423,85.7410296 L155.569423,50.1716069 L186.833073,50.1716069 L186.833073,71.8876755 L187.020281,71.8876755 Z M300.842434,0.748829953 C291.107644,0.748829953 290.171607,1.49765991 286.801872,11.4196568 L265.647426,73.5725429 C265.273011,72.8237129 264.898596,72.2620905 264.524181,71.700468 C262.464899,69.6411856 259.282371,69.6411856 253.104524,69.6411856 L228.205928,69.6411856 L228.205928,50.1716069 L263.026521,50.1716069 L263.026521,47.925117 C263.026521,41.7472699 263.026521,38.7519501 261.154446,36.6926677 C259.282371,34.6333853 256.287051,34.6333853 250.670827,34.6333853 L228.205928,34.6333853 L228.205928,16.8486739 L266.583463,16.8486739 L266.583463,14.6021841 C266.583463,8.23712949 266.583463,5.24180967 264.711388,2.99531981 C262.652106,0.748829953 259.656786,0.748829953 254.040562,0.748829953 L225.959438,0.748829953 C219.219969,0.748829953 215.663027,0.748829953 213.603744,2.80811232 C211.357254,4.8673947 211.357254,8.049922 211.357254,14.4149766 L211.357254,71.700468 C211.357254,78.0655226 211.357254,81.2480499 213.603744,83.3073323 C215.850234,85.3666147 219.219969,85.3666147 225.959438,85.3666147 L266.583463,85.3666147 C278.564743,85.3666147 280.062402,84.6177847 283.057722,75.4446178 L284.929797,69.6411856 L317.5039,69.6411856 L319.375975,75.2574103 C322.74571,84.9921997 323.868955,85.1794072 337.535101,85.1794072 L340.717629,85.1794072 L310.764431,0.748829953 L300.842434,0.748829953 Z M289.422777,55.4134165 L301.029641,19.6567863 L312.636505,55.4134165 L289.422777,55.4134165 L289.422777,55.4134165 Z M440.49922,0.748829953 C430.764431,0.748829953 429.828393,1.49765991 426.458658,11.4196568 L404.555382,75.8190328 L404.555382,34.4461778 L356.068643,34.4461778 L356.068643,36.6926677 C356.068643,43.0577223 356.068643,46.0530421 357.566303,47.925117 C359.25117,50.3588144 362.059282,50.3588144 366.177847,50.3588144 L387.519501,50.3588144 C387.519501,60.2808112 387.332293,65.8970359 385.460218,68.1435257 C383.588144,70.3900156 378.907956,70.3900156 369.173167,70.3900156 C356.25585,70.3900156 350.639626,62.1528861 350.639626,43.0577223 C350.639626,29.9531981 350.639626,22.6521061 352.5117,19.4695788 C354.00936,17.0358814 357.566303,16.6614665 365.616225,16.6614665 L387.519501,16.6614665 C392.948518,16.6614665 396.131045,16.6614665 398.00312,14.4149766 C399.875195,12.3556942 399.875195,9.17316693 399.875195,2.80811232 L399.875195,0.748829953 L369.173167,0.748829953 C345.023401,0.748829953 333.229329,14.6021841 333.229329,43.2449298 C333.229329,71.5132605 345.397816,86.4898596 368.424337,86.4898596 C377.597504,86.4898596 384.524181,83.6817473 389.765991,78.0655226 C389.953198,80.49922 390.327613,81.9968799 391.450858,83.3073323 C393.322933,85.5538222 396.131045,85.7410296 401.185647,85.7410296 L404.555382,85.7410296 C418.034321,85.7410296 419.344774,85.3666147 422.527301,75.8190328 L424.399376,70.0156006 L456.786271,70.0156006 L458.658346,75.6318253 C462.028081,85.3666147 463.151326,85.5538222 476.817473,85.5538222 L480,85.5538222 L450.421217,0.748829953 L440.49922,0.748829953 L440.49922,0.748829953 Z M428.892356,55.4134165 L440.49922,19.6567863 L452.106084,55.4134165 L428.892356,55.4134165 L428.892356,55.4134165 Z M43.8065523,94.7269891 C43.8065523,91.7316693 43.8065523,91.7316693 41.1856474,91.7316693 L33.3229329,91.7316693 C29.7659906,91.7316693 29.7659906,91.7316693 29.7659906,94.7269891 L29.7659906,109.890796 C29.7659906,112.698908 29.7659906,112.698908 33.3229329,112.698908 L33.3229329,103.338534 L43.0577223,103.338534 C43.0577223,100.343214 43.0577223,100.343214 40.24961,100.343214 L33.3229329,100.343214 L33.3229329,94.5397816 L43.8065523,94.5397816 L43.8065523,94.7269891 Z M62.7145086,94.7269891 C62.7145086,91.7316693 62.7145086,91.7316693 59.9063963,91.7316693 L52.0436817,91.7316693 C48.4867395,91.7316693 48.4867395,91.7316693 48.4867395,94.7269891 L48.4867395,109.890796 C48.4867395,112.886115 48.4867395,112.886115 52.0436817,112.886115 L62.9017161,112.886115 C62.9017161,109.890796 62.9017161,109.890796 59.7191888,109.890796 L52.0436817,109.890796 L52.0436817,103.525741 L61.7784711,103.525741 C61.7784711,100.530421 61.7784711,100.530421 58.9703588,100.530421 L52.0436817,100.530421 L52.0436817,94.7269891 L62.7145086,94.7269891 L62.7145086,94.7269891 Z M70.3900156,97.7223089 C70.3900156,94.5397816 70.3900156,94.7269891 75.0702028,94.7269891 L79.375975,94.7269891 C82.1840874,94.7269891 82.1840874,94.7269891 82.1840874,91.7316693 L75.2574103,91.7316693 C69.4539782,91.7316693 67.0202808,94.1653666 67.0202808,98.0967239 C67.2074883,105.585023 79.375975,102.028081 79.375975,107.082683 C79.375975,110.078003 79.375975,109.890796 74.5085803,109.890796 L70.5772231,109.890796 C67.7691108,109.890796 67.7691108,109.890796 67.7691108,113.073323 L74.6957878,113.073323 C81.0608424,113.073323 82.9329173,109.890796 82.9329173,106.895476 C82.7457098,98.8455538 70.3900156,102.028081 70.3900156,97.7223089 L70.3900156,97.7223089 Z M85.1794072,94.7269891 L90.9828393,94.7269891 L90.9828393,109.890796 C90.9828393,112.886115 90.9828393,112.886115 94.3525741,112.886115 L94.3525741,94.7269891 L97.5351014,94.7269891 C100.343214,94.7269891 100.343214,94.7269891 100.343214,91.7316693 L87.6131045,91.7316693 C85.1794072,91.7316693 85.1794072,91.7316693 85.1794072,94.7269891 L85.1794072,94.7269891 Z M104.836193,91.7316693 L104.836193,110.078003 C104.836193,112.886115 104.836193,112.886115 108.393136,112.886115 L108.393136,94.5397816 C108.393136,91.7316693 108.393136,91.7316693 104.836193,91.7316693 Z M127.675507,94.5397816 L122.24649,110.078003 L117.00468,94.5397816 C115.881435,91.5444618 115.881435,91.5444618 112.137285,91.5444618 L120,112.698908 L122.24649,112.698908 C124.305772,112.698908 124.305772,112.698908 125.429017,110.078003 L132.542902,91.5444618 C128.798752,91.5444618 128.798752,91.5444618 127.675507,94.5397816 L127.675507,94.5397816 Z M142.090484,91.5444618 C139.656786,91.5444618 139.656786,91.5444618 138.720749,93.9781591 L131.981279,112.698908 C135.725429,112.698908 135.725429,112.698908 136.474259,110.452418 L137.035881,108.580343 L147.145086,108.580343 L147.893916,110.452418 C148.642746,112.698908 148.642746,112.698908 152.386895,112.698908 L144.524181,91.5444618 L142.090484,91.5444618 L142.090484,91.5444618 Z M137.971919,105.959438 L142.090484,93.9781591 L146.209048,105.959438 L137.971919,105.959438 Z M164.929797,109.890796 L159.875195,109.890796 L159.875195,94.7269891 C159.875195,91.7316693 159.875195,91.7316693 156.318253,91.7316693 L156.318253,109.890796 C156.318253,112.886115 156.318253,112.886115 159.687988,112.886115 L167.73791,112.886115 C167.73791,109.890796 167.73791,109.890796 164.929797,109.890796 L164.929797,109.890796 Z M200.873635,94.3525741 L195.819033,106.333853 L194.882995,109.141966 C194.882995,109.141966 194.134165,107.082683 193.946958,106.333853 L189.079563,94.3525741 C187.956318,91.5444618 187.956318,91.7316693 184.773791,91.7316693 L182.714509,91.7316693 L182.714509,110.078003 C182.714509,112.886115 182.714509,112.886115 186.271451,112.886115 L186.271451,96.0374415 L193.198128,112.886115 L194.882995,112.886115 C196.75507,112.886115 196.567863,112.886115 197.691108,110.452418 L203.49454,96.0374415 L203.49454,109.890796 C203.49454,112.698908 203.49454,112.698908 207.051482,112.698908 L207.051482,91.5444618 L204.617785,91.5444618 C201.99688,91.5444618 201.99688,91.7316693 200.873635,94.3525741 L200.873635,94.3525741 Z M226.895476,91.5444618 L226.895476,109.516381 L221.653666,109.516381 C217.535101,109.516381 216.411856,107.457098 216.411856,102.964119 L216.411856,94.1653666 C216.411856,91.5444618 216.411856,91.5444618 212.854914,91.5444618 L212.854914,103.338534 C212.854914,110.265211 215.288612,112.886115 221.653666,112.886115 L226.895476,112.886115 C230.452418,112.886115 230.452418,112.886115 230.452418,109.703588 L230.452418,94.5397816 C230.452418,91.5444618 230.452418,91.5444618 226.895476,91.5444618 L226.895476,91.5444618 Z M238.689548,97.7223089 C238.689548,94.5397816 238.689548,94.7269891 243.369735,94.7269891 L247.675507,94.7269891 C250.483619,94.7269891 250.483619,94.7269891 250.483619,91.7316693 L243.369735,91.7316693 C237.566303,91.7316693 235.132605,94.1653666 235.132605,98.0967239 C235.319813,105.585023 247.4883,102.028081 247.4883,107.082683 C247.4883,110.078003 247.4883,109.890796 242.620905,109.890796 L238.689548,109.890796 C235.881435,109.890796 235.881435,109.890796 235.881435,113.073323 L242.808112,113.073323 C249.173167,113.073323 251.045242,109.890796 251.045242,106.895476 C251.045242,98.8455538 238.689548,102.028081 238.689548,97.7223089 L238.689548,97.7223089 Z M256.099844,91.7316693 L256.099844,110.078003 C256.099844,112.886115 256.099844,112.886115 259.656786,112.886115 L259.656786,94.5397816 C259.656786,91.7316693 259.656786,91.7316693 256.099844,91.7316693 Z M274.633385,91.3572543 C266.770671,91.3572543 264.898596,96.4118565 264.898596,102.215289 C264.898596,107.457098 266.396256,112.137285 272.76131,112.886115 C272.76131,117.00468 274.25897,118.689548 279.313573,118.689548 L281.560062,118.689548 C281.560062,115.881435 281.560062,115.881435 279.313573,115.881435 C276.50546,115.881435 276.318253,115.319813 276.318253,113.073323 C282.870515,112.324493 284.368175,107.644306 284.368175,102.402496 C284.368175,96.4118565 282.683307,91.3572543 274.633385,91.3572543 L274.633385,91.3572543 Z M274.633385,110.078003 C269.578783,110.078003 268.455538,106.521061 268.455538,102.215289 C268.455538,94.3525741 268.455538,94.3525741 274.633385,94.3525741 C279.875195,94.3525741 280.811232,97.9095164 280.811232,102.215289 C280.811232,110.078003 280.811232,110.078003 274.633385,110.078003 Z M303.276131,91.5444618 L303.276131,109.516381 L298.034321,109.516381 C293.915757,109.516381 292.792512,107.457098 292.792512,102.964119 L292.792512,94.1653666 C292.792512,91.5444618 292.792512,91.5444618 289.235569,91.5444618 L289.235569,103.338534 C289.235569,110.265211 291.669267,112.886115 298.034321,112.886115 L303.276131,112.886115 C306.833073,112.886115 306.833073,112.886115 306.833073,109.703588 L306.833073,94.5397816 C306.833073,91.5444618 306.833073,91.5444618 303.276131,91.5444618 L303.276131,91.5444618 Z M327.051482,94.7269891 C327.051482,91.7316693 327.051482,91.7316693 324.24337,91.7316693 L316.380655,91.7316693 C312.823713,91.7316693 312.823713,91.7316693 312.823713,94.7269891 L312.823713,109.890796 C312.823713,112.886115 312.823713,112.886115 316.380655,112.886115 L327.051482,112.886115 C327.051482,109.890796 327.051482,109.890796 323.868955,109.890796 L316.193448,109.890796 L316.193448,103.525741 L325.928237,103.525741 C325.928237,100.530421 325.928237,100.530421 323.120125,100.530421 L316.193448,100.530421 L316.193448,94.7269891 L327.051482,94.7269891 Z M357.191888,94.7269891 C357.191888,91.7316693 357.191888,91.7316693 354.383775,91.7316693 L346.333853,91.7316693 C342.776911,91.7316693 342.776911,91.7316693 342.776911,94.7269891 L342.776911,109.890796 C342.776911,112.886115 342.776911,112.886115 346.333853,112.886115 L357.191888,112.886115 C357.191888,109.890796 357.191888,109.890796 354.00936,109.890796 L346.333853,109.890796 L346.333853,103.525741 L356.068643,103.525741 C356.068643,100.530421 356.068643,100.530421 353.26053,100.530421 L346.333853,100.530421 L346.333853,94.7269891 L357.191888,94.7269891 Z M360.561622,94.7269891 L366.365055,94.7269891 L366.365055,109.890796 C366.365055,112.886115 366.365055,112.886115 369.734789,112.886115 L369.734789,94.7269891 L372.730109,94.7269891 C375.538222,94.7269891 375.538222,94.7269891 375.538222,91.7316693 L363.182527,91.7316693 C360.561622,91.7316693 360.561622,91.7316693 360.561622,94.7269891 L360.561622,94.7269891 Z M398.939158,91.5444618 C396.50546,91.5444618 396.50546,91.5444618 395.569423,93.9781591 L388.829953,112.698908 C392.574103,112.698908 392.574103,112.698908 393.322933,110.452418 L393.884555,108.580343 L403.99376,108.580343 L404.74259,110.452418 C405.49142,112.698908 405.49142,112.698908 409.235569,112.698908 L401.372855,91.5444618 L398.939158,91.5444618 L398.939158,91.5444618 Z M394.820593,105.959438 L398.939158,93.9781591 L403.057722,105.959438 L394.820593,105.959438 L394.820593,105.959438 Z M428.892356,98.2839314 C428.892356,95.475819 428.143526,91.7316693 420.280811,91.7316693 L416.536661,91.7316693 C412.979719,91.7316693 412.979719,91.7316693 412.979719,94.7269891 L412.979719,109.890796 C412.979719,112.886115 412.979719,112.886115 416.536661,112.886115 L416.536661,94.7269891 L420.468019,94.7269891 C424.586583,94.7269891 425.335413,96.599064 425.335413,98.2839314 C425.335413,102.028081 425.335413,102.028081 420.655226,102.028081 L418.221529,102.028081 C416.911076,102.028081 416.723869,103.525741 417.472699,104.461778 L422.714509,110.639626 C424.773791,113.26053 424.960998,112.886115 429.641186,112.886115 L421.404056,104.836193 C425.335413,104.648986 428.892356,103.525741 428.892356,98.2839314 L428.892356,98.2839314 Z M432.449298,94.7269891 L438.25273,94.7269891 L438.25273,109.890796 C438.25273,112.886115 438.25273,112.886115 441.622465,112.886115 L441.622465,94.7269891 L444.617785,94.7269891 C447.425897,94.7269891 447.425897,94.7269891 447.425897,91.7316693 L434.695788,91.7316693 C432.449298,91.7316693 432.449298,91.7316693 432.449298,94.7269891 L432.449298,94.7269891 Z M454.352574,97.7223089 C454.352574,94.5397816 454.352574,94.7269891 459.032761,94.7269891 L463.338534,94.7269891 C466.146646,94.7269891 466.146646,94.7269891 466.146646,91.7316693 L459.219969,91.7316693 C453.416537,91.7316693 450.982839,94.1653666 450.982839,98.0967239 C451.170047,105.585023 463.338534,102.028081 463.338534,107.082683 C463.338534,110.078003 463.338534,109.890796 458.471139,109.890796 L454.539782,109.890796 C451.731669,109.890796 451.731669,109.890796 451.731669,113.073323 L458.658346,113.073323 C465.023401,113.073323 466.895476,109.890796 466.895476,106.895476 C466.708268,98.8455538 454.352574,102.028081 454.352574,97.7223089 L454.352574,97.7223089 Z" id="path-1"></path>
        <filter x="-2.5%" y="-10.1%" width="105.0%" height="120.2%" filterUnits="objectBoundingBox" id="filter-2">
            <feOffset dx="0" dy="0" in="SourceAlpha" result="shadowOffsetOuter1"></feOffset>
            <feGaussianBlur stdDeviation="4" in="shadowOffsetOuter1" result="shadowBlurOuter1"></feGaussianBlur>
            <feColorMatrix values="0 0 0 0 0.278431373   0 0 0 0 0.141176471   0 0 0 0 0.301960784  0 0 0 0.12 0" type="matrix" in="shadowBlurOuter1"></feColorMatrix>
        </filter>
    </defs>
    <g id="Page-1" stroke="none" stroke-width="1" fill="none" fill-rule="evenodd">
        <g id="evenko-festivals-hover" transform="translate(-472.000000, -1187.000000)" fill-rule="nonzero">
            <g id="Osheaga" transform="translate(130.000000, 944.000000)">
                <g id="osheaga-logo" transform="translate(350.000000, 251.000000)">
                    <g id="Shape">
                        <use fill="black" fill-opacity="1" filter="url(#filter-2)" xlink:href="#path-1"></use>
                        <use fill="#FFFFFF" fill-rule="evenodd" xlink:href="#path-1"></use>
                    </g>
                </g>
            </g>
        </g>
    </g>
</svg>
