<?xml version="1.0" encoding="iso-8859-1"?>
<!-- Generator: Adobe Illustrator 18.0.0, SVG Export Plug-In . SVG Version: 6.00 Build 0)  -->
<!DOCTYPE svg PUBLIC "-//W3C//DTD SVG 1.1//EN" "http://www.w3.org/Graphics/SVG/1.1/DTD/svg11.dtd">
<svg version="1.1" id="Capa_1" xmlns="http://www.w3.org/2000/svg" xmlns:xlink="http://www.w3.org/1999/xlink" x="0px" y="0px"
	 viewBox="0 0 163.881 163.881" style="enable-background:new 0 0 163.881 163.881;" xml:space="preserve">
<g>
	<g>
		<animate attributeName="fill" values="rebeccapurple;blue;red;rebeccapurple" dur="10s" repeatCount="indefinite" />
		<animateTransform attributeName="transform" attributeType="XML" type="rotate" from="0 0 0" to="360 0 0" dur="30s" repeatCount="indefinite"/>
		<g>
			<g>
				<path d="M81.672,0.192c0.305,2.626-0.118,5.81-0.146,8.503c-0.03,2.798-0.988,6.992,0.228,9.574
					c0.176,0.372,0.801,0.367,0.979,0c1.336-2.774,0.507-7.477,0.502-10.504c-0.005-2.779,0.043-5.207-1.198-7.672
					C81.952-0.073,81.65-0.002,81.672,0.192L81.672,0.192z"/>
			</g>
		</g>
		<g>
			<g>
				<path d="M81.672,145.526c0.305,2.626-0.118,5.81-0.146,8.503c-0.03,2.798-0.988,6.991,0.228,9.574
					c0.176,0.372,0.801,0.367,0.979,0c1.335-2.774,0.507-7.477,0.502-10.505c-0.005-2.779,0.043-5.206-1.198-7.671
					C81.952,145.261,81.65,145.332,81.672,145.526L81.672,145.526z"/>
			</g>
		</g>
		<g>
			<g>
				<path d="M163.689,81.301c-2.626,0.305-5.81-0.118-8.503-0.146c-2.798-0.029-6.992-0.988-9.574,0.228
					c-0.373,0.176-0.368,0.801,0,0.979c2.774,1.336,7.478,0.508,10.505,0.502c2.779-0.006,5.207,0.043,7.671-1.197
					C163.954,81.581,163.883,81.278,163.689,81.301L163.689,81.301z"/>
			</g>
		</g>
		<g>
			<g>
				<path d="M18.355,81.301c-2.626,0.305-5.809-0.118-8.503-0.146c-2.797-0.029-6.991-0.988-9.574,0.228
					c-0.373,0.176-0.368,0.801,0,0.979c2.775,1.336,7.478,0.508,10.504,0.502c2.779-0.006,5.206,0.043,7.671-1.197
					C18.62,81.581,18.549,81.278,18.355,81.301L18.355,81.301z"/>
			</g>
		</g>
		<g>
			<g>
				<path d="M140.081,139.077c-0.721-0.553-1.374-1.633-2.03-2.319c-1.282-1.342-2.685-2.583-3.982-3.913
					c-1.233-1.265-2.447-2.549-3.664-3.83c-0.877-0.924-1.833-2.3-3.118-2.63c-0.423-0.109-0.802,0.275-0.697,0.696
					c0.321,1.279,1.668,2.279,2.557,3.191c1.389,1.426,2.778,2.851,4.186,4.258c2.037,2.037,3.845,4.044,6.598,4.904
					C140.16,139.506,140.244,139.202,140.081,139.077L140.081,139.077z"/>
			</g>
		</g>
		<g>
			<g>
				<path d="M37.315,36.31c-0.721-0.552-1.375-1.633-2.031-2.319c-1.282-1.342-2.684-2.582-3.982-3.913
					c-1.234-1.265-2.447-2.549-3.663-3.829c-0.878-0.924-1.834-2.3-3.118-2.63c-0.423-0.109-0.802,0.275-0.697,0.696
					c0.321,1.279,1.668,2.279,2.557,3.191c1.389,1.426,2.778,2.851,4.185,4.258c2.037,2.037,3.845,4.044,6.598,4.904
					C37.394,36.739,37.478,36.435,37.315,36.31L37.315,36.31z"/>
			</g>
		</g>
		<g>
			<g>
				<path d="M24.804,139.71c0.553-0.721,1.633-1.374,2.32-2.03c1.342-1.282,2.583-2.685,3.913-3.982
					c1.265-1.233,2.549-2.447,3.83-3.664c0.924-0.877,2.3-1.833,2.63-3.117c0.109-0.423-0.275-0.802-0.697-0.696
					c-1.279,0.32-2.279,1.668-3.191,2.557c-1.425,1.389-2.851,2.778-4.258,4.186c-2.037,2.037-4.044,3.845-4.904,6.598
					C24.376,139.788,24.679,139.873,24.804,139.71L24.804,139.71z"/>
			</g>
		</g>
		<g>
			<g>
				<path d="M127.571,36.943c0.553-0.722,1.633-1.374,2.32-2.03c1.341-1.282,2.583-2.685,3.913-3.982
					c1.265-1.233,2.549-2.447,3.83-3.663c0.924-0.878,2.3-1.834,2.63-3.118c0.109-0.423-0.275-0.803-0.697-0.696
					c-1.279,0.321-2.279,1.668-3.191,2.557c-1.425,1.389-2.851,2.778-4.258,4.186c-2.037,2.036-4.045,3.845-4.904,6.598
					C127.143,37.021,127.446,37.106,127.571,36.943L127.571,36.943z"/>
			</g>
		</g>
		<g>
			<g>
				<path d="M113.641,6.554c-0.713,2.446-2.354,5.241-3.393,7.611c-1.067,2.437-3.823,6.232-3.607,8.957
					c0.041,0.517,0.575,0.718,0.967,0.4c1.087-0.88,1.518-2.552,2.07-3.804c0.804-1.822,1.604-3.645,2.381-5.48
					c1.09-2.575,2.156-4.864,1.966-7.633C114.01,6.39,113.705,6.335,113.641,6.554L113.641,6.554z"/>
			</g>
		</g>
		<g>
			<g>
				<path d="M56.726,140.279c-0.713,2.446-2.354,5.241-3.393,7.611c-1.068,2.437-3.823,6.232-3.608,8.958
					c0.041,0.517,0.575,0.718,0.967,0.4c1.087-0.881,1.518-2.553,2.07-3.805c0.804-1.822,1.604-3.646,2.381-5.48
					c1.09-2.575,2.156-4.864,1.966-7.633C57.095,140.115,56.79,140.06,56.726,140.279L56.726,140.279z"/>
			</g>
		</g>
		<g>
			<g>
				<path d="M157.327,113.269c-2.446-0.713-5.241-2.354-7.611-3.393c-2.437-1.067-6.233-3.823-8.958-3.608
					c-0.517,0.041-0.718,0.575-0.4,0.967c0.88,1.088,2.553,1.517,3.805,2.07c1.822,0.805,3.646,1.604,5.48,2.381
					c2.575,1.091,4.865,2.156,7.633,1.967C157.492,113.639,157.546,113.333,157.327,113.269L157.327,113.269z"/>
			</g>
		</g>
		<g>
			<g>
				<path d="M23.601,56.354c-2.446-0.713-5.241-2.354-7.61-3.393c-2.436-1.067-6.233-3.823-8.958-3.607
					c-0.517,0.041-0.718,0.575-0.4,0.967c0.88,1.088,2.552,1.518,3.804,2.07c1.822,0.804,3.646,1.604,5.48,2.38
					c2.575,1.091,4.864,2.156,7.633,1.967C23.766,56.724,23.82,56.418,23.601,56.354L23.601,56.354z"/>
			</g>
		</g>
		<g>
			<g>
				<path d="M113.015,157.213c-1.233-2.249-2.035-5.359-2.984-7.789c-0.967-2.477-1.703-7.102-3.781-8.875
					c-0.395-0.337-0.914-0.1-0.967,0.4c-0.146,1.395,0.734,2.886,1.229,4.164c0.72,1.857,1.444,3.713,2.191,5.559
					c1.042,2.572,1.921,4.962,4.004,6.777C112.874,157.594,113.125,157.413,113.015,157.213L113.015,157.213z"/>
			</g>
		</g>
		<g>
			<g>
				<path d="M58.702,22.41c-1.233-2.249-2.035-5.359-2.984-7.789c-0.967-2.476-1.703-7.102-3.781-8.874
					c-0.395-0.337-0.914-0.101-0.967,0.4c-0.146,1.394,0.734,2.886,1.23,4.164c0.72,1.856,1.444,3.712,2.191,5.558
					c1.042,2.572,1.921,4.962,4.004,6.777C58.561,22.791,58.813,22.61,58.702,22.41L58.702,22.41z"/>
			</g>
		</g>
		<g>
			<g>
				<path d="M6.669,112.644c2.249-1.233,5.359-2.034,7.79-2.984c2.476-0.967,7.102-1.702,8.875-3.78
					c0.337-0.395,0.1-0.914-0.4-0.967c-1.395-0.146-2.886,0.733-4.164,1.229c-1.857,0.72-3.712,1.443-5.559,2.191
					c-2.572,1.042-4.961,1.921-6.778,4.004C6.288,112.503,6.468,112.754,6.669,112.644L6.669,112.644z"/>
			</g>
		</g>
		<g>
			<g>
				<path d="M141.472,58.332c2.248-1.234,5.359-2.036,7.789-2.984c2.477-0.968,7.102-1.703,8.875-3.781
					c0.337-0.395,0.1-0.914-0.4-0.967c-1.395-0.146-2.886,0.734-4.165,1.229c-1.857,0.72-3.712,1.444-5.558,2.191
					c-2.572,1.042-4.962,1.921-6.778,4.005C141.091,58.19,141.272,58.441,141.472,58.332L141.472,58.332z"/>
			</g>
		</g>
	</g>
	<g>
		<animate attributeName="fill" values="rebeccapurple;blue;red;rebeccapurple" dur="10s" repeatCount="indefinite" />
		<animateTransform attributeName="transform" attributeType="XML" type="rotate" from="0 0 0" to="-360 0 0" dur="30s" repeatCount="indefinite"/>
		<g>
			<g>
				<path d="M81.759,27.595c0.012,0.518-0.27,1.155-0.318,1.718c-0.11,1.29,0.017,2.632-0.001,3.928
					c-0.024,1.746-0.834,5.146,0.363,6.568c0.189,0.224,0.612,0.221,0.801,0c1.198-1.396,0.547-4.833,0.546-6.568
					c-0.001-2.154,0.092-3.951-1.027-5.744C82.023,27.336,81.754,27.394,81.759,27.595L81.759,27.595z"/>
			</g>
		</g>
		<g>
			<g>
				<path d="M81.759,124.101c0.012,0.518-0.27,1.155-0.318,1.719c-0.11,1.289,0.018,2.631,0,3.928
					c-0.024,1.745-0.834,5.145,0.363,6.567c0.189,0.224,0.612,0.221,0.801,0c1.198-1.396,0.547-4.833,0.546-6.567
					c-0.001-2.154,0.092-3.952-1.027-5.745C82.023,123.843,81.754,123.901,81.759,124.101L81.759,124.101z"/>
			</g>
		</g>
		<g>
			<g>
				<path d="M136.287,81.388c-0.518,0.012-1.155-0.271-1.718-0.318c-1.29-0.109-2.632,0.017-3.928,0
					c-1.746-0.025-5.146-0.835-6.568,0.362c-0.224,0.188-0.221,0.612,0,0.801c1.397,1.198,4.833,0.547,6.568,0.546
					c2.154-0.001,3.952,0.092,5.745-1.026C136.546,81.651,136.487,81.383,136.287,81.388L136.287,81.388z"/>
			</g>
		</g>
		<g>
			<g>
				<path d="M39.779,81.388c-0.518,0.012-1.155-0.271-1.718-0.318c-1.29-0.109-2.632,0.017-3.928,0
					c-1.746-0.025-5.146-0.835-6.568,0.362c-0.224,0.188-0.221,0.612,0,0.801c1.397,1.197,4.833,0.547,6.568,0.546
					c2.154-0.001,3.951,0.092,5.745-1.026C40.038,81.651,39.98,81.383,39.779,81.388L39.779,81.388z"/>
			</g>
		</g>
		<g>
			<g>
				<path d="M120.683,119.794c-0.42-0.389-0.804-1.229-1.226-1.71c-0.805-0.917-1.784-1.728-2.636-2.606
					c-0.911-0.94-1.806-1.896-2.705-2.848c-0.538-0.569-1.234-1.518-2.102-1.443c-0.33,0.028-0.537,0.238-0.566,0.566
					c-0.079,0.858,0.859,1.584,1.405,2.14c0.917,0.934,1.832,1.87,2.757,2.795c0.874,0.875,1.763,1.735,2.686,2.558
					c0.745,0.665,1.324,0.687,2.197,0.875C120.674,120.159,120.835,119.933,120.683,119.794L120.683,119.794z"/>
			</g>
		</g>
		<g>
			<g>
				<path d="M52.443,51.553c-0.421-0.389-0.805-1.229-1.226-1.71c-0.806-0.917-1.784-1.727-2.636-2.607
					c-0.911-0.939-1.806-1.896-2.705-2.847c-0.538-0.569-1.234-1.518-2.102-1.443c-0.33,0.028-0.536,0.238-0.566,0.566
					c-0.079,0.858,0.859,1.584,1.405,2.14c0.917,0.934,1.832,1.869,2.757,2.795c0.875,0.874,1.763,1.734,2.686,2.558
					c0.745,0.664,1.324,0.686,2.197,0.874C52.434,51.918,52.594,51.692,52.443,51.553L52.443,51.553z"/>
			</g>
		</g>
		<g>
			<g>
				<path d="M44.089,120.311c0.388-0.42,1.229-0.804,1.709-1.225c0.917-0.806,1.728-1.784,2.607-2.636
					c0.94-0.911,1.896-1.807,2.847-2.705c0.569-0.537,1.517-1.234,1.443-2.102c-0.028-0.33-0.238-0.536-0.566-0.566
					c-0.858-0.078-1.583,0.858-2.14,1.405c-0.934,0.917-1.869,1.831-2.795,2.757c-0.874,0.874-1.734,1.763-2.557,2.686
					c-0.665,0.745-0.687,1.324-0.875,2.197C43.723,120.303,43.948,120.464,44.089,120.311L44.089,120.311z"/>
			</g>
		</g>
		<g>
			<g>
				<path d="M112.33,52.07c0.388-0.42,1.229-0.804,1.709-1.226c0.917-0.806,1.728-1.783,2.607-2.636
					c0.94-0.911,1.896-1.806,2.847-2.704c0.569-0.538,1.518-1.235,1.443-2.103c-0.028-0.33-0.238-0.536-0.566-0.566
					c-0.858-0.078-1.584,0.859-2.14,1.405c-0.934,0.917-1.87,1.832-2.795,2.757c-0.874,0.874-1.734,1.763-2.557,2.685
					c-0.665,0.745-0.687,1.324-0.875,2.197C111.964,52.061,112.19,52.223,112.33,52.07L112.33,52.07z"/>
			</g>
		</g>
		<g>
			<g>
				<path d="M102.99,31.801c-0.115,0.293-0.583,0.714-0.828,1.186c-0.622,1.199-1.063,2.503-1.609,3.74
					c-0.528,1.195-1.08,2.381-1.626,3.568c-0.371,0.807-1.036,1.788-0.692,2.675c0.101,0.26,0.391,0.521,0.697,0.396
					c1.469-0.603,2.059-3.362,2.645-4.718c0.839-1.94,1.818-3.887,2.072-6c0.027-0.222-0.141-0.423-0.308-0.537
					c0.138,0.095,0.006-0.439,0.026-0.31C103.333,31.588,103.052,31.642,102.99,31.801L102.99,31.801z"/>
			</g>
		</g>
		<g>
			<g>
				<path d="M65.196,120.599c-0.115,0.293-0.583,0.714-0.828,1.188c-0.622,1.199-1.062,2.502-1.609,3.739
					c-0.528,1.196-1.08,2.382-1.626,3.569c-0.371,0.807-1.036,1.788-0.692,2.675c0.101,0.26,0.391,0.521,0.697,0.395
					c1.469-0.604,2.059-3.362,2.645-4.718c0.839-1.94,1.818-3.888,2.072-6.001c0.027-0.222-0.141-0.422-0.308-0.537
					c0.138,0.095,0.005-0.44,0.026-0.311C65.539,120.387,65.258,120.441,65.196,120.599L65.196,120.599z"/>
			</g>
		</g>
		<g>
			<g>
				<path d="M132.08,102.618c-0.293-0.114-0.714-0.583-1.187-0.828c-1.199-0.622-2.502-1.063-3.74-1.609
					c-1.196-0.528-2.381-1.079-3.569-1.626c-0.807-0.371-1.788-1.036-2.675-0.691c-0.26,0.101-0.522,0.391-0.396,0.696
					c0.604,1.47,3.363,2.059,4.719,2.646c1.94,0.839,3.887,1.818,6.001,2.072c0.222,0.026,0.422-0.142,0.537-0.309
					c-0.095,0.138,0.439,0.006,0.31,0.026C132.293,102.961,132.238,102.68,132.08,102.618L132.08,102.618z"/>
			</g>
		</g>
		<g>
			<g>
				<path d="M43.281,64.824c-0.293-0.114-0.714-0.582-1.187-0.828c-1.199-0.621-2.503-1.062-3.739-1.608
					c-1.196-0.528-2.381-1.08-3.569-1.626c-0.807-0.371-1.789-1.036-2.675-0.691c-0.26,0.101-0.521,0.39-0.396,0.696
					c0.603,1.469,3.363,2.059,4.718,2.645c1.94,0.839,3.887,1.818,6,2.072c0.221,0.026,0.422-0.141,0.537-0.309
					c-0.095,0.139,0.439,0.006,0.31,0.026C43.493,65.167,43.439,64.886,43.281,64.824L43.281,64.824z"/>
			</g>
		</g>
		<g>

			<g>
				<path d="M102.694,131.829c-0.126-0.289-0.093-0.923-0.255-1.433c-0.408-1.287-1.018-2.521-1.506-3.783
					c-0.472-1.219-0.92-2.447-1.374-3.674c-0.301-0.815-0.54-1.989-1.394-2.366c-0.364-0.16-0.681-0.023-0.832,0.339
					c-0.593,1.424,1.202,4.285,1.736,5.623c0.716,1.791,1.362,3.636,2.561,5.162c0.141,0.18,0.403,0.197,0.605,0.16
					c-0.18,0.033,0.292,0.312,0.191,0.239C102.605,132.225,102.763,131.986,102.694,131.829L102.694,131.829z"/>
			</g>
		</g>
		<g>
			<g>
				<path d="M66.629,42.314c-0.126-0.289-0.093-0.923-0.255-1.433c-0.408-1.287-1.018-2.521-1.506-3.783
					c-0.472-1.219-0.92-2.447-1.374-3.674c-0.301-0.814-0.54-1.988-1.394-2.365c-0.364-0.16-0.681-0.023-0.832,0.339
					c-0.594,1.424,1.202,4.285,1.736,5.622c0.716,1.791,1.362,3.636,2.561,5.162c0.141,0.18,0.403,0.197,0.605,0.16
					c-0.18,0.033,0.292,0.311,0.191,0.239C66.539,42.711,66.697,42.472,66.629,42.314L66.629,42.314z"/>
			</g>
		</g>
		<g>
			<g>
				<path d="M32.052,102.323c0.289-0.127,0.923-0.094,1.432-0.255c1.288-0.407,2.522-1.018,3.784-1.506
					c1.219-0.473,2.448-0.921,3.674-1.374c0.815-0.302,1.989-0.541,2.367-1.394c0.161-0.364,0.024-0.682-0.339-0.832
					c-1.424-0.594-4.286,1.202-5.623,1.736c-1.791,0.716-3.636,1.362-5.163,2.561c-0.179,0.141-0.197,0.402-0.16,0.605
					c-0.033-0.181-0.312,0.29-0.239,0.19C31.656,102.233,31.896,102.391,32.052,102.323L32.052,102.323z"/>
			</g>
		</g>
		<g>
			<g>
				<path d="M121.568,66.258c0.289-0.127,0.923-0.094,1.432-0.255c1.287-0.408,2.521-1.018,3.783-1.507
					c1.219-0.472,2.448-0.921,3.674-1.374c0.815-0.302,1.989-0.54,2.366-1.394c0.161-0.364,0.024-0.682-0.339-0.832
					c-1.425-0.594-4.285,1.202-5.623,1.736c-1.792,0.716-3.636,1.362-5.163,2.561c-0.179,0.142-0.197,0.403-0.16,0.605
					c-0.033-0.18-0.312,0.292-0.238,0.191C121.172,66.168,121.41,66.326,121.568,66.258L121.568,66.258z"/>
			</g>
		</g>
	</g>
	<g>
		<animate attributeName="fill" values="rebeccapurple;blue;red;rebeccapurple" dur="10s" repeatCount="indefinite" />
		<animateTransform attributeName="transform" attributeType="XML" type="rotate" from="0 0 0" to="-720 0 0" dur="30s" repeatCount="indefinite"/>
		<g>
			<g>
				<path d="M81.834,49.043c-0.034,0.213-0.342,0.581-0.401,0.882c-0.118,0.594-0.043,1.233-0.047,1.836
					c-0.01,1.397-0.155,2.806-0.055,4.201c0.078,1.094,1.587,1.078,1.687,0c0.129-1.391,0.079-2.806,0.055-4.201
					c-0.01-0.615-0.009-1.234-0.144-1.836c-0.139-0.624-0.427-0.598-0.768-0.968C82.068,48.855,81.858,48.897,81.834,49.043
					L81.834,49.043z"/>
			</g>
		</g>
		<g>
			<g>
				<path d="M81.834,107.24c-0.034,0.213-0.342,0.581-0.401,0.882c-0.118,0.594-0.043,1.233-0.047,1.836
					c-0.01,1.397-0.155,2.805-0.055,4.2c0.078,1.094,1.587,1.078,1.687,0c0.129-1.391,0.079-2.805,0.055-4.2
					c-0.01-0.615-0.009-1.234-0.144-1.836c-0.139-0.624-0.427-0.598-0.768-0.968C82.068,107.053,81.858,107.095,81.834,107.24
					L81.834,107.24z"/>
			</g>
		</g>
		<g>
			<g>
				<path d="M114.839,81.463c-0.213-0.034-0.582-0.342-0.882-0.401c-0.594-0.118-1.233-0.043-1.837-0.047
					c-1.397-0.01-2.806-0.155-4.201-0.055c-1.094,0.078-1.079,1.586,0,1.687c1.391,0.129,2.805,0.079,4.201,0.055
					c0.615-0.011,1.234-0.009,1.837-0.144c0.624-0.14,0.598-0.428,0.968-0.769C115.026,81.697,114.984,81.486,114.839,81.463
					L114.839,81.463z"/>
			</g>
		</g>
		<g>
			<g>
				<path d="M56.641,81.463c-0.213-0.034-0.582-0.342-0.882-0.401c-0.594-0.118-1.234-0.043-1.836-0.047
					c-1.397-0.01-2.806-0.155-4.2-0.055c-1.094,0.078-1.079,1.586,0,1.687c1.39,0.129,2.805,0.079,4.2,0.055
					c0.615-0.011,1.234-0.009,1.836-0.144c0.624-0.139,0.598-0.428,0.968-0.769C56.828,81.697,56.787,81.486,56.641,81.463
					L56.641,81.463z"/>
			</g>
		</g>
		<g>
			<g>
				<path d="M105.463,104.679c-0.055-0.074,0.041-0.364-0.056-0.499c-0.139-0.191-0.268-0.391-0.409-0.581
					c-0.37-0.499-0.903-0.916-1.337-1.362c-0.92-0.945-1.816-2.299-2.979-2.952c-0.71-0.399-1.474,0.39-1.093,1.093
					c0.63,1.166,1.933,2.144,2.873,3.059c0.426,0.415,0.892,0.991,1.412,1.287c0.219,0.124,0.445,0.226,0.678,0.321
					c0.342,0.143,0.458-0.079,0.742-0.071C105.431,104.976,105.553,104.799,105.463,104.679L105.463,104.679z"/>
			</g>
		</g>
		<g>
			<g>
				<path d="M64.311,63.526c-0.056-0.074,0.041-0.364-0.056-0.498c-0.14-0.192-0.268-0.392-0.41-0.582
					c-0.37-0.499-0.903-0.916-1.337-1.361c-0.92-0.946-1.815-2.299-2.978-2.952c-0.71-0.399-1.474,0.39-1.093,1.093
					c0.63,1.166,1.933,2.143,2.873,3.058c0.426,0.415,0.891,0.991,1.413,1.287c0.219,0.124,0.445,0.226,0.678,0.322
					c0.342,0.142,0.458-0.08,0.742-0.072C64.279,63.824,64.402,63.646,64.311,63.526L64.311,63.526z"/>
			</g>
		</g>
		<g>
			<g>
				<path d="M59.203,105.092c0.074-0.056,0.364,0.041,0.499-0.057c0.192-0.14,0.391-0.269,0.581-0.409
					c0.5-0.37,0.916-0.903,1.362-1.337c0.946-0.92,2.299-1.815,2.952-2.979c0.399-0.71-0.39-1.473-1.093-1.093
					c-1.166,0.63-2.143,1.933-3.058,2.872c-0.415,0.426-0.991,0.892-1.286,1.413c-0.124,0.219-0.226,0.445-0.322,0.678
					c-0.142,0.342,0.079,0.458,0.072,0.742C58.906,105.059,59.083,105.182,59.203,105.092L59.203,105.092z"/>
			</g>
		</g>
		<g>
			<g>
				<path d="M100.355,63.94c0.075-0.057,0.364,0.041,0.499-0.057c0.192-0.14,0.391-0.268,0.581-0.41
					c0.499-0.369,0.916-0.902,1.362-1.337c0.946-0.92,2.299-1.815,2.952-2.978c0.399-0.711-0.39-1.475-1.093-1.094
					c-1.166,0.631-2.143,1.933-3.058,2.873c-0.415,0.426-0.991,0.891-1.286,1.412c-0.124,0.219-0.226,0.445-0.322,0.679
					c-0.142,0.342,0.079,0.457,0.072,0.742C100.058,63.908,100.235,64.03,100.355,63.94L100.355,63.94z"/>
			</g>
		</g>
		<g>
			<g>
				<path d="M94.77,51.474c-1.01,0.337-1.298,1.773-1.684,2.645c-0.548,1.237-1.195,2.437-1.634,3.718
					c-0.312,0.909,1.089,1.481,1.538,0.648c0.744-1.381,1.316-2.872,1.896-4.329C94.967,53.952,95.892,51.099,94.77,51.474
					L94.77,51.474z"/>
			</g>
		</g>
		<g>
			<g>
				<path d="M71.979,105.022c-1.01,0.337-1.299,1.773-1.685,2.645c-0.548,1.237-1.195,2.437-1.634,3.718
					c-0.312,0.909,1.089,1.481,1.538,0.648c0.744-1.381,1.315-2.872,1.896-4.329C72.175,107.502,73.101,104.648,71.979,105.022
					L71.979,105.022z"/>
			</g>
		</g>
		<g>
			<g>
				<path d="M112.407,94.398c-0.336-1.011-1.773-1.299-2.645-1.685c-1.237-0.548-2.437-1.195-3.718-1.635
					c-0.909-0.312-1.481,1.09-0.648,1.539c1.381,0.744,2.873,1.315,4.33,1.896C109.929,94.596,112.78,95.52,112.407,94.398
					L112.407,94.398z"/>
			</g>
		</g>
		<g>
			<g>
				<path d="M58.859,71.607c-0.337-1.011-1.773-1.298-2.645-1.684c-1.237-0.547-2.437-1.194-3.718-1.634
					c-0.909-0.312-1.481,1.09-0.648,1.538c1.381,0.744,2.873,1.316,4.329,1.896C56.379,71.805,59.233,72.729,58.859,71.607
					L58.859,71.607z"/>
			</g>
		</g>
		<g>
			<g>
				<path d="M94.596,112.109c0.478-0.957-0.335-2.178-0.68-3.073c-0.487-1.263-0.88-2.566-1.476-3.783
					c-0.424-0.866-1.809-0.255-1.538,0.649c0.45,1.504,1.103,2.96,1.723,4.401C92.709,110.498,94.07,113.164,94.596,112.109
					L94.596,112.109z"/>
			</g>
		</g>
		<g>
			<g>
				<path d="M72.847,58.129c0.478-0.957-0.335-2.178-0.68-3.073c-0.487-1.263-0.88-2.566-1.476-3.783
					c-0.424-0.866-1.809-0.255-1.538,0.648c0.45,1.504,1.103,2.96,1.723,4.401C70.96,56.517,72.321,59.183,72.847,58.129
					L72.847,58.129z"/>
			</g>
		</g>
		<g>
			<g>
				<path d="M51.772,94.225c0.957,0.478,2.178-0.335,3.074-0.681c1.263-0.487,2.566-0.881,3.784-1.476
					c0.866-0.423,0.254-1.809-0.648-1.538c-1.504,0.45-2.96,1.104-4.402,1.724C53.383,92.338,50.717,93.698,51.772,94.225
					L51.772,94.225z"/>
			</g>
		</g>
		<g>
			<g>
				<path d="M105.753,72.476c0.957,0.477,2.177-0.335,3.073-0.681c1.263-0.487,2.566-0.88,3.784-1.477
					c0.866-0.424,0.254-1.809-0.648-1.538c-1.504,0.451-2.96,1.104-4.402,1.724C107.364,70.589,104.697,71.95,105.753,72.476
					L105.753,72.476z"/>
			</g>
		</g>
	</g>
	<g>
		<animate attributeName="fill" values="rebeccapurple;blue;red;rebeccapurple" dur="10s" repeatCount="indefinite" />
		<animateTransform attributeName="transform" attributeType="XML" type="rotate" from="0 0 0" to="270 0 0" dur="30s" repeatCount="indefinite"/>
		<g>
			<g>
				<path d="M81.58,66.027c-0.296,0.544-0.237,1.097-0.26,1.699c-0.023,0.639-0.087,1.252,0.016,1.885
					c0.132,0.817,1.479,0.8,1.626,0c0.115-0.627,0.082-1.249,0.067-1.885c-0.016-0.677,0.015-1.291-0.45-1.828
					C82.314,65.592,81.767,65.683,81.58,66.027L81.58,66.027z"/>
			</g>
		</g>
		<g>
			<g>
				<path d="M81.58,93.932c-0.296,0.544-0.237,1.097-0.26,1.699c-0.023,0.639-0.086,1.251,0.016,1.884
					c0.132,0.817,1.479,0.8,1.626,0c0.115-0.626,0.082-1.249,0.067-1.884c-0.016-0.677,0.015-1.291-0.45-1.828
					C82.314,93.497,81.767,93.589,81.58,93.932L81.58,93.932z"/>
			</g>
		</g>
		<g>
			<g>
				<path d="M97.854,81.208c-0.544-0.296-1.097-0.237-1.699-0.259c-0.639-0.023-1.251-0.087-1.885,0.016
					c-0.817,0.132-0.8,1.479,0,1.626c0.627,0.115,1.25,0.083,1.885,0.067c0.677-0.016,1.291,0.016,1.828-0.45
					C98.29,81.942,98.197,81.395,97.854,81.208L97.854,81.208z"/>
			</g>
		</g>
		<g>
			<g>
				<path d="M69.948,81.208c-0.544-0.296-1.097-0.237-1.7-0.259c-0.638-0.023-1.25-0.087-1.884,0.016
					c-0.817,0.132-0.8,1.479,0,1.626c0.627,0.115,1.25,0.083,1.884,0.067c0.678-0.016,1.292,0.016,1.829-0.45
					C70.384,81.942,70.292,81.395,69.948,81.208L69.948,81.208z"/>
			</g>
		</g>
		<g>
			<g>
				<path d="M93.635,92.493c-0.186-0.608-0.624-0.962-1.046-1.418c-0.414-0.447-0.907-1.239-1.546-1.354
					c-0.634-0.115-1.086,0.356-0.983,0.982c0.104,0.627,0.884,1.169,1.318,1.583c0.5,0.478,0.924,0.958,1.65,1.003
					C93.433,93.314,93.749,92.868,93.635,92.493L93.635,92.493z"/>
			</g>
		</g>
		<g>
			<g>
				<path d="M73.901,72.753c-0.187-0.62-0.664-0.996-1.092-1.462c-0.431-0.467-0.855-1.123-1.494-1.308
					c-0.595-0.172-1.152,0.405-0.993,0.992c0.17,0.629,0.82,1.097,1.272,1.529c0.51,0.488,0.952,1.003,1.694,1.052
					C73.697,73.583,74.014,73.13,73.901,72.753L73.901,72.753z"/>
			</g>
		</g>
		<g>
			<g>
				<path d="M71.397,93.262c0.62-0.187,0.997-0.663,1.461-1.092c0.467-0.432,1.124-0.855,1.308-1.494
					c0.172-0.596-0.405-1.151-0.992-0.992c-0.629,0.17-1.097,0.819-1.53,1.271c-0.488,0.51-1.003,0.952-1.051,1.694
					C70.566,93.058,71.019,93.375,71.397,93.262L71.397,93.262z"/>
			</g>
		</g>
		<g>
			<g>
				<path d="M91.129,73.529c0.62-0.187,0.997-0.663,1.462-1.092c0.467-0.431,1.124-0.856,1.308-1.494
					c0.171-0.596-0.405-1.151-0.992-0.992c-0.629,0.17-1.097,0.819-1.529,1.271c-0.488,0.511-1.002,0.952-1.052,1.694
					C90.298,73.326,90.751,73.642,91.129,73.529L91.129,73.529z"/>
			</g>
		</g>
		<g>
			<g>
				<path d="M87.73,67.115c-0.429,0.35-0.568,0.82-0.8,1.313c-0.268,0.57-0.603,1.126-0.755,1.741
					c-0.232,0.947,1.015,1.441,1.539,0.649c0.347-0.524,0.546-1.149,0.778-1.732c0.229-0.573,0.483-1.081,0.278-1.697
					C88.612,66.918,88.098,66.815,87.73,67.115L87.73,67.115z"/>
			</g>
		</g>
		<g>
			<g>
				<path d="M76.801,92.792c-0.429,0.35-0.568,0.82-0.8,1.313c-0.268,0.571-0.604,1.127-0.754,1.742
					c-0.231,0.946,1.015,1.44,1.539,0.648c0.346-0.525,0.546-1.149,0.778-1.731c0.229-0.574,0.483-1.081,0.278-1.697
					C77.684,92.594,77.17,92.493,76.801,92.792L76.801,92.792z"/>
			</g>
		</g>
		<g>
			<g>
				<path d="M96.766,87.358c-0.349-0.429-0.82-0.568-1.313-0.8c-0.571-0.269-1.126-0.604-1.741-0.755
					c-0.948-0.232-1.44,1.015-0.648,1.538c0.524,0.347,1.148,0.547,1.731,0.778c0.574,0.229,1.081,0.483,1.697,0.278
					C96.964,88.241,97.065,87.726,96.766,87.358L96.766,87.358z"/>
			</g>
		</g>
		<g>
			<g>
				<path d="M71.089,76.43c-0.349-0.429-0.82-0.568-1.313-0.8c-0.571-0.268-1.126-0.604-1.741-0.754
					c-0.947-0.232-1.441,1.015-0.648,1.538c0.524,0.347,1.148,0.546,1.731,0.778c0.574,0.227,1.081,0.483,1.697,0.277
					C71.287,77.312,71.388,76.798,71.089,76.43L71.089,76.43z"/>
			</g>
		</g>
		<g>
			<g>
				<path d="M88.516,96.069c0.056-0.544-0.179-0.987-0.366-1.505c-0.214-0.594-0.371-1.221-0.7-1.763
					c-0.511-0.843-1.727-0.272-1.538,0.648c0.126,0.615,0.428,1.197,0.676,1.772c0.242,0.562,0.417,1.096,0.991,1.384
					C88.028,96.83,88.466,96.548,88.516,96.069L88.516,96.069z"/>
			</g>
		</g>
		<g>
			<g>
				<path d="M78.087,70.185c0.056-0.544-0.179-0.987-0.366-1.505c-0.214-0.594-0.371-1.221-0.7-1.764
					c-0.511-0.842-1.727-0.271-1.538,0.649c0.126,0.616,0.428,1.197,0.676,1.773c0.242,0.562,0.417,1.096,0.991,1.384
					C77.599,70.946,78.038,70.664,78.087,70.185L78.087,70.185z"/>
			</g>
		</g>
		<g>
			<g>
				<path d="M67.812,88.143c0.544,0.057,0.987-0.178,1.504-0.364c0.594-0.215,1.221-0.372,1.764-0.7
					c0.843-0.511,0.271-1.726-0.648-1.538c-0.616,0.125-1.198,0.428-1.773,0.676c-0.562,0.242-1.096,0.417-1.383,0.991
					C67.05,87.656,67.333,88.095,67.812,88.143L67.812,88.143z"/>
			</g>
		</g>
		<g>
			<g>
				<path d="M93.696,77.715c0.544,0.056,0.987-0.178,1.504-0.364c0.594-0.215,1.221-0.371,1.764-0.7
					c0.842-0.511,0.272-1.727-0.648-1.538c-0.616,0.126-1.198,0.428-1.773,0.676c-0.562,0.242-1.096,0.416-1.383,0.991
					C92.934,77.227,93.217,77.666,93.696,77.715L93.696,77.715z"/>
			</g>
		</g>
	</g>
	<g>
		<animate attributeName="fill" values="rebeccapurple;blue;red;rebeccapurple" dur="10s" repeatCount="indefinite" />
		<animateTransform attributeName="transform" attributeType="XML" type="rotate" from="0 0 0" to="180 0 0" dur="30s" repeatCount="indefinite"/>
		<g>
			<g>
				<path d="M98.347,1.861c-0.243,2.743-1.352,5.892-1.958,8.621c-0.57,2.564-2.344,6.421-1.662,9.021
					c0.1,0.38,0.675,0.592,0.947,0.25c1.823-2.287,1.964-6.883,2.552-9.694c0.598-2.857,1.263-5.436,0.504-8.25
					C98.67,1.585,98.365,1.65,98.347,1.861L98.347,1.861z"/>
			</g>
		</g>
		<g>
			<g>
				<path d="M68.644,144.128c-0.243,2.742-1.352,5.891-1.958,8.62c-0.57,2.563-2.344,6.421-1.662,9.021
					c0.1,0.38,0.675,0.592,0.947,0.25c1.823-2.287,1.964-6.883,2.552-9.694c0.598-2.856,1.263-5.435,0.505-8.249
					C68.967,143.852,68.663,143.917,68.644,144.128L68.644,144.128z"/>
			</g>
		</g>
		<g>
			<g>
				<path d="M162.02,97.975c-2.743-0.243-5.892-1.352-8.621-1.958c-2.564-0.57-6.422-2.344-9.022-1.661
					c-0.379,0.1-0.592,0.674-0.25,0.946c2.288,1.823,6.883,1.964,9.695,2.552c2.857,0.598,5.436,1.263,8.25,0.505
					C162.296,98.299,162.231,97.994,162.02,97.975L162.02,97.975z"/>
			</g>
		</g>
		<g>
			<g>
				<path d="M19.754,68.272c-2.743-0.243-5.891-1.352-8.621-1.958c-2.564-0.57-6.421-2.344-9.022-1.661
					c-0.379,0.1-0.591,0.674-0.25,0.946c2.287,1.823,6.883,1.964,9.694,2.553c2.857,0.598,5.436,1.263,8.25,0.504
					C20.029,68.596,19.965,68.291,19.754,68.272L19.754,68.272z"/>
			</g>
		</g>
		<g>
			<g>
				<path d="M127.15,149.72c-0.576-0.678-1.017-1.88-1.499-2.657c-0.993-1.604-2.134-3.131-3.149-4.725
					c-0.947-1.487-1.87-2.99-2.798-4.49c-0.663-1.073-1.293-2.58-2.464-3.16c-0.364-0.181-0.87,0.033-0.852,0.489
					c0.053,1.321,1.091,2.486,1.78,3.568c1.085,1.705,2.169,3.41,3.276,5.101c1.589,2.429,2.967,4.766,5.47,6.181
					C127.114,150.14,127.29,149.884,127.15,149.72L127.15,149.72z"/>
			</g>
		</g>
		<g>
			<g>
				<path d="M47.556,28.119c-0.576-0.678-1.017-1.88-1.499-2.657c-0.993-1.604-2.134-3.131-3.148-4.725
					c-0.947-1.487-1.871-2.99-2.798-4.49c-0.663-1.072-1.292-2.579-2.464-3.159c-0.364-0.181-0.871,0.033-0.852,0.489
					c0.053,1.321,1.091,2.485,1.78,3.568c1.085,1.704,2.17,3.409,3.275,5.1c1.589,2.429,2.967,4.766,5.47,6.181
					C47.52,28.539,47.696,28.284,47.556,28.119L47.556,28.119z"/>
			</g>
		</g>
		<g>
			<g>
				<path d="M14.163,126.778c0.677-0.575,1.879-1.017,2.657-1.498c1.604-0.994,3.13-2.135,4.724-3.149
					c1.488-0.947,2.991-1.87,4.491-2.798c1.073-0.663,2.58-1.292,3.16-2.464c0.18-0.365-0.033-0.871-0.489-0.853
					c-1.321,0.053-2.486,1.091-3.569,1.78c-1.705,1.084-3.41,2.169-5.101,3.275c-2.429,1.589-4.766,2.967-6.18,5.47
					C13.743,126.743,13.998,126.919,14.163,126.778L14.163,126.778z"/>
			</g>
		</g>
		<g>
			<g>
				<path d="M135.764,47.183c0.677-0.575,1.879-1.017,2.657-1.498c1.604-0.993,3.13-2.135,4.724-3.149
					c1.487-0.946,2.99-1.87,4.49-2.797c1.073-0.664,2.58-1.293,3.16-2.465c0.18-0.365-0.033-0.871-0.489-0.853
					c-1.321,0.053-2.486,1.091-3.569,1.78c-1.705,1.085-3.409,2.169-5.1,3.275c-2.429,1.589-4.766,2.967-6.18,5.47
					C135.343,47.148,135.599,47.324,135.764,47.183L135.764,47.183z"/>
			</g>
		</g>
		<g>
			<g>
				<path d="M128.35,14.572c-0.349,0.663-1.158,1.386-1.625,2.017c-1.09,1.471-2.051,3.047-3.11,4.542
					c-1.169,1.649-2.372,3.273-3.569,4.902c-0.766,1.041-1.849,2.123-1.951,3.452c-0.036,0.47,0.498,0.649,0.852,0.489
					c1.161-0.526,1.917-2.04,2.636-3.044c1.175-1.642,2.35-3.283,3.504-4.939c1.651-2.37,3.25-4.489,3.628-7.32
					C128.74,14.474,128.436,14.409,128.35,14.572L128.35,14.572z"/>
			</g>
		</g>
		<g>
			<g>
				<path d="M45.306,133.844c-0.349,0.663-1.158,1.386-1.626,2.017c-1.089,1.471-2.05,3.047-3.11,4.541
					c-1.169,1.649-2.372,3.273-3.569,4.902c-0.766,1.041-1.849,2.123-1.951,3.453c-0.036,0.47,0.498,0.649,0.852,0.489
					c1.161-0.526,1.917-2.04,2.636-3.044c1.175-1.643,2.35-3.284,3.503-4.941c1.651-2.37,3.25-4.489,3.629-7.319
					C45.696,133.746,45.392,133.681,45.306,133.844L45.306,133.844z"/>
			</g>
		</g>
		<g>
			<g>
				<path d="M149.309,127.978c-0.664-0.349-1.386-1.157-2.017-1.625c-1.471-1.09-3.047-2.051-4.542-3.11
					c-1.649-1.169-3.274-2.372-4.902-3.569c-1.042-0.767-2.124-1.85-3.454-1.952c-0.47-0.036-0.65,0.498-0.489,0.853
					c0.526,1.161,2.04,1.917,3.044,2.636c1.642,1.176,3.284,2.351,4.941,3.504c2.37,1.651,4.49,3.25,7.32,3.629
					C149.406,128.369,149.471,128.064,149.309,127.978L149.309,127.978z"/>
			</g>
		</g>
		<g>
			<g>
				<path d="M30.037,44.934c-0.664-0.349-1.385-1.157-2.017-1.625c-1.471-1.09-3.046-2.051-4.542-3.11
					c-1.649-1.169-3.273-2.372-4.902-3.569c-1.042-0.766-2.124-1.849-3.453-1.951c-0.47-0.036-0.649,0.498-0.489,0.853
					c0.526,1.161,2.04,1.917,3.044,2.636c1.642,1.175,3.284,2.35,4.941,3.504c2.37,1.65,4.489,3.249,7.319,3.628
					C30.135,45.325,30.2,45.02,30.037,44.934L30.037,44.934z"/>
			</g>
		</g>
		<g>
			<g>
				<path d="M96.945,161.943c-0.726-2.398-0.86-5.473-1.291-7.994c-0.466-2.727-0.242-7.426-1.913-9.687
					c-0.285-0.384-0.883-0.368-1.036,0.136c-0.833,2.761,0.81,7.224,1.306,10.003c0.503,2.821,0.862,5.414,2.577,7.692
					C96.713,162.26,97.014,162.171,96.945,161.943L96.945,161.943z"/>
			</g>
		</g>
		<g>
			<g>
				<path d="M71.329,18.886c-0.726-2.399-0.86-5.473-1.291-7.994c-0.466-2.727-0.242-7.426-1.914-9.686
					c-0.285-0.384-0.883-0.368-1.036,0.136c-0.833,2.761,0.81,7.224,1.306,10.003c0.504,2.82,0.862,5.413,2.577,7.691
					C71.096,19.202,71.398,19.113,71.329,18.886L71.329,18.886z"/>
			</g>
		</g>
		<g>
			<g>
				<path d="M1.938,96.573c2.399-0.725,5.473-0.859,7.994-1.29c2.727-0.466,7.426-0.242,9.687-1.913
					c0.385-0.284,0.369-0.884-0.135-1.035c-2.761-0.834-7.225,0.809-10.004,1.306c-2.821,0.503-5.413,0.862-7.692,2.575
					C1.622,96.341,1.711,96.641,1.938,96.573L1.938,96.573z"/>
			</g>
		</g>
		<g>
			<g>
				<path d="M144.996,70.958c2.398-0.727,5.473-0.86,7.995-1.291c2.727-0.466,7.426-0.241,9.687-1.913
					c0.385-0.284,0.369-0.884-0.135-1.035c-2.762-0.833-7.224,0.81-10.004,1.306c-2.821,0.504-5.414,0.862-7.692,2.576
					C144.68,70.725,144.768,71.026,144.996,70.958L144.996,70.958z"/>
			</g>
		</g>
	</g>
	<g>
		<animate attributeName="fill" values="rebeccapurple;blue;red;rebeccapurple" dur="10s" repeatCount="indefinite" />
		<animateTransform attributeName="transform" attributeType="XML" type="rotate" from="0 0 0" to="-360 0 0" dur="30s" repeatCount="indefinite"/>
		<g>
			<g>
				<path d="M92.839,28.651c-0.086,0.477-0.474,0.977-0.626,1.49c-0.347,1.175-0.498,2.429-0.762,3.628
					c-0.369,1.674-2.017,5.255-1.083,6.834c0.146,0.247,0.523,0.384,0.775,0.203c1.516-1.084,1.597-4.869,1.951-6.585
					c0.42-2.038,0.816-3.69,0.122-5.57C93.155,28.488,92.876,28.443,92.839,28.651L92.839,28.651z"/>
			</g>
		</g>
		<g>
			<g>
				<path d="M73.115,123.121c-0.087,0.478-0.475,0.977-0.626,1.49c-0.347,1.176-0.499,2.43-0.763,3.629
					c-0.369,1.674-2.017,5.254-1.083,6.834c0.146,0.247,0.523,0.384,0.775,0.203c1.516-1.084,1.598-4.869,1.951-6.585
					c0.42-2.038,0.815-3.69,0.122-5.571C73.431,122.958,73.153,122.913,73.115,123.121L73.115,123.121z"/>
			</g>
		</g>
		<g>
			<g>
				<path d="M135.231,92.468c-0.477-0.086-0.977-0.475-1.491-0.626c-1.176-0.347-2.43-0.499-3.629-0.763
					c-1.674-0.369-5.255-2.018-6.834-1.083c-0.248,0.146-0.384,0.522-0.204,0.775c1.085,1.516,4.869,1.597,6.585,1.95
					c2.039,0.42,3.691,0.815,5.572,0.123C135.394,92.784,135.439,92.506,135.231,92.468L135.231,92.468z"/>
			</g>
		</g>
		<g>
			<g>
				<path d="M40.76,72.743c-0.477-0.086-0.977-0.474-1.491-0.626c-1.176-0.347-2.43-0.498-3.628-0.762
					c-1.674-0.369-5.254-2.018-6.834-1.084c-0.247,0.146-0.384,0.522-0.204,0.775c1.084,1.516,4.869,1.598,6.585,1.951
					c2.039,0.42,3.691,0.815,5.572,0.122C40.924,73.059,40.968,72.781,40.76,72.743L40.76,72.743z"/>
			</g>
		</g>
		<g>
			<g>
				<path d="M112.1,126.879c-0.147-0.208-0.15-0.69-0.309-0.951c-0.262-0.429-0.473-0.872-0.765-1.283
					c-0.746-1.052-1.429-2.148-2.113-3.24c-0.799-1.273-2.003-4.532-3.66-4.742c-0.251-0.032-0.478,0.197-0.546,0.416
					c-0.261,0.838,0.409,1.604,0.845,2.282c0.717,1.115,1.429,2.233,2.155,3.344c0.688,1.053,1.395,2.095,2.142,3.107
					c0.621,0.842,1.164,0.964,1.985,1.335C111.992,127.218,112.225,127.057,112.1,126.879L112.1,126.879z"/>
			</g>
		</g>
		<g>
			<g>
				<path d="M59.247,46.132c-0.147-0.209-0.15-0.69-0.309-0.951c-0.262-0.429-0.473-0.872-0.765-1.284
					c-0.746-1.051-1.429-2.148-2.113-3.239c-0.798-1.273-2.002-4.532-3.66-4.742c-0.251-0.032-0.478,0.197-0.546,0.416
					c-0.261,0.838,0.409,1.604,0.845,2.282c0.717,1.115,1.429,2.233,2.155,3.344c0.688,1.053,1.395,2.095,2.142,3.107
					c0.622,0.843,1.165,0.964,1.985,1.336C59.139,46.471,59.372,46.309,59.247,46.132L59.247,46.132z"/>
			</g>
		</g>
		<g>
			<g>
				<path d="M37.003,111.729c0.208-0.147,0.69-0.15,0.951-0.31c0.429-0.262,0.873-0.473,1.284-0.765
					c1.051-0.746,2.149-1.429,3.24-2.113c1.273-0.799,4.532-2.003,4.741-3.66c0.032-0.252-0.197-0.479-0.416-0.546
					c-0.837-0.261-1.604,0.408-2.282,0.844c-1.115,0.717-2.233,1.43-3.343,2.155c-1.053,0.689-2.095,1.395-3.107,2.142
					c-0.842,0.622-0.964,1.165-1.335,1.985C36.663,111.621,36.825,111.854,37.003,111.729L37.003,111.729z"/>
			</g>
		</g>
		<g>
			<g>
				<path d="M117.751,58.876c0.209-0.147,0.69-0.15,0.951-0.31c0.429-0.262,0.872-0.473,1.283-0.765
					c1.051-0.746,2.148-1.429,3.24-2.113c1.273-0.798,4.533-2.003,4.742-3.66c0.032-0.252-0.197-0.479-0.416-0.546
					c-0.838-0.261-1.604,0.408-2.282,0.845c-1.115,0.717-2.233,1.429-3.343,2.154c-1.053,0.688-2.095,1.395-3.107,2.142
					c-0.843,0.622-0.964,1.165-1.335,1.985C117.411,58.767,117.573,59.001,117.751,58.876L117.751,58.876z"/>
			</g>
		</g>
		<g>
			<g>
				<path d="M112.764,37.109c-0.338,0.522-1.109,0.951-1.494,1.55c-0.68,1.06-1.405,2.088-2.14,3.109
					c-0.775,1.076-1.569,2.14-2.357,3.206c-0.488,0.66-1.168,1.36-0.933,2.222c0.063,0.228,0.299,0.438,0.546,0.416
					c1.595-0.136,3.1-3.376,3.93-4.559c0.741-1.056,1.466-2.122,2.155-3.212c0.611-0.967,0.615-1.609,0.657-2.634
					C113.136,37.005,112.864,36.954,112.764,37.109L112.764,37.109z"/>
			</g>
		</g>
		<g>
			<g>
				<path d="M57.62,116.31c-0.338,0.522-1.109,0.951-1.494,1.55c-0.68,1.059-1.405,2.087-2.14,3.108
					c-0.775,1.077-1.569,2.14-2.358,3.206c-0.488,0.661-1.168,1.361-0.933,2.223c0.063,0.228,0.299,0.438,0.546,0.416
					c1.595-0.136,3.1-3.376,3.93-4.559c0.741-1.056,1.465-2.122,2.155-3.212c0.611-0.967,0.615-1.609,0.657-2.634
					C57.992,116.206,57.72,116.155,57.62,116.31L57.62,116.31z"/>
			</g>
		</g>
		<g>
			<g>
				<path d="M126.771,112.392c-0.522-0.338-0.951-1.108-1.55-1.493c-1.059-0.68-2.087-1.405-3.108-2.141
					c-1.077-0.774-2.14-1.568-3.206-2.357c-0.661-0.488-1.361-1.168-2.223-0.933c-0.228,0.062-0.437,0.298-0.416,0.546
					c0.136,1.595,3.377,3.101,4.56,3.931c1.056,0.74,2.122,1.466,3.212,2.155c0.966,0.61,1.609,0.614,2.633,0.656
					C126.876,112.765,126.926,112.493,126.771,112.392L126.771,112.392z"/>
			</g>
		</g>
		<g>
			<g>
				<path d="M47.57,57.247c-0.522-0.337-0.952-1.108-1.55-1.492c-1.059-0.68-2.087-1.404-3.108-2.14
					c-1.077-0.775-2.14-1.569-3.207-2.358c-0.66-0.487-1.361-1.168-2.222-0.932c-0.228,0.063-0.437,0.298-0.416,0.546
					c0.136,1.595,3.376,3.101,4.559,3.93c1.056,0.741,2.122,1.466,3.212,2.155c0.966,0.61,1.609,0.614,2.633,0.655
					C47.675,57.619,47.726,57.348,47.57,57.247L47.57,57.247z"/>
			</g>
		</g>
		<g>
			<g>
				<path d="M92.029,134.986c-0.109-0.529,0.054-1.311-0.013-1.941c-0.121-1.142-0.441-2.291-0.632-3.426
					c-0.27-1.613-0.101-5.502-1.471-6.567c-0.293-0.228-0.675-0.221-0.89,0.114c-0.462,0.722-0.189,1.535-0.071,2.341
					c0.224,1.526,0.513,3.048,0.789,4.564c0.368,2.026,0.624,3.632,1.96,5.104C91.843,135.331,92.066,135.166,92.029,134.986
					L92.029,134.986z"/>
			</g>
		</g>
		<g>
			<g>
				<path d="M75.02,39.99c-0.109-0.529,0.054-1.312-0.013-1.942c-0.121-1.142-0.441-2.291-0.632-3.426
					c-0.27-1.612-0.101-5.502-1.471-6.566c-0.293-0.228-0.675-0.221-0.89,0.114c-0.462,0.721-0.189,1.535-0.071,2.341
					c0.224,1.525,0.513,3.047,0.789,4.565c0.368,2.025,0.624,3.631,1.96,5.104C74.833,40.335,75.056,40.17,75.02,39.99L75.02,39.99z
					"/>
			</g>
		</g>
		<g>
			<g>
				<path d="M28.895,91.658c0.53-0.109,1.311,0.055,1.941-0.012c1.142-0.121,2.292-0.441,3.426-0.632
					c1.612-0.271,5.502-0.102,6.567-1.472c0.228-0.293,0.221-0.675-0.115-0.89c-0.721-0.462-1.535-0.189-2.34-0.071
					c-1.526,0.225-3.047,0.514-4.565,0.789c-2.026,0.369-3.631,0.625-5.104,1.961C28.551,91.472,28.716,91.695,28.895,91.658
					L28.895,91.658z"/>
			</g>
		</g>
		<g>
			<g>
				<path d="M123.892,74.648c0.529-0.109,1.312,0.054,1.941-0.013c1.142-0.121,2.291-0.441,3.426-0.632
					c1.612-0.27,5.501-0.101,6.567-1.471c0.227-0.293,0.221-0.675-0.115-0.89c-0.721-0.462-1.535-0.189-2.34-0.071
					c-1.526,0.224-3.047,0.513-4.565,0.789c-2.026,0.368-3.632,0.624-5.105,1.961C123.548,74.462,123.713,74.685,123.892,74.648
					L123.892,74.648z"/>
			</g>
		</g>
	</g>
	<g>
		<animate attributeName="fill" values="rebeccapurple;blue;red;rebeccapurple" dur="10s" repeatCount="indefinite" />
		<animateTransform attributeName="transform" attributeType="XML" type="rotate" from="0 0 0" to="360 0 0" dur="30s" repeatCount="indefinite"/>
		<g>
			<g>
				<path d="M88.511,49.711c0.063-0.021,0.127-0.042,0.19-0.063c-0.304,0.02-0.499,0.183-0.606,0.462
					c-0.726,1.883-1.194,4.188-1.466,6.193c-0.142,1.046,1.296,1.518,1.625,0.448c0.358-1.166,0.573-2.375,0.811-3.57
					c0.208-1.041,0.438-2.019,0.243-3.071c-0.036-0.192-0.243-0.409-0.439-0.439c-0.001-0.002-0.001-0.004-0.001-0.006
					C88.776,49.509,88.57,49.557,88.511,49.711L88.511,49.711z"/>
			</g>
		</g>
		<g>
			<g>
				<path d="M76.617,106.68c0.063-0.021,0.127-0.042,0.19-0.063c-0.304,0.02-0.499,0.184-0.606,0.462
					c-0.726,1.883-1.194,4.188-1.466,6.192c-0.142,1.046,1.296,1.519,1.625,0.448c0.358-1.165,0.573-2.374,0.811-3.569
					c0.208-1.041,0.438-2.018,0.243-3.071c-0.036-0.192-0.243-0.409-0.439-0.439c-0.001-0.002-0.001-0.004-0.001-0.006
					C76.882,106.477,76.676,106.526,76.617,106.68L76.617,106.68z"/>
			</g>
		</g>
		<g>
			<g>
				<path d="M114.17,88.14c0.021,0.063,0.042,0.127,0.063,0.19c-0.02-0.304-0.183-0.499-0.461-0.606
					c-1.883-0.727-4.189-1.194-6.194-1.466c-1.045-0.142-1.518,1.295-0.448,1.624c1.165,0.358,2.375,0.573,3.57,0.812
					c1.042,0.208,2.019,0.439,3.072,0.243c0.192-0.036,0.408-0.243,0.439-0.439c0.002,0,0.004,0,0.006,0
					C114.372,88.405,114.323,88.199,114.17,88.14L114.17,88.14z"/>
			</g>
		</g>
		<g>
			<g>
				<path d="M57.201,76.246c0.021,0.063,0.042,0.127,0.063,0.19c-0.021-0.305-0.182-0.498-0.462-0.606
					c-1.883-0.727-4.188-1.194-6.193-1.465c-1.045-0.142-1.518,1.296-0.448,1.624c1.166,0.358,2.375,0.573,3.569,0.812
					c1.041,0.208,2.018,0.438,3.072,0.242c0.193-0.035,0.408-0.243,0.44-0.439c0.002,0,0.004,0,0.006,0
					C57.403,76.511,57.355,76.305,57.201,76.246L57.201,76.246z"/>
			</g>
		</g>
		<g>
			<g>
				<path d="M100.268,109.125c0.473-0.854-0.779-2.181-1.206-2.851c-0.754-1.184-1.404-2.446-2.287-3.541
					c-0.626-0.776-1.707,0.211-1.309,1.011c0.548,1.099,1.281,2.112,1.962,3.133c0.605,0.906,1.144,1.768,2.059,2.379
					c0.175,0.117,0.435,0.106,0.611,0C100.155,109.221,100.234,109.186,100.268,109.125L100.268,109.125z"/>
			</g>
		</g>
		<g>
			<g>
				<path d="M68.396,60.431c0.472-0.855-0.778-2.18-1.206-2.851c-0.754-1.185-1.404-2.446-2.286-3.541
					c-0.626-0.776-1.708,0.211-1.31,1.011c0.548,1.099,1.281,2.112,1.962,3.133c0.605,0.905,1.144,1.768,2.06,2.378
					c0.175,0.116,0.435,0.106,0.611,0C68.283,60.526,68.362,60.492,68.396,60.431L68.396,60.431z"/>
			</g>
		</g>
		<g>
			<g>
				<path d="M54.757,99.897c0.855,0.472,2.18-0.778,2.851-1.206c1.184-0.754,2.446-1.404,3.541-2.286
					c0.777-0.626-0.212-1.707-1.01-1.309c-1.099,0.548-2.113,1.28-3.133,1.962c-0.906,0.604-1.767,1.144-2.378,2.059
					c-0.117,0.176-0.107,0.435,0,0.611C54.661,99.784,54.695,99.863,54.757,99.897L54.757,99.897z"/>
			</g>
		</g>
		<g>
			<g>
				<path d="M103.45,68.025c0.858,0.47,2.178-0.778,2.851-1.207c1.184-0.754,2.446-1.404,3.541-2.287
					c0.777-0.625-0.211-1.708-1.01-1.309c-1.099,0.549-2.113,1.281-3.133,1.963c-0.906,0.604-1.768,1.144-2.378,2.06
					c-0.117,0.176-0.106,0.434,0,0.611C103.354,67.911,103.388,67.991,103.45,68.025L103.45,68.025z"/>
			</g>
		</g>
		<g>
			<g>
				<path d="M100.704,54.696c-0.918-0.093-1.615,1.415-2.053,2.034c-0.822,1.165-1.799,2.256-2.495,3.502
					c-0.45,0.807,0.664,1.737,1.309,1.01c0.797-0.898,1.451-1.919,2.131-2.907c0.631-0.918,1.303-1.783,1.532-2.889
					c0.041-0.195,0.016-0.453-0.156-0.589C100.885,54.788,100.817,54.708,100.704,54.696L100.704,54.696z"/>
			</g>
		</g>
		<g>
			<g>
				<path d="M67.45,102.457c-0.919-0.093-1.615,1.415-2.053,2.034c-0.822,1.165-1.8,2.256-2.495,3.502
					c-0.45,0.807,0.664,1.737,1.309,1.01c0.797-0.898,1.451-1.919,2.131-2.907c0.631-0.918,1.303-1.783,1.532-2.889
					c0.041-0.195,0.016-0.453-0.156-0.589C67.631,102.549,67.563,102.469,67.45,102.457L67.45,102.457z"/>
			</g>
		</g>
		<g>
			<g>
				<path d="M109.184,100.333c0.094-0.918-1.415-1.616-2.034-2.053c-1.165-0.822-2.256-1.799-3.502-2.495
					c-0.807-0.45-1.737,0.665-1.01,1.31c0.899,0.797,1.919,1.451,2.908,2.131c0.918,0.631,1.782,1.302,2.888,1.532
					c0.196,0.041,0.453,0.016,0.589-0.156C109.093,100.514,109.173,100.446,109.184,100.333L109.184,100.333z"/>
			</g>
		</g>
		<g>
			<g>
				<path d="M61.424,67.078c0.093-0.919-1.415-1.615-2.034-2.053c-1.165-0.821-2.256-1.799-3.502-2.494
					c-0.807-0.45-1.737,0.664-1.01,1.309c0.899,0.797,1.919,1.45,2.908,2.13c0.917,0.632,1.783,1.303,2.888,1.532
					c0.196,0.041,0.453,0.016,0.589-0.155C61.332,67.26,61.412,67.191,61.424,67.078L61.424,67.078z"/>
			</g>
		</g>
		<g>
			<g>
				<path d="M88.18,113.887c-0.024,0.022-0.048,0.045-0.072,0.067c0.193-0.095,0.314-0.335,0.312-0.543
					c-0.013-0.982-0.227-1.912-0.384-2.882c-0.194-1.204-0.299-2.429-0.6-3.61c-0.23-0.905-1.736-0.737-1.655,0.224
					c0.101,1.174,0.333,2.329,0.546,3.487c0.197,1.074,0.326,2.165,0.921,3.099c0.15,0.235,0.432,0.37,0.71,0.289
					c-0.024,0.013-0.048,0.025-0.072,0.038C88.007,114.147,88.182,114.021,88.18,113.887L88.18,113.887z"/>
			</g>
		</g>
		<g>
			<g>
				<path d="M77.923,56.6c-0.024,0.023-0.048,0.045-0.072,0.067c0.193-0.094,0.315-0.335,0.312-0.543
					c-0.029-2.084-0.47-4.47-0.984-6.492c-0.23-0.905-1.736-0.737-1.655,0.224c0.101,1.174,0.333,2.329,0.546,3.487
					c0.197,1.074,0.326,2.165,0.921,3.099c0.15,0.235,0.433,0.371,0.71,0.289c-0.024,0.013-0.048,0.025-0.072,0.038
					C77.749,56.861,77.925,56.735,77.923,56.6L77.923,56.6z"/>
			</g>
		</g>
		<g>
			<g>
				<path d="M49.995,87.808c-0.022-0.023-0.045-0.048-0.067-0.071c0.094,0.192,0.335,0.314,0.543,0.312
					c0.982-0.014,1.912-0.228,2.882-0.384c1.204-0.194,2.428-0.3,3.611-0.601c0.905-0.23,0.736-1.736-0.224-1.654
					c-1.173,0.1-2.33,0.332-3.487,0.545c-1.075,0.198-2.166,0.326-3.1,0.921c-0.235,0.15-0.371,0.434-0.289,0.711
					c-0.013-0.024-0.025-0.048-0.038-0.072C49.734,87.636,49.86,87.81,49.995,87.808L49.995,87.808z"/>
			</g>
		</g>
		<g>
			<g>
				<path d="M107.281,77.551c-0.022-0.024-0.045-0.048-0.067-0.071c0.094,0.192,0.335,0.313,0.543,0.311
					c2.084-0.028,4.47-0.468,6.493-0.983c0.905-0.23,0.736-1.736-0.224-1.654c-1.174,0.1-2.33,0.332-3.487,0.545
					c-1.074,0.198-2.165,0.326-3.099,0.921c-0.235,0.15-0.372,0.433-0.289,0.711c-0.013-0.024-0.025-0.048-0.038-0.072
					C107.021,77.378,107.146,77.553,107.281,77.551L107.281,77.551z"/>
			</g>
		</g>
	</g>
</g>
<g>
</g>
<g>
</g>
<g>
</g>
<g>
</g>
<g>
</g>
<g>
</g>
<g>
</g>
<g>
</g>
<g>
</g>
<g>
</g>
<g>
</g>
<g>
</g>
<g>
</g>
<g>
</g>
<g>
</g>
</svg>
