<?xml version="1.0" encoding="UTF-8"?>
<svg width="194px" height="62px" viewBox="0 0 194 62" version="1.1" xmlns="http://www.w3.org/2000/svg" xmlns:xlink="http://www.w3.org/1999/xlink">
    <title>OsheagaFestivalMusique&amp;Arts</title>
    <g id="Page-1" stroke="none" stroke-width="1" fill-rule="evenodd">
        <g id="Mac" transform="translate(-32.000000, -28.000000)" fill-rule="nonzero">
            <g id="Group-3">
                <path d="M50.432,63.768 C55.5520002,63.768 59.6800002,62.136 62.816,58.872 C65.9200002,55.6400002 67.472,51.3200002 67.472,45.912 C67.472,40.5039998 65.9200002,36.1839998 62.816,32.952 C59.6800002,29.688 55.5520002,28.056 50.432,28.056 C45.3119998,28.056 41.1839998,29.688 38.048,32.952 C34.9120002,36.2480002 33.344,40.5680002 33.344,45.912 C33.344,51.2559998 34.9120002,55.5759998 38.048,58.872 C41.1839998,62.136 45.3119998,63.768 50.432,63.768 Z M50.432,58.056 C47.3279998,58.056 44.8319998,56.9679998 42.944,54.792 C41.0560002,52.6160002 40.112,49.656 40.112,45.912 C40.112,42.168 41.0560002,39.2079998 42.944,37.032 C44.8319998,34.8560002 47.3279998,33.768 50.432,33.768 C53.5679998,33.768 56.0800002,34.8560002 57.968,37.032 C59.8240002,39.1760002 60.752,42.1359998 60.752,45.912 C60.752,49.6880002 59.8240002,52.6479998 57.968,54.792 C56.0800002,56.9679998 53.5679998,58.056 50.432,58.056 Z M80.912,63.672 C84.4000002,63.672 87.104,63 89.024,61.656 C90.944,60.312 91.904,58.392 91.904,55.896 C91.904,53.784 91.2239998,52.1360002 89.864,50.952 C88.5040002,49.7679998 86.3200002,48.9039998 83.312,48.36 L80.192,47.88 C78.7199998,47.6240002 77.6639998,47.2640002 77.024,46.8 C76.3840002,46.3359998 76.064,45.6879998 76.064,44.856 C76.064,42.936 77.504,41.976 80.384,41.976 C82.0799998,41.976 83.36,42.288 84.224,42.912 C85.088,43.536 85.5520002,44.5839998 85.616,46.056 L91.328,46.056 C91.1039998,40.4559998 87.4559998,37.656 80.384,37.656 C77.12,37.656 74.5919998,38.3199998 72.8,39.648 C71.0080002,40.9760002 70.112,42.8079998 70.112,45.144 C70.112,49.2399998 72.8159998,51.7359998 78.224,52.632 L81.056,53.112 C82.88,53.4320002 84.1439998,53.832 84.848,54.312 C85.5520002,54.792 85.904,55.4799998 85.904,56.376 C85.904,58.3599998 84.272,59.352 81.008,59.352 C79.184,59.352 77.8480002,59.0319998 77,58.392 C76.1519998,57.7520002 75.6479998,56.664 75.488,55.128 L69.584,55.128 C69.9040002,60.8240002 73.6799998,63.672 80.912,63.672 Z M101.168,63 L101.168,49.128 C101.168,47.1759998 101.704,45.648 102.776,44.544 C103.848,43.44 105.152,42.888 106.688,42.888 C109.792,42.888 111.344,44.4560002 111.344,47.592 L111.344,63 L117.392,63 L117.392,46.584 C117.392,43.7360002 116.616,41.5359998 115.064,39.984 C113.512,38.4320002 111.392,37.656 108.704,37.656 C105.568,37.656 103.056,38.952 101.168,41.544 L101.168,28.824 L95.12,28.824 L95.12,63 L101.168,63 Z M133.52,63.576 C136.464,63.576 138.96,62.832 141.008,61.344 C143.056,59.856 144.4,57.8480002 145.04,55.32 L139.232,55.32 C138.208,57.6879998 136.32,58.872 133.568,58.872 C131.712,58.872 130.232,58.3359998 129.128,57.264 C128.024,56.1920002 127.36,54.6 127.136,52.488 L145.664,52.488 L145.664,51.048 C145.664,47.0480002 144.56,43.8159998 142.352,41.352 C140.144,38.8880002 137.168,37.656 133.424,37.656 C129.776,37.656 126.816,38.8400002 124.544,41.208 C122.304,43.5759998 121.184,46.7120002 121.184,50.616 C121.184,54.5199998 122.32,57.656 124.592,60.024 C126.864,62.3919998 129.84,63.576 133.52,63.576 Z M139.616,48.264 L127.184,48.264 C127.76,44.328 129.824,42.36 133.376,42.36 C135.104,42.36 136.512,42.888 137.6,43.944 C138.688,45 139.36,46.44 139.616,48.264 Z M156.896,63.576 C160.544,63.576 163.2,62.376 164.864,59.976 C165.024,61.4799998 165.248,62.4879998 165.536,63 L171.584,63 C170.912,62.04 170.576,60.4719998 170.576,58.296 L170.576,45.096 C170.576,40.1360002 167.136,37.656 160.256,37.656 C153.184,37.656 149.472,40.4720002 149.12,46.104 L155.072,46.104 C155.2,44.664 155.648,43.6479998 156.416,43.056 C157.184,42.4640002 158.448,42.168 160.208,42.168 C161.84,42.168 163,42.4160002 163.688,42.912 C164.376,43.4079998 164.72,44.184 164.72,45.24 C164.72,46.104 164.448,46.752 163.904,47.184 C163.36,47.616 162.464,47.9120002 161.216,48.072 L157.472,48.408 C151.136,49.0479998 147.968,51.624 147.968,56.136 C147.968,58.4720002 148.776,60.2960002 150.392,61.608 C152.008,62.9199998 154.176,63.576 156.896,63.576 Z M158.336,59.256 C156.992,59.256 155.96,58.9599998 155.24,58.368 C154.52,57.7760002 154.16,56.952 154.16,55.896 C154.16,54.84 154.504,54.0320002 155.192,53.472 C155.88,52.9119998 157.024,52.536 158.624,52.344 L161.888,51.96 C163.2,51.8000002 164.144,51.4640002 164.72,50.952 L164.72,53.208 C164.72,55.1600002 164.128,56.6559998 162.944,57.696 C161.76,58.7360002 160.224,59.256 158.336,59.256 Z M186.176,72.984 C190.08,72.984 193.096,72.024 195.224,70.104 C197.352,68.184 198.416,65.544 198.416,62.184 L198.416,38.232 L192.56,38.232 L192.56,41.64 C190.832,38.9840002 188.224,37.656 184.736,37.656 C181.376,37.656 178.688,38.808 176.672,41.112 C174.624,43.3839998 173.6,46.44 173.6,50.28 C173.6,54.0879998 174.624,57.1280002 176.672,59.4 C178.72,61.7360002 181.424,62.904 184.784,62.904 C188.048,62.904 190.576,61.6719998 192.368,59.208 L192.368,62.328 C192.368,64.2800002 191.848,65.7680002 190.808,66.792 C189.768,67.8159998 188.256,68.328 186.272,68.328 C182.88,68.328 181.04,66.9999998 180.752,64.344 L174.8,64.344 C174.992,67.032 176.072,69.144 178.04,70.68 C180.008,72.216 182.72,72.984 186.176,72.984 Z M186.128,57.912 C184.176,57.912 182.632,57.24 181.496,55.896 C180.36,54.552 179.792,52.6959998 179.792,50.328 C179.792,47.928 180.36,46.0479998 181.496,44.688 C182.632,43.3280002 184.176,42.648 186.128,42.648 C188.144,42.648 189.712,43.32 190.832,44.664 C191.952,46.008 192.512,47.88 192.512,50.28 C192.512,52.68 191.952,54.552 190.832,55.896 C189.712,57.24 188.144,57.912 186.128,57.912 Z M210.896,63.576 C214.544,63.576 217.2,62.376 218.864,59.976 C219.024,61.4799998 219.248,62.4879998 219.536,63 L225.584,63 C224.912,62.04 224.576,60.4719998 224.576,58.296 L224.576,45.096 C224.576,40.1360002 221.136,37.656 214.256,37.656 C207.184,37.656 203.472,40.4720002 203.12,46.104 L209.072,46.104 C209.2,44.664 209.648,43.6479998 210.416,43.056 C211.184,42.4640002 212.448,42.168 214.208,42.168 C215.84,42.168 217,42.4160002 217.688,42.912 C218.376,43.4079998 218.72,44.184 218.72,45.24 C218.72,46.104 218.448,46.752 217.904,47.184 C217.36,47.616 216.464,47.9120002 215.216,48.072 L211.472,48.408 C205.136,49.0479998 201.968,51.624 201.968,56.136 C201.968,58.4720002 202.776,60.2960002 204.392,61.608 C206.008,62.9199998 208.176,63.576 210.896,63.576 Z M212.336,59.256 C210.992,59.256 209.96,58.9599998 209.24,58.368 C208.52,57.7760002 208.16,56.952 208.16,55.896 C208.16,54.84 208.504,54.0320002 209.192,53.472 C209.88,52.9119998 211.024,52.536 212.624,52.344 L215.888,51.96 C217.2,51.8000002 218.144,51.4640002 218.72,50.952 L218.72,53.208 C218.72,55.1600002 218.128,56.6559998 216.944,57.696 C215.76,58.7360002 214.224,59.256 212.336,59.256 Z M34.702,87 L34.702,82.702 L39.392,82.702 L39.392,81.078 L34.702,81.078 L34.702,78.726 L39.854,78.726 L39.854,77.032 L32.812,77.032 L32.812,87 L34.702,87 Z M43.886,87.168 C44.7446666,87.168 45.4726666,86.951 46.07,86.517 C46.6673334,86.083 47.0593334,85.4973334 47.246,84.76 L45.552,84.76 C45.2533334,85.4506666 44.7026666,85.796 43.9,85.796 C43.3586666,85.796 42.927,85.6396666 42.605,85.327 C42.283,85.0143334 42.0893334,84.55 42.024,83.934 L47.428,83.934 L47.428,83.514 C47.428,82.3473334 47.106,81.4046666 46.462,80.686 C45.818,79.9673334 44.95,79.608 43.858,79.608 C42.794,79.608 41.9306666,79.9533334 41.268,80.644 C40.6146666,81.3346666 40.288,82.2493334 40.288,83.388 C40.288,84.5266666 40.6193334,85.4413334 41.282,86.132 C41.9446666,86.8226666 42.8126666,87.168 43.886,87.168 Z M45.664,82.702 L42.038,82.702 C42.206,81.554 42.808,80.98 43.844,80.98 C44.348,80.98 44.7586666,81.134 45.076,81.442 C45.3933334,81.75 45.5893334,82.17 45.664,82.702 Z M51.39,87.196 C52.4073334,87.196 53.196,87 53.756,86.608 C54.316,86.216 54.596,85.656 54.596,84.928 C54.596,84.312 54.3976666,83.8313334 54.001,83.486 C53.6043334,83.1406666 52.9673334,82.8886666 52.09,82.73 L51.18,82.59 C50.7506666,82.5153334 50.4426666,82.4103334 50.256,82.275 C50.0693334,82.1396666 49.976,81.9506666 49.976,81.708 C49.976,81.148 50.396,80.868 51.236,80.868 C51.7306666,80.868 52.104,80.959 52.356,81.141 C52.608,81.323 52.7433334,81.6286666 52.762,82.058 L54.428,82.058 C54.3626666,80.4246666 53.2986666,79.608 51.236,79.608 C50.284,79.608 49.5466666,79.8016666 49.024,80.189 C48.5013334,80.5763334 48.24,81.1106666 48.24,81.792 C48.24,82.9866666 49.0286666,83.7146666 50.606,83.976 L51.432,84.116 C51.964,84.2093334 52.3326666,84.326 52.538,84.466 C52.7433334,84.606 52.846,84.8066666 52.846,85.068 C52.846,85.6466666 52.37,85.936 51.418,85.936 C50.886,85.936 50.4963334,85.8426666 50.249,85.656 C50.0016666,85.4693334 49.8546666,85.152 49.808,84.704 L48.086,84.704 C48.1793334,86.3653334 49.2806666,87.196 51.39,87.196 Z M58.264,87.056 C58.4973334,87.056 58.8053334,87.0373334 59.188,87 L59.188,85.656 L58.586,85.656 C58.2873334,85.656 58.075,85.6093334 57.949,85.516 C57.823,85.4226666 57.76,85.2593334 57.76,85.026 L57.76,81.12 L59.188,81.12 L59.188,79.776 L57.76,79.776 L57.76,77.676 L56.01,77.676 L56.01,79.776 L54.89,79.776 L54.89,81.12 L56.01,81.12 L56.01,85.208 C56.01,85.852 56.1896666,86.321 56.549,86.615 C56.9083334,86.909 57.48,87.056 58.264,87.056 Z M61.974,78.838 L61.974,77.186 L60.238,77.186 L60.238,78.838 L61.974,78.838 Z M61.988,87 L61.988,79.776 L60.224,79.776 L60.224,87 L61.988,87 Z M67.378,87 L70.066,79.776 L68.232,79.776 L67.532,81.708 C67.1213334,83.0146666 66.7433334,84.2466666 66.398,85.404 C65.9686666,83.9666666 65.5906666,82.7393334 65.264,81.722 L64.564,79.776 L62.674,79.776 L65.348,87 L67.378,87 Z M72.684,87.168 C73.748,87.168 74.5226666,86.818 75.008,86.118 C75.0546666,86.5566666 75.12,86.8506666 75.204,87 L76.968,87 C76.772,86.72 76.674,86.2626666 76.674,85.628 L76.674,81.778 C76.674,80.3313334 75.6706666,79.608 73.664,79.608 C71.6013334,79.608 70.5186666,80.4293334 70.416,82.072 L72.152,82.072 C72.1893334,81.652 72.32,81.3556666 72.544,81.183 C72.768,81.0103334 73.1366666,80.924 73.65,80.924 C74.126,80.924 74.4643334,80.9963334 74.665,81.141 C74.8656666,81.2856666 74.966,81.512 74.966,81.82 C74.966,82.072 74.8866666,82.261 74.728,82.387 C74.5693334,82.513 74.308,82.5993334 73.944,82.646 L72.852,82.744 C71.004,82.9306666 70.08,83.682 70.08,84.998 C70.08,85.6793334 70.3156666,86.2113334 70.787,86.594 C71.2583334,86.9766666 71.8906666,87.168 72.684,87.168 Z M73.104,85.908 C72.712,85.908 72.411,85.8216666 72.201,85.649 C71.991,85.4763334 71.886,85.236 71.886,84.928 C71.886,84.62 71.9863334,84.3843334 72.187,84.221 C72.3876666,84.0576666 72.7213334,83.948 73.188,83.892 L74.14,83.78 C74.5226666,83.7333334 74.798,83.6353334 74.966,83.486 L74.966,84.144 C74.966,84.7133334 74.7933334,85.1496666 74.448,85.453 C74.1026666,85.7563334 73.6546666,85.908 73.104,85.908 Z M79.74,87 L79.74,77.032 L77.976,77.032 L77.976,87 L79.74,87 Z M86.11,87 L86.11,83.962 C86.11,82.1046666 86.0913334,80.4666666 86.054,79.048 C86.194,79.524 86.4413334,80.28 86.796,81.316 L88.826,87 L90.38,87 L92.396,81.316 C92.6946666,80.4853334 92.9466666,79.72 93.152,79.02 C93.1188148,80.2893333 93.1003786,81.7319671 93.0966914,83.3479013 L93.096,87 L94.902,87 L94.902,77.032 L92.158,77.032 L90.492,81.778 C90.2026666,82.6086666 89.9086666,83.542 89.61,84.578 C89.1526666,83.1033334 88.868,82.2026666 88.756,81.876 L87.034,77.032 L84.29,77.032 L84.29,87 L86.11,87 Z M98.864,87.168 C99.8253334,87.168 100.581333,86.762 101.132,85.95 L101.132,87 L102.84,87 L102.84,79.776 L101.076,79.776 L101.076,83.822 C101.076,84.3913334 100.919667,84.837 100.607,85.159 C100.294333,85.481 99.914,85.642 99.466,85.642 C98.5606666,85.642 98.108,85.1846666 98.108,84.27 L98.108,79.776 L96.344,79.776 L96.344,84.564 C96.344,85.3946666 96.5703334,86.0363334 97.023,86.489 C97.4756666,86.9416666 98.0893334,87.168 98.864,87.168 Z M107.11,87.196 C108.127333,87.196 108.916,87 109.476,86.608 C110.036,86.216 110.316,85.656 110.316,84.928 C110.316,84.312 110.117667,83.8313334 109.721,83.486 C109.324333,83.1406666 108.687333,82.8886666 107.81,82.73 L106.9,82.59 C106.470667,82.5153334 106.162667,82.4103334 105.976,82.275 C105.789333,82.1396666 105.696,81.9506666 105.696,81.708 C105.696,81.148 106.116,80.868 106.956,80.868 C107.450667,80.868 107.824,80.959 108.076,81.141 C108.328,81.323 108.463333,81.6286666 108.482,82.058 L110.148,82.058 C110.082667,80.4246666 109.018667,79.608 106.956,79.608 C106.004,79.608 105.266667,79.8016666 104.744,80.189 C104.221333,80.5763334 103.96,81.1106666 103.96,81.792 C103.96,82.9866666 104.748667,83.7146666 106.326,83.976 L107.152,84.116 C107.684,84.2093334 108.052667,84.326 108.258,84.466 C108.463333,84.606 108.566,84.8066666 108.566,85.068 C108.566,85.6466666 108.09,85.936 107.138,85.936 C106.606,85.936 106.216333,85.8426666 105.969,85.656 C105.721667,85.4693334 105.574667,85.152 105.528,84.704 L103.806,84.704 C103.899333,86.3653334 105.000667,87.196 107.11,87.196 Z M113.004,78.838 L113.004,77.186 L111.268,77.186 L111.268,78.838 L113.004,78.838 Z M113.018,87 L113.018,79.776 L111.254,79.776 L111.254,87 L113.018,87 Z M121.362,89.744 L121.362,79.776 L119.654,79.776 L119.654,80.784 C119.122,80 118.361333,79.608 117.372,79.608 C116.364,79.608 115.575333,79.9486666 115.006,80.63 C114.418,81.3113334 114.124,82.2306666 114.124,83.388 C114.124,84.5266666 114.418,85.4413334 115.006,86.132 C115.584667,86.8226666 116.373333,87.168 117.372,87.168 C118.342667,87.168 119.084667,86.7993334 119.598,86.062 L119.598,89.744 L121.362,89.744 Z M117.778,85.712 C117.199333,85.712 116.746667,85.5206666 116.42,85.138 C116.093333,84.7553334 115.93,84.1906666 115.93,83.444 C115.93,82.6973334 116.095667,82.114 116.427,81.694 C116.758333,81.274 117.208667,81.064 117.778,81.064 C118.366,81.064 118.823333,81.2646666 119.15,81.666 C119.476667,82.0673334 119.64,82.6413334 119.64,83.388 C119.64,84.1346666 119.476667,84.7086666 119.15,85.11 C118.814,85.5113334 118.356667,85.712 117.778,85.712 Z M125.31,87.168 C126.271333,87.168 127.027333,86.762 127.578,85.95 L127.578,87 L129.286,87 L129.286,79.776 L127.522,79.776 L127.522,83.822 C127.522,84.3913334 127.365667,84.837 127.053,85.159 C126.740333,85.481 126.36,85.642 125.912,85.642 C125.006667,85.642 124.554,85.1846666 124.554,84.27 L124.554,79.776 L122.79,79.776 L122.79,84.564 C122.79,85.3946666 123.016333,86.0363334 123.469,86.489 C123.921667,86.9416666 124.535333,87.168 125.31,87.168 Z M133.99,87.168 C134.848667,87.168 135.576667,86.951 136.174,86.517 C136.771333,86.083 137.163333,85.4973334 137.35,84.76 L135.656,84.76 C135.357333,85.4506666 134.806667,85.796 134.004,85.796 C133.462667,85.796 133.031,85.6396666 132.709,85.327 C132.387,85.0143334 132.193333,84.55 132.128,83.934 L137.532,83.934 L137.532,83.514 C137.532,82.3473334 137.21,81.4046666 136.566,80.686 C135.922,79.9673334 135.054,79.608 133.962,79.608 C132.898,79.608 132.034667,79.9533334 131.372,80.644 C130.718667,81.3346666 130.392,82.2493334 130.392,83.388 C130.392,84.5266666 130.723333,85.4413334 131.386,86.132 C132.048667,86.8226666 132.916667,87.168 133.99,87.168 Z M135.768,82.702 L132.142,82.702 C132.31,81.554 132.912,80.98 133.948,80.98 C134.452,80.98 134.862667,81.134 135.18,81.442 C135.497333,81.75 135.693333,82.17 135.768,82.702 Z M144.756,87.224 C145.894667,87.224 146.888667,86.874 147.738,86.174 L148.466,87 L150.678,87 L148.816,84.928 C149.338667,84.0693334 149.618667,83.1266666 149.656,82.1 L148.032,82.1 C148.013333,82.66 147.901333,83.192 147.696,83.696 L145.96,81.764 C147.332,81.0546666 148.018,80.1726666 148.018,79.118 C148.018,78.418 147.756667,77.858 147.234,77.438 C146.720667,77.018 146.053333,76.808 145.232,76.808 C144.364,76.808 143.682667,77.0366666 143.188,77.494 C142.684,77.9513334 142.432,78.5206666 142.432,79.202 C142.432,79.566 142.513667,79.916 142.677,80.252 C142.840333,80.588 143.118,80.98 143.51,81.428 C142.763333,81.8013334 142.215,82.2166666 141.865,82.674 C141.515,83.1313334 141.34,83.6773334 141.34,84.312 C141.34,85.1613334 141.648,85.8566666 142.264,86.398 C142.870667,86.9486666 143.701333,87.224 144.756,87.224 Z M145.092,80.784 L145.064,80.756 C144.494667,80.1306666 144.21,79.6126666 144.21,79.202 C144.21,78.9126666 144.312667,78.677 144.518,78.495 C144.723333,78.313 144.98,78.222 145.288,78.222 C145.605333,78.222 145.866667,78.3153334 146.072,78.502 C146.277333,78.6886666 146.38,78.922 146.38,79.202 C146.38,79.7806666 145.950667,80.308 145.092,80.784 Z M144.91,85.712 C144.396667,85.712 143.981333,85.5626666 143.664,85.264 C143.346667,84.9653334 143.188,84.6013334 143.188,84.172 C143.188,83.472 143.594,82.898 144.406,82.45 L146.744,85.054 C146.202667,85.4926666 145.591333,85.712 144.91,85.712 Z M155.732,87 L156.502,84.802 L160.87,84.802 L161.654,87 L163.656,87 L159.792,77.032 L157.58,77.032 L153.786,87 L155.732,87 Z M160.296,83.192 L157.076,83.192 L157.454,82.114 C157.874,80.994 158.28,79.8553334 158.672,78.698 C159.166667,80.1446666 159.577333,81.2833334 159.904,82.114 L160.296,83.192 Z M166.148,87 L166.148,83.332 C166.148,82.6693334 166.327667,82.1676666 166.687,81.827 C167.046333,81.4863334 167.562,81.316 168.234,81.316 L168.682,81.316 L168.682,79.692 C168.551333,79.6733334 168.406667,79.664 168.248,79.664 C167.212,79.664 166.493333,80.1306666 166.092,81.064 L166.092,79.776 L164.384,79.776 L164.384,87 L166.148,87 Z M172.546,87.056 C172.779333,87.056 173.087333,87.0373334 173.47,87 L173.47,85.656 L172.868,85.656 C172.569333,85.656 172.357,85.6093334 172.231,85.516 C172.105,85.4226666 172.042,85.2593334 172.042,85.026 L172.042,81.12 L173.47,81.12 L173.47,79.776 L172.042,79.776 L172.042,77.676 L170.292,77.676 L170.292,79.776 L169.172,79.776 L169.172,81.12 L170.292,81.12 L170.292,85.208 C170.292,85.852 170.471667,86.321 170.831,86.615 C171.190333,86.909 171.762,87.056 172.546,87.056 Z M177.334,87.196 C178.351333,87.196 179.14,87 179.7,86.608 C180.26,86.216 180.54,85.656 180.54,84.928 C180.54,84.312 180.341667,83.8313334 179.945,83.486 C179.548333,83.1406666 178.911333,82.8886666 178.034,82.73 L177.124,82.59 C176.694667,82.5153334 176.386667,82.4103334 176.2,82.275 C176.013333,82.1396666 175.92,81.9506666 175.92,81.708 C175.92,81.148 176.34,80.868 177.18,80.868 C177.674667,80.868 178.048,80.959 178.3,81.141 C178.552,81.323 178.687333,81.6286666 178.706,82.058 L180.372,82.058 C180.306667,80.4246666 179.242667,79.608 177.18,79.608 C176.228,79.608 175.490667,79.8016666 174.968,80.189 C174.445333,80.5763334 174.184,81.1106666 174.184,81.792 C174.184,82.9866666 174.972667,83.7146666 176.55,83.976 L177.376,84.116 C177.908,84.2093334 178.276667,84.326 178.482,84.466 C178.687333,84.606 178.79,84.8066666 178.79,85.068 C178.79,85.6466666 178.314,85.936 177.362,85.936 C176.83,85.936 176.440333,85.8426666 176.193,85.656 C175.945667,85.4693334 175.798667,85.152 175.752,84.704 L174.03,84.704 C174.123333,86.3653334 175.224667,87.196 177.334,87.196 Z" id="OsheagaFestivalMusique&amp;Arts"></path>
            </g>
        </g>
    </g>
</svg>