
<svg version="1.1" id="Calque_1" xmlns="http://www.w3.org/2000/svg" x="0" y="0" viewBox="0 0 928 143" xml:space="preserve">
  <style>
    .st0{fill:#636362}
  </style>
  <path class="st0" d="M23.1 84.4C14.8 84.4 8 77.6 8 69.3V47.2C8 38.8 14.8 32 23.1 32h28c8.3 0 15.1 6.8 15.1 15.2v22.1c0 8.3-6.8 15.1-15.1 15.1h-28zm28-8.6c3.3 0 5.9-2.6 5.9-5.9V46.7c0-3.3-2.6-6-5.9-6h-28c-3.3 0-6 2.7-6 6v23.2c0 3.3 2.7 5.9 6 5.9h28zM77.7 84.4V32h41.7c8.5 0 15.3 6.7 15.3 15.1 0 4.5-1.9 8.5-4.9 11.2 2.8 2.5 4.4 6.3 4.4 10.3v15.7H125V68.6c0-3.5-2.8-6.3-6.2-6.3h-32v22.1h-9.1zm9.1-30.7h32.4c3.5 0 6.3-3.2 6.3-6.6 0-3.5-2.9-6.4-6.3-6.4H86.8v13zM159.4 84.4c-8.4 0-15.1-6.8-15.1-15.1V32h9.1v37.8c0 3.2 2.6 5.9 5.9 5.9h27.5l-3.3 8.6h-24.1zM191.4 47.1c0-8.3 6.7-15.1 15.1-15.1h28c8.3 0 15.1 6.8 15.1 15.1v15.2h-49.1v7.5c0 3.3 2.7 6 6 6h39.1l-3.3 8.6h-35.8c-8.4 0-15.1-6.8-15.1-15.1V47.1zm15.1-6.4c-3.3 0-6 2.7-6 6v7h40v-7c0-3.3-2.7-6-6-6h-28zM272.4 84.4c-8.4 0-15.1-6.8-15.1-15.3 0-8.7 6.7-15.4 15.1-15.4h33.5v-6.5c0-3.3-2.7-6.5-6-6.5h-36.2L267 32h32.8c8.4 0 15.2 6.8 15.2 15.1v37.3h-42.6zm0-8.6h33.5V62.3h-33.5c-3.3 0-6 3.2-6 6.8 0 3.5 2.7 6.7 6 6.7zM371.4 50.5c0-5.5-4.4-9.9-9.9-9.9h-25.9v43.8h-9.1V32h35c10.5 0 19 8.5 19 19v33.4h-9.1V50.5zM392.2 75.8h40.2c3.5 0 6.3-2.9 6.3-6.8 0-3.5-2.9-6.7-6.3-6.7h-27.6c-8.6 0-15.4-6.7-15.4-15.2S396 32 404.8 32h36.6l-3.3 8.6h-33.3c-3.7 0-6.3 3-6.3 6.5s2.8 6.5 6.3 6.5h27.6c8.6 0 15.4 6.9 15.4 15.3s-6.9 15.4-15.4 15.4H389l3.2-8.5zM477.5 47.1c0-8.3 6.7-15.1 15.1-15.1h28c8.3 0 15.1 6.8 15.1 15.1v15.2h-49.1v7.5c0 3.3 2.7 6 6 6h39.1l-3.3 8.6h-35.8c-8.4 0-15.1-6.8-15.1-15.1V47.1zm15.1-6.4c-3.3 0-6 2.7-6 6v7h40v-7c0-3.3-2.7-6-6-6h-28zM539.1 32h12.3l16.5 18.8L584.4 32h12.3l-22.9 25.4 24.1 27h-12.3l-18.1-20.6-18 20.6h-12.3L561.7 57l-22.6-25zM605.2 32h39.6c8.6 0 15.4 6.8 15.4 15.3 0 8.6-6.9 15-15.4 15h-30.5v22.1h-9.1V32zm39.6 21.7c3.5 0 6.3-3.2 6.3-6.6 0-3.5-2.9-6.4-6.3-6.4h-30.5v13h30.5zM667.5 84.4V32h41.7c8.5 0 15.3 6.7 15.3 15.1 0 4.5-1.9 8.5-4.9 11.2 2.8 2.5 4.4 6.3 4.4 10.3v15.7h-9.1V68.6c0-3.5-2.8-6.3-6.2-6.3h-32v22.1h-9.2zm9.1-30.7H709c3.5 0 6.3-3.2 6.3-6.6 0-3.5-2.9-6.4-6.3-6.4h-32.4v13zM732.2 47.1c0-8.3 6.7-15.1 15.1-15.1h28c8.3 0 15.1 6.8 15.1 15.1v15.2h-49.1v7.5c0 3.3 2.7 6 6 6h39.1l-3.3 8.6h-35.8c-8.4 0-15.1-6.8-15.1-15.1V47.1zm15.1-6.4c-3.3 0-6 2.7-6 6v7h40v-7c0-3.3-2.7-6-6-6h-28zM800.1 75.8h40.2c3.5 0 6.3-2.9 6.3-6.8 0-3.5-2.9-6.7-6.3-6.7h-27.6c-8.6 0-15.4-6.7-15.4-15.2S803.9 32 812.7 32h36.6l-3.3 8.6h-33.3c-3.7 0-6.3 3-6.3 6.5s2.8 6.5 6.3 6.5h27.6c8.6 0 15.4 6.9 15.4 15.3s-6.9 15.4-15.4 15.4h-43.5l3.3-8.5zM864.4 75.8h40.2c3.5 0 6.3-2.9 6.3-6.8 0-3.5-2.9-6.7-6.3-6.7H877c-8.6 0-15.4-6.7-15.4-15.2S868.2 32 877 32h36.6l-3.3 8.6H877c-3.7 0-6.3 3-6.3 6.5s2.8 6.5 6.3 6.5h27.6c8.6 0 15.4 6.9 15.4 15.3s-6.9 15.4-15.4 15.4h-43.5l3.3-8.5z"/>
  <path d="M878.8 126.5h-5.1V98.6h5.1v27.9zm-24.4-5.1H869l-1.9 5.1h-12.8c-4.5 0-8.1-3.6-8.1-8.1V98.6h5.1v19.8c.1 1.6 1.4 3 3.1 3m57.1-11.4c4.6 0 8.3 3.7 8.3 8.3 0 4.6-3.7 8.3-8.3 8.3H887l1.8-5.1h22.6c1.7 0 3.1-1.4 3.1-3.1 0-1.7-1.4-3.1-3.1-3.1h-16.5c-4.6 0-8.3-3.7-8.3-8.3 0-4.6 3.7-8.3 8.3-8.3h20.5l-1.9 5.1h-18.7c-1.7 0-3.1 1.4-3.1 3.1 0 1.7 1.4 3.1 3.1 3.1h16.7zm-180.7 2.6c0-2.7 1.7-5 4.1-5.9l24.2-8.7 1.8 5-24.1 8.4c-.5.2-.8.7-.8 1.2s.3 1 .8 1.2l24.1 8.4-1.8 5-24.2-8.7c-2.4-1-4.1-3.3-4.1-5.9m39.2 5.8c0 1.6 1.3 3 3 3h22.7l-1.8 5.1H773c-4.5 0-8.1-3.6-8.1-8.1v-11.7c0-4.5 3.6-8.1 8.1-8.1h16.6c4.5 0 8.1 3.6 8.1 8.1v8.4H770v3.3zm3-14.7c-1.6 0-3 1.3-3 3v3.3h22.5v-3.3c0-1.6-1.3-3-3-3H773zm-44 22.8h-5.1V98.6h5.1v27.9zm84.2 0c-4.5 0-8.1-3.6-8.1-8.1v-11.7c0-4.5 3.6-8.1 8.1-8.1h17.3c4.5 0 8.1 3.6 8.1 8.1v11.7c0 4.5-3.6 8.1-8.1 8.1h-17.3zm20.2-19.8c0-1.6-1.3-3-3-3h-17.3c-1.6 0-3 1.3-3 3v11.7c0 1.6 1.3 3 3 3h17.3c1.6 0 3-1.3 3-3v-11.7z" fill-rule="evenodd" clip-rule="evenodd" fill="#00a9c1"/>
  <path class="st0" d="M235.8 15.8h-12.3l-13.4 11.5h12.3z"/>
</svg>
