<?xml version="1.0" encoding="UTF-8"?>
<svg width="2px" height="10px" viewBox="0 0 2 10" version="1.1" xmlns="http://www.w3.org/2000/svg" xmlns:xlink="http://www.w3.org/1999/xlink">
    <title>Combined Shape</title>
    <g id="Page-1" stroke="none" stroke-width="1" fill-rule="evenodd">
        <g id="Mac-Copy-2" transform="translate(-547.000000, -660.000000)">
            <g id="Group-12" transform="translate(529.000000, 265.000000)">
                <g id="Group-11" transform="translate(0.000000, 220.000000)">
                    <path d="M19,183 C19.5522847,183 20,183.447715 20,184 C20,184.552285 19.5522847,185 19,185 C18.4477153,185 18,184.552285 18,184 C18,183.447715 18.4477153,183 19,183 Z M19,179 C19.5522847,179 20,179.447715 20,180 C20,180.552285 19.5522847,181 19,181 C18.4477153,181 18,180.552285 18,180 C18,179.447715 18.4477153,179 19,179 Z M19,175 C19.5522847,175 20,175.447715 20,176 C20,176.552285 19.5522847,177 19,177 C18.4477153,177 18,176.552285 18,176 C18,175.447715 18.4477153,175 19,175 Z" id="Combined-Shape"></path>
                </g>
            </g>
        </g>
    </g>
</svg>