<?xml version="1.0" encoding="utf-8"?>
<svg version="1.1" id="Layer_1" xmlns="http://www.w3.org/2000/svg" xmlns:xlink="http://www.w3.org/1999/xlink" x="0px" y="0px"
	 viewBox="0 0 612 144.5" style="enable-background:new 0 0 612 144.5;" xml:space="preserve">
<g id="coachella-logo">
	<path id="XMLID_268_" d="M194.9,38.1c3.9-0.7,5.1,2.1,6.1,4.9c2.9,8.1,5.7,16.2,8.3,24.4c1.3,4.1,1.6,8.5,5.3,11.5
		c-1.6,3.6,1,6.8,1.2,10.3c0.1,2.7,0.8,5.3,1.1,7.9c0.1,1.2,0.1,2.6-0.2,3.8c-0.2,0.9-1.1,2-1.8,2.1c-0.8,0.1-2-0.7-2.4-1.5
		c-2.5-5-5.1-10-7-15.2c-1.2-3.1-2-4.5-5.8-3.8c-6.5,1.3-13.2,1.6-19.8,2.7c-1.3,0.2-2.7,1.9-3.5,3.2c-2,3.2-3.6,6.8-5.7,9.9
		c-0.7,1-2.8,2-3.8,1.7c-2-0.6-1.9-2.4-1.2-4.4c1.9-5.4,3.9-10.8,5.4-16.3c2.2-7.9,3.8-16,5.9-24c0.9-3.5,1.7-7,3.3-10.3
		C183,39,188.8,38.1,194.9,38.1z M184.2,73.2c6,1,11.3,1.8,17.5,2.8c-2.4-4.1-4.2-7.6-6.4-10.8c-1.5-2.1-3.9-2.5-5.6-0.3
		C187.7,67.3,186.2,70,184.2,73.2z" />
	<path id="XMLID_267_" d="M372.1,47.1c-4.6,0.6-9.3,1.1-13.9,1.9c-4.6,0.8-6,3.6-4.9,8.4c0.8,3.6,3.3,5,7.6,4
		c3.9-0.9,7.7-2.1,11.5-2.9c1.5-0.3,4.2-0.1,4.6,0.7c0.9,2,1.4,4.6,0.9,6.8c-0.2,1.1-2.7,2.4-4.2,2.6c-4.1,0.5-8.4,0.5-12.5,0.7
		c-5.2,0.3-6.9,2.5-5.6,7.6c1,3.7,2.2,7.4,3.4,11c1.4,4.2,4.3,5.9,8.9,5.5c4.6-0.4,9.2-0.7,13.7-1.3c5.8-0.7,8,1.2,7.5,7.2
		c-0.4,4.9-2,6.6-6.7,6.3c-4.4-0.3-8.8-1-13.1-2.1c-7.5-1.8-14.8-4.1-22.3-6.1c-3-0.8-3.4-2.7-3-5.4c0.6-3.7,1-7.4,1.8-11
		c0.7-3.5,0.8-6.5-2.3-9.3c-2-1.9,0.1-3.7,1.4-5c4.6-4.6,4.5-10.3-0.4-14.4c-3-2.4-2.7-4.3,0.7-5.9c7.4-3.6,14.8-7.4,22.3-11
		c5.6-2.7,11.2-0.5,16.7,0.6c0.7,0.1,1.6,2.3,1.4,3.4c-0.6,5-5.1,8.5-10.1,8.2c-1.2-0.1-2.3-0.2-3.5-0.3
		C372.1,47.3,372.1,47.2,372.1,47.1z"/>
	<path id="XMLID_264_" d="M526.9,37.9c2.2-0.4,3.5,1.8,4.4,4.3c2.2,6,4.3,12,6.4,18.1c1.6,4.7,2.9,9.5,4.5,14.2
		c0.3,0.9,1,1.9,1.8,2.4c1.8,1.1,2.9,2.1,1.2,4.1c-0.2,0.3-0.3,0.9-0.2,1.3c0.8,4.6,1.6,9.2,2.5,13.8c0.1,0.7,0.6,1.4,0.5,2
		c-0.5,1.7-1.3,3.3-1.9,4.9c-1.1-1-2.6-1.8-3.2-3c-2.5-4.8-4.9-9.7-7.1-14.7c-0.9-2.1-1.3-3.4-4.4-3c-4,0.6-8.1-0.1-12.2-0.3
		c-6.3-0.3-10.8,1.8-13.2,8.2c-1.1,3.1-3.3,5.9-5.3,8.6c-0.6,0.8-2.5,1.5-3.1,1.1c-0.9-0.6-1.7-2.3-1.5-3.2c1.1-4.3,2.8-8.4,4-12.7
		c2.5-9.1,4.9-18.2,7.2-27.3c1.1-4.3,1.5-8.7,4.6-12.3C515.7,40.2,520.4,38.4,526.9,37.9z M532.6,75.9c-3-6.2-5.3-11.6-8.1-16.8
		c-1.4-2.6-3.8-2.1-4.8,0.7c-1.6,4.4-3,8.8-4.6,13.5C520.8,74.1,526.1,74.9,532.6,75.9z"/>
	<path id="XMLID_263_" d="M292.4,34.7c0.8,2.2,1.6,3.8,1.8,5.4c0.8,7.9,1.4,15.9,1.9,23.8c0.1,1.9,0.7,2.5,2.7,2.7
		c5.1,0.3,10.3,0.6,15.3,1.7c3.2,0.7,4-0.4,4.1-3.1c0.2-6.4,0.2-12.9,0.7-19.3c0.2-3.5,1.1-6.9,1.7-10.4c0.6,0,1.3,0,1.9,0
		c0.4,1.8,0.9,3.5,1.1,5.3c0.8,9.3,1.4,18.6,2.1,27.6c2.5,1,4.8,1.9,7.1,2.8c0,0.4,0,0.9,0,1.3c-2,0.7-3.9,1.3-6.4,2.1
		c0.3,3.6,0.9,7.5,1,11.4c0.1,4.7,0,9.4-0.3,14c-0.2,3.1-2.1,4.9-5.2,5c-3.4,0.1-5.1-1.4-5.2-5.2c-0.2-7.1,0-14.2,0-21.2
		c0-0.9,0-1.8,0-3.2c-6.1,0.9-12.1,1.8-17.7,2.7c0,5,0,10.1,0,15.2c0,1.9,0,3.8-0.2,5.6c-0.6,4.3-2.7,6.1-6.7,6
		c-4.4-0.1-5.9-1.5-6.4-6.2c-0.9-10.4,0.1-20.7,1.5-31c1.1-7.5,1.1-15.2,1.6-22.8C288.9,41.7,288.8,38.2,292.4,34.7z"/>
	<path id="XMLID_262_" d="M131.1,50.6c-0.6-3.3,2.9-7.8,6.4-8c4.5-0.3,9.3-0.6,13.6,0.5c2.5,0.6,5,3.7,6.2,6.2
		c3.6,7.5,6.2,15.4,5.1,24c-1.1,8.5-4.7,15.7-10.9,21.4c-4.4,4-10.2,4.4-15.9,4.3c-6.2,0-10.2-3.1-13.8-8.1
		c-8.9-12.7-6.3-29.9,0.9-40.8c0.1-0.2,0.6-0.2,1.9-0.7c-0.4,2.4-0.7,4.3-1.1,6.2c-1.8,7.7-2.1,15.3,2.6,22.3c4,6.1,12,7.9,18.2,4.1
		c6.3-3.9,9.7-11.2,8.4-18.5c-0.6-3.2-1.1-6.5-2.3-9.5c-2.7-6.5-9.7-8.6-15.7-5C133.5,49.5,132.3,50,131.1,50.6z"/>
	<path id="XMLID_261_" d="M105.7,105.7c-16.9-1.1-29.8-8.2-38.1-22.3C64.6,78.5,63.6,73,65,66.6c2.3-10.5,7.8-18.9,14.4-26.7
		c2.1-2.5,4.9-3.8,8.6-3.7c4.6,0.1,9.2-1.2,13.8-1.5c2-0.1,5.4,0.1,5.9,1.3c1.2,2.4-1.5,3.7-3.5,4.7c-3.3,1.8-6.6,3.5-9.7,5.5
		c-5.4,3.5-10.7,6.9-14.1,12.8c-4,7-6.1,14.1-4.1,22.1c0.2,0.8,0.3,1.6,0.8,2.3c5.1,8,11.5,14.1,21.5,15c3.6,0.3,7.2,0.8,10.7,1.4
		c1,0.2,2.8,1.5,2.7,1.9c-0.3,1.2-1.2,2.7-2.3,3.2C108.5,105.6,106.7,105.5,105.7,105.7z"/>
	<path id="XMLID_260_" d="M258.8,33.1c2.8,0.5,5.6,0.8,8.2,1.5c0.9,0.2,2.3,1.6,2.1,2.1c-0.3,1.1-1.2,2.2-2.2,2.8
		c-1.5,0.8-3.3,1.1-5,1.6c-15.8,4.6-23.5,15.3-24.8,30.8c-1.1,12.1,11.5,25.8,22.2,26.5c3.6,0.2,7.2,0.7,10.7,1.4
		c1.1,0.2,2.1,1.3,3.2,2c-0.8,1.1-1.6,3.2-2.5,3.3c-3.6,0.4-7.3,0.7-10.8,0c-13.3-2.6-23.8-9.7-30.9-21.4
		c-3.3-5.5-3.3-11.8-2.5-17.8c1.1-7.8,4-15.2,9.4-21.1c3.9-4.4,8.4-8.5,14.4-10.1C252.9,33.8,255.9,33.6,258.8,33.1z"/>
	<path id="XMLID_259_" d="M433.6,103.3c-1.5-0.4-3.9-1.4-6.4-1.9c-6.5-1.2-13.1-2.2-19.6-3.3c-2.5-0.5-5-1.1-7.5-1.9
		c-0.7-0.2-1.7-1.2-1.7-1.8c0-0.6,0.9-1.5,1.6-1.9c1.5-0.9,4-1.3,4.6-2.6c1.1-2.4,1.6-5.3,1.7-8.1c0.3-7.7,0.2-15.3,0.4-23
		c0.1-4.7,0.1-9.4,0.3-14.1c0.1-2.7,0.6-5.3,1.2-7.9c0.2-0.8,1.3-1.4,2-2c0.7,0.7,1.8,1.3,2,2.2c0.8,4.4,1.4,8.8,1.9,13.2
		c1.1,10,2,20,3.1,30c0.2,1.7,0.7,3.4,1.2,5.1c1.5,4.4,5.8,6.3,10.2,4.6c1.5-0.6,3.1-1.3,4.7-1.3c2.6,0,4.4,1.2,4.4,4.3
		c0,2.3,0.4,4.6,0.8,6.9C439,102.1,437.6,103.5,433.6,103.3z"/>
	<path id="XMLID_258_" d="M449.1,95.8c0.6-1.1,0.9-2.4,1.7-3.2c3.9-3.7,4.5-8.7,4.7-13.6c0.3-12.1,0.1-24.3,0.1-36.4
		c0-2,0.4-4,1-5.8c0.2-0.8,1.4-1.8,2.1-1.8c0.7,0.1,1.9,1.2,2,2c0.7,3.7,1.2,7.4,1.5,11.1c1.1,11.5,2.1,23,3.2,34.5
		c0.6,5.7,2.4,7.1,9.4,7.5c2.3,0.1,4.7,0.1,6.8,0.8c3.4,1,6.5,7.5,5.2,10.7c-0.4,0.9-2.2,1.9-3.3,1.9c-11.6-0.2-22.5-3.6-33.5-6.7
		C449.9,96.6,449.7,96.3,449.1,95.8z"/>
</g>
</svg>
