<svg width="84px" height="28px" viewBox="0 0 84 28" version="1.1" xmlns="http://www.w3.org/2000/svg" xmlns:xlink="http://www.w3.org/1999/xlink">
    <g stroke="none" stroke-width="1" fill-rule="evenodd">
        <g transform="translate(-144.000000, -11.000000)" fill-rule="nonzero">
            <g transform="translate(144.000000, 11.000000)">
                <g>
                    <g>
                        <g>
                            <path d="M19.7342466,8.59178082 L11.7139726,0.571506849 C10.9532235,-0.188352463 9.72074906,-0.188352463 8.96,0.571506849 L0.951232877,8.57643836 C0.191373565,9.33718742 0.191373565,10.5696619 0.951232877,11.330411 L3.51726027,13.8964384 L5.50410959,15.8832877 L8.16219178,18.5413699 L8.97150685,19.3506849 C9.04374554,19.4271332 9.12198613,19.497678 9.20547945,19.5616438 L9.20547945,26.5923288 C9.20547945,27.2341896 9.72581044,27.7545205 10.3676712,27.7545205 C11.009532,27.7545205 11.529863,27.2341896 11.529863,26.5923288 L11.529863,20.390137 C11.1900905,20.6463832 10.781204,20.7947048 10.3561644,20.8158904 C9.93426927,20.8186385 9.52559946,20.6687929 9.20547945,20.3939726 L9.20547945,19.5616438 C9.98033359,20.1137403 11.0397723,20.0296322 11.7178082,19.3621918 L12.5808219,18.4991781 L15.1852055,15.8947945 L16.9994521,14.0805479 L19.7227397,11.3572603 C20.482599,10.5965112 20.482599,9.36403673 19.7227397,8.60328767"></path>
                            <path d="M78.810411,13.1638356 C78.810411,13.1638356 80.7013699,12.9682192 80.7013699,16.7961644 C80.7013699,20.6241096 78.860274,20.5857534 78.860274,20.5857534 C78.860274,20.5857534 76.9117808,20.9884932 76.9117808,16.849863 C76.9117808,12.7112329 78.829589,13.1676712 78.829589,13.1676712 M77.9243836,22.5265753 C79.1269681,22.541064 80.2248761,21.8447196 80.7243836,20.7506849 L80.7243836,22.2849315 L83.2328767,22.2849315 L83.2328767,6.59726027 L80.7052055,6.59726027 L80.7052055,12.8723288 C80.7052055,12.6115068 79.7347945,11.1961644 77.9627397,11.1961644 C75.4350685,11.1961644 74.2460274,13.5473973 74.2460274,17.1260274 C74.2460274,23.0021918 77.9052055,22.5227397 77.9052055,22.5227397"></path>
                            <path d="M66.9660274,22.5189041 C68.4434606,22.5615571 69.7717393,21.6239486 70.2263014,20.2175342 L70.2263014,22.2849315 L72.7539726,22.2849315 L72.7539726,11.4569863 L70.2263014,11.4569863 L70.2263014,16.1632877 C70.2263014,18.1194521 69.2443836,20.1638356 67.6564384,20.1638356 C66.5057534,20.1638356 66.5632877,17.8624658 66.5632877,17.8624658 L66.5632877,11.4569863 L64.0547945,11.4569863 L64.0547945,18.8865753 C64.0547945,20.0756164 64.350137,22.5189041 66.9736986,22.5189041"></path>
                            <path d="M57.9676712,12.8109589 C58.8882192,12.8109589 59.8356164,13.3709589 59.8356164,16.7424658 C59.8356164,20.1139726 58.9610959,20.8120548 57.9676712,20.8120548 C56.4334247,20.8120548 55.9232877,19.4887671 55.9232877,16.8076712 C55.9232877,14.1265753 56.9243836,12.8109589 57.9676712,12.8109589 M57.9676712,22.5227397 C60.8136986,22.5227397 62.5205479,21.0345205 62.5205479,16.8383562 C62.5205479,12.6421918 60.9057534,11.1884932 58.8191781,11.1884932 C57.6367627,11.1546683 56.5337554,11.7815786 55.9578082,12.8147945 L55.9578082,6.59342466 L53.4263014,6.59342466 L53.4263014,17.7435616 C53.4263014,20.850411 55.1254795,22.5265753 57.9715068,22.5265753"></path>
                            <path d="M29.219726,12.8109589 C30.140274,12.8109589 31.0876712,13.3709589 31.0876712,16.7424658 C31.0876712,20.1139726 30.2131507,20.8120548 29.219726,20.8120548 C27.6854795,20.8120548 27.1753425,19.4887671 27.1753425,16.8076712 C27.1753425,14.1265753 28.1764384,12.8109589 29.219726,12.8109589 M29.219726,22.5227397 C32.0619178,22.5265753 33.7534247,21.0345205 33.7534247,16.8421918 C33.7534247,12.649863 32.1386301,11.1923288 30.0520548,11.1923288 C28.8696394,11.1585039 27.7666321,11.7854142 27.1906849,12.8186301 L27.1906849,6.59342466 L24.6591781,6.59342466 L24.6591781,17.7435616 C24.6591781,20.850411 26.3583562,22.5265753 29.2043836,22.5265753"></path>
                            <path d="M38.229589,22.5189041 C39.7070222,22.5615571 41.0353009,21.6239486 41.489863,20.2175342 L41.489863,22.2849315 L44.0175342,22.2849315 L44.0175342,11.4569863 L41.489863,11.4569863 L41.489863,16.1632877 C41.489863,18.1194521 40.5079452,20.1638356 38.92,20.1638356 C37.7693151,20.1638356 37.8268493,17.8624658 37.8268493,17.8624658 L37.8268493,11.4569863 L35.3106849,11.4569863 L35.3106849,18.8865753 C35.3106849,20.0756164 35.6060274,22.5189041 38.229589,22.5189041"></path>
                            <path d="M52.4290411,19.2854795 C52.4290411,16.3512329 47.6843836,15.2043836 47.6843836,13.9616438 C47.6843836,13.4208219 48.6624658,13.0027397 49.3989041,13.0027397 C50.4421918,13.0027397 51.7578082,13.769863 51.7578082,13.769863 L51.7578082,11.6219178 C50.9790775,11.3714368 50.1701675,11.2269425 49.3528767,11.1923288 C48.4208219,11.1923288 45.4558904,11.4723288 45.4558904,14.3413699 C45.4558904,17.2871233 50.0969863,18.4416438 50.0969863,19.6536986 C50.0969863,20.1216438 49.6405479,20.5780822 48.1408219,20.5780822 C47.1940421,20.5626752 46.2630253,20.3331993 45.4175342,19.9068493 L45.4175342,22.070137 C46.3578726,22.3737295 47.3406555,22.5252257 48.3287671,22.5189041 C50.0164384,22.5189041 52.4290411,21.9857534 52.4290411,19.2854795"></path>
                            <path d="M14.8093151,9.24383562 C14.6701043,11.626741 12.6971053,13.4878402 10.310137,13.4878402 C7.92316866,13.4878402 5.95016967,11.626741 5.8109589,9.24383562 L4.57205479,9.24383562 C4.65218629,12.3309788 7.17784438,14.7919303 10.2660274,14.7919303 C13.3542104,14.7919303 15.8798685,12.3309788 15.96,9.24383562 L14.8093151,9.24383562 Z"></path>
                            <path d="M11.5413699,19.5156164 C10.8597532,20.0491023 9.9075829,20.0678642 9.20547945,19.5616438 L9.20547945,20.4016438 C9.52559946,20.6764642 9.93426927,20.8263098 10.3561644,20.8235616 C10.7851774,20.8046637 11.1983977,20.6562253 11.5413699,20.3978082 L11.5413699,19.5156164 L11.5413699,19.5156164"></path>
                        </g>
                    </g>
                </g>
            </g>
        </g>
    </g>
</svg>