<svg xmlns="http://www.w3.org/2000/svg" viewBox="0 0 24 24" enable-background="new 0 0 24 24"><path d="M12 1C5.9 1 1 5.9 1 12s4.9 11 11 11 11-4.9 11-11S18.1 1 12 1zm7 6.7c-.4.6-.9 1.1-1.4 1.5v.4c0 3.8-2.9 8.2-8.2 8.2-1.6 0-3.1-.5-4.4-1.3h.7c1.3 0 2.6-.5 3.6-1.2-1.3 0-2.3-.9-2.7-2 .2 0 .4.1.5.1.3 0 .5 0 .8-.1-1.3-.3-2.3-1.4-2.3-2.8.4.2.8.3 1.3.4-.8-.5-1.3-1.4-1.3-2.4 0-.5.1-1 .4-1.4 1.4 1.7 3.5 2.9 5.9 3 0-.2-.1-.4-.1-.7 0-1.6 1.3-2.9 2.9-2.9.8 0 1.6.3 2.1.9.7-.1 1.3-.4 1.8-.7-.2.7-.7 1.2-1.3 1.6.6-.3 1.2-.4 1.7-.6z"/></svg>