<svg xmlns="http://www.w3.org/2000/svg" version="1.1" xmlnsXlink="http://www.w3.org/1999/xlink"  viewBox="0 0 40 40" width="40" height="40"><g transform="matrix(1.6666666666666667,0,0,1.6666666666666667,0,0)"><path d="M5.25,20.213v1.5a1.5,1.5,0,0,0,3,0v-1.5" fill="none" stroke="#000000" stroke-linecap="round" stroke-linejoin="round" stroke-width="1.5"></path><path d="M18.75,20.213v1.5a1.5,1.5,0,0,1-3,0v-1.5" fill="none" stroke="#000000" stroke-linecap="round" stroke-linejoin="round" stroke-width="1.5"></path><path d="M20.25,18.713a1.5,1.5,0,0,1-1.5,1.5H5.25a1.5,1.5,0,0,1-1.5-1.5V5.213a4.5,4.5,0,0,1,4.5-4.5h7.5a4.5,4.5,0,0,1,4.5,4.5Z" fill="none" stroke="#000000" stroke-linecap="round" stroke-linejoin="round" stroke-width="1.5"></path><path d="M9.75 3.713L14.25 3.713" fill="none" stroke="#000000" stroke-linecap="round" stroke-linejoin="round" stroke-width="1.5"></path><path d="M3.75 6.713H20.25V14.213000000000001H3.75z" fill="none" stroke="#000000" stroke-linecap="round" stroke-linejoin="round" stroke-width="1.5"></path><path d="M6.75 17.213L9.75 17.213" fill="none" stroke="#000000" stroke-linecap="round" stroke-linejoin="round" stroke-width="1.5"></path><path d="M14.25 17.213L17.25 17.213" fill="none" stroke="#000000" stroke-linecap="round" stroke-linejoin="round" stroke-width="1.5"></path><path d="M3.75,8.213H2.25a1.5,1.5,0,0,0-1.5,1.5v4.5" fill="none" stroke="#000000" stroke-linecap="round" stroke-linejoin="round" stroke-width="1.5"></path><path d="M20.25,8.213h1.5a1.5,1.5,0,0,1,1.5,1.5v4.5" fill="none" stroke="#000000" stroke-linecap="round" stroke-linejoin="round" stroke-width="1.5"></path></g></svg>