<svg xmlns="http://www.w3.org/2000/svg" version="1.1" xmlns:xlink="http://www.w3.org/1999/xlink" xmlns:svgjs="http://svgjs.dev/svgjs" viewBox="0 0 1920 1080"><rect width="1920" height="1080" fill="#f1c7aa"></rect><g transform="matrix(0.5750000000000001,0.9959292143521044,-0.9959292143521044,0.5750000000000001,927.8293651666402,-684.4761663605268)"><path d="M0,-1080C10.698114878343631,-942.625873496605,51.67716623940674,-523.0046060374452,64.18868927006179,-255.75524097962966C76.70021230071684,11.494124078185848,99.64740781421777,256.5286255192897,75.0691381839303,523.496190346893C50.49086855364284,790.4637551744962,-70.76940548100792,1073.2995130438055,-83.28092851166298,1346.05014798599C-95.79245154231803,1618.8007829281744,-13.880154751943829,2024.3416913309984,0,2160L 1920 2160 L 1920 -1080 Z" fill="url(&quot;#SvgjsLinearGradient1042&quot;)"></path><path d="M320,-1080C311.42999022745056,-950.7414097603335,264.36993889552826,-500.6653848090863,268.5799413647034,-304.44845856200106C272.78994383387857,-108.23153231491582,329.6468723737005,-98.15917272157296,345.26001481505085,97.30155748251144C360.8731572564012,292.76228768659587,378.47447932322393,638.6703463238667,362.2587960128057,868.3159226625053C346.0431127023875,1097.9614990011437,255.0090476213426,1259.8943359580935,247.96591495254165,1475.1750155143427C240.9227822837407,1690.455695070592,307.9943191587569,2045.8625025857239,320,2160L 1920 2160 L 1920 -1080 Z" fill="url(&quot;#SvgjsLinearGradient1043&quot;)"></path><path d="M640,-1080C654.0145721346477,-986.7518066097094,720.723009044224,-683.5728537414611,724.0874328078861,-520.5108396582568C727.4518565715482,-357.4488255750525,657.9307912593845,-239.2284603830992,660.1865425819728,-101.6279155007743C662.4422939045612,35.972629381550604,731.4508871038066,172.53957862131864,737.6219407434166,305.0924296356925C743.7929943830267,437.64528065006635,699.3961447515899,526.1845126096011,697.2128644196328,693.6891905854689C695.0295840876756,861.1938685613366,734.9399871415642,1146.0128538225417,724.5222587516739,1310.120497490899C714.1045303617836,1474.2281411592562,648.7935372055705,1536.6884688440962,634.7064940802915,1678.335052595613C620.6194509550124,1819.9816363471298,639.1177490133819,2079.7225087659353,640,2160L 1920 2160 L 1920 -1080 Z" fill="url(&quot;#SvgjsLinearGradient1044&quot;)"></path><path d="M960,-1080C956.2056568793179,-1006.1530714645305,932.9945057769173,-821.2802661010567,937.233941275907,-636.9184287871827C941.4733767748967,-452.5565914733088,994.2747608372069,-186.14978902138958,985.4366129939382,26.171023883243947C976.5984651506694,238.49183678787747,899.4082555945943,462.1679297090001,884.2050542162942,637.0064486406186C869.0018528379942,811.8449675722371,865.0412703198186,894.2445712201824,894.2174047241379,1075.2021374729547C923.3935391284571,1256.159703725727,1048.2980947628994,1541.9522024027451,1059.2618606422097,1722.7518461572527C1070.22562652152,1903.5514899117602,976.5436434403683,2087.1253076928756,960,2160L 1920 2160 L 1920 -1080 Z" fill="url(&quot;#SvgjsLinearGradient1045&quot;)"></path><path d="M1280,-1080C1265.1122419508854,-952.8700430906546,1196.4416578037712,-512.5452589157842,1190.6734517053128,-317.2202585439273C1184.9052456068544,-121.89525817207036,1243.3323641451548,-100.73705917127515,1245.390763409249,91.95000223114158C1247.4491626733434,284.63706363355834,1195.5403301476429,584.9450258744569,1203.023847289878,838.9021098705732C1210.507364432113,1092.8591938666896,1277.4625074776397,1395.509524519602,1290.29186626266,1615.6925062078399C1303.1212250476804,1835.8754878960776,1281.7153110437766,2069.2820843679733,1280,2160L 1920 2160 L 1920 -1080 Z" fill="url(&quot;#SvgjsLinearGradient1046&quot;)"></path><path d="M1600,-1080C1612.135415611625,-1019.9558923882629,1683.5797720477494,-880.4649595175748,1672.8124936697498,-719.7353543295771C1662.04521529175,-559.0057491415795,1557.1625951822,-290.82744254546515,1535.3963297320015,-115.62236887201385C1513.630064281803,59.58270480143747,1510.4741697599586,190.69832914348834,1542.2149009685593,331.4950877111307C1573.95563217716,472.29184627877305,1716.6958197315716,560.7935228230873,1725.840716983606,729.1581825338403C1734.9856142356402,897.5228422445933,1601.3994606439012,1175.7314601168534,1597.0842844807657,1341.683045975649C1592.7691083176303,1507.6346318344447,1699.4637074182538,1588.4815386825555,1699.9496600047928,1724.867697686614C1700.4356125913318,1861.2538566906726,1616.6582766674655,2087.4779496144356,1600,2160L 1920 2160 L 1920 -1080 Z" fill="url(&quot;#SvgjsLinearGradient1047&quot;)"></path></g><defs><linearGradient x1="0.1" y1="0" x2="0" y2="1" id="SvgjsLinearGradient1042"><stop stop-color="#f1c7aa" offset="0"></stop><stop stop-color="#f1bbaa" offset="0"></stop></linearGradient><linearGradient x1="0.1" y1="0" x2="0" y2="1" id="SvgjsLinearGradient1043"><stop stop-color="#f1aad4" offset="0"></stop><stop stop-color="#f1aae0" offset="0.16666666666666666"></stop></linearGradient><linearGradient x1="0.1" y1="0" x2="0" y2="1" id="SvgjsLinearGradient1044"><stop stop-color="#c7aaf1" offset="0"></stop><stop stop-color="#bbaaf1" offset="0.3333333333333333"></stop></linearGradient><linearGradient x1="0.1" y1="0" x2="0" y2="1" id="SvgjsLinearGradient1045"><stop stop-color="#aad4f1" offset="0"></stop><stop stop-color="#aae0f1" offset="0.5"></stop></linearGradient><linearGradient x1="0.1" y1="0" x2="0" y2="1" id="SvgjsLinearGradient1046"><stop stop-color="#aaf1c7" offset="0"></stop><stop stop-color="#aaf1bb" offset="0.6666666666666666"></stop></linearGradient><linearGradient x1="0.1" y1="0" x2="0" y2="1" id="SvgjsLinearGradient1047"><stop stop-color="#d4f1aa" offset="0"></stop><stop stop-color="#e0f1aa" offset="0.8333333333333334"></stop></linearGradient></defs></svg>