<svg width="100" height="131" viewBox="0 0 100 131" fill="none" xmlns="http://www.w3.org/2000/svg">
<path d="M42.0148 100.576C42.005 100.716 42 100.857 42 101V125C42 128.314 44.6863 131 48 131C51.3137 131 54 128.314 54 125V101C54 100.857 53.995 100.716 53.9852 100.576C53.4115 100.888 52.8434 101.136 52.261 101.325C49.4916 102.225 46.5084 102.225 43.739 101.325C43.1566 101.136 42.5885 100.888 42.0148 100.576Z" fill="#FFAB00"/>
<path d="M54 100.568C53.4212 100.884 52.8484 101.134 52.261 101.325C49.4916 102.225 46.5084 102.225 43.739 101.325C43.1516 101.134 42.5788 100.884 42 100.568V94.5676C42.5788 94.8839 43.1516 95.1342 43.739 95.3251C46.5084 96.2249 49.4916 96.2249 52.261 95.3251C52.8484 95.1342 53.4212 94.8839 54 94.5676V100.568Z" fill="#DA771B"/>
<path d="M32.3998 9.88873C37.8604 4.42813 40.5907 1.69784 43.739 0.67487C46.5084 -0.224957 49.4916 -0.224957 52.261 0.67487C55.4093 1.69784 58.1396 4.42813 63.6002 9.88871L86.1113 32.3998C91.5719 37.8604 94.3022 40.5907 95.3251 43.739C96.225 46.5084 96.225 49.4916 95.3251 52.261C94.3022 55.4093 91.5719 58.1396 86.1113 63.6002L63.6002 86.1113C58.1396 91.5719 55.4093 94.3022 52.261 95.3251C49.4916 96.225 46.5084 96.225 43.739 95.3251C40.5907 94.3022 37.8604 91.5719 32.3998 86.1113L9.88873 63.6002C4.42813 58.1396 1.69784 55.4093 0.67487 52.261C-0.224957 49.4916 -0.224957 46.5084 0.67487 43.739C1.69784 40.5907 4.42813 37.8604 9.88871 32.3998L32.3998 9.88873Z" fill="#FFAB00"/>
<path d="M20.0715 46C20.2858 48.9924 20.98 51.9354 22.1314 54.7151C23.5385 58.1123 25.601 61.1989 28.201 63.799C30.8011 66.399 33.8878 68.4615 37.2849 69.8686C40.682 71.2758 44.323 72 48 72C51.677 72 55.318 71.2758 58.7151 69.8686C62.1123 68.4615 65.199 66.399 67.799 63.799C70.399 61.199 72.4615 58.1123 73.8686 54.7151C75.02 51.9354 75.7142 48.9924 75.9285 46H69.9089C69.7078 48.2034 69.175 50.3678 68.3254 52.419C67.2198 55.0882 65.5993 57.5135 63.5564 59.5564C61.5135 61.5992 59.0882 63.2197 56.419 64.3254C53.7499 65.431 50.8891 66 48 66C45.1109 66 42.2501 65.431 39.581 64.3254C36.9118 63.2197 34.4866 61.5992 32.4437 59.5563C30.4008 57.5135 28.7803 55.0882 27.6747 52.419C26.825 50.3678 26.2923 48.2034 26.0911 46H20.0715Z" fill="#DA771B"/>
</svg>
