<svg id="Layer_1" xmlns="http://www.w3.org/2000/svg" xmlns:xlink="http://www.w3.org/1999/xlink" version="1.1" x="0px" y="10px" viewBox="0 0 100 125" enable-background="new 0 0 100 100" xml:space="preserve">
<path d="M40.581,13.008c0.805-1.448,2.63-1.971,4.08-1.166L50,14.809l5.339-2.967c1.448-0.805,3.274-0.282,4.08,1.166  c0.805,1.448,0.283,3.274-1.166,4.08l-6.796,3.776c-0.453,0.251-0.955,0.377-1.457,0.377s-1.004-0.126-1.457-0.377l-6.796-3.776  C40.298,16.283,39.776,14.456,40.581,13.008z M58.253,82.913l-6.796-3.776c-0.906-0.503-2.008-0.503-2.914,0l-6.796,3.776  c-1.448,0.805-1.97,2.631-1.166,4.08s2.63,1.97,4.08,1.166L50,85.191l5.339,2.967c0.461,0.256,0.961,0.378,1.454,0.378  c1.054,0,2.077-0.557,2.625-1.543C60.224,85.544,59.702,83.717,58.253,82.913z M75.961,36.694l6.668,3.997  c0.483,0.29,1.015,0.427,1.54,0.427c1.02,0,2.014-0.52,2.576-1.458c0.852-1.421,0.39-3.264-1.031-4.116l-5.238-3.14l-0.101-6.107  c-0.027-1.656-1.387-3.002-3.049-2.95c-1.657,0.027-2.978,1.392-2.95,3.049l0.128,7.774C74.521,35.207,75.072,36.161,75.961,36.694z   M24.039,63.306l-6.668-3.997c-1.422-0.852-3.264-0.39-4.116,1.031c-0.852,1.421-0.39,3.264,1.031,4.116l5.239,3.14l0.1,6.107  c0.027,1.64,1.364,2.951,2.999,2.951c0.017,0,0.034,0,0.05,0c1.656-0.027,2.978-1.392,2.95-3.049l-0.127-7.774  C25.479,64.793,24.928,63.839,24.039,63.306z M86.746,60.339c-0.852-1.42-2.694-1.883-4.116-1.031l-6.669,3.998  c-0.889,0.533-1.44,1.487-1.457,2.524l-0.127,7.773c-0.027,1.657,1.293,3.022,2.95,3.049c0.017,0,0.034,0,0.05,0  c1.634,0,2.972-1.311,2.999-2.951l0.1-6.107l5.239-3.14C87.136,63.603,87.597,61.761,86.746,60.339z M79.044,57.662l-7.636,4.698  l-0.251,8.962c-0.046,1.627-1.38,2.916-2.998,2.916c-0.028,0-0.057,0-0.085-0.001c-1.656-0.046-2.961-1.427-2.915-3.083l0.225-8.015  l-8.32-0.905l-3.376,7.658l7.053,3.813c1.458,0.788,2,2.608,1.212,4.066c-0.543,1.004-1.576,1.574-2.642,1.574  c-0.482,0-0.971-0.116-1.424-0.361L50,74.72l-7.887,4.264c-1.458,0.786-3.278,0.245-4.066-1.212  c-0.788-1.458-0.245-3.278,1.212-4.066l7.053-3.813l-3.376-7.658l-8.32,0.905l0.225,8.015c0.046,1.656-1.259,3.037-2.915,3.083  c-0.029,0-0.058,0.001-0.086,0.001c-1.618,0-2.952-1.288-2.998-2.916l-0.251-8.963l-7.636-4.698  c-1.411-0.869-1.851-2.716-0.983-4.127c0.868-1.412,2.715-1.851,4.127-0.983l6.829,4.202L35.873,50l-4.943-6.753l-6.829,4.202  c-0.49,0.301-1.033,0.445-1.569,0.445c-1.007,0-1.991-0.507-2.558-1.428c-0.868-1.411-0.428-3.259,0.983-4.127l7.636-4.698  l0.251-8.962c0.046-1.656,1.405-2.946,3.083-2.915c1.656,0.047,2.961,1.427,2.915,3.083l-0.225,8.015l8.32,0.905l3.376-7.658  l-7.053-3.813c-1.458-0.788-2-2.608-1.212-4.066c0.789-1.458,2.609-2,4.066-1.212L50,25.28l7.887-4.264  c1.457-0.789,3.277-0.246,4.066,1.212c0.788,1.458,0.245,3.278-1.212,4.066l-7.053,3.813l3.376,7.658l8.32-0.905l-0.225-8.015  c-0.046-1.656,1.259-3.036,2.915-3.083c1.636-0.024,3.036,1.258,3.083,2.915l0.251,8.962l7.636,4.698  c1.411,0.869,1.851,2.716,0.983,4.127c-0.567,0.921-1.551,1.428-2.558,1.428c-0.536,0-1.079-0.144-1.569-0.445l-6.829-4.202  L64.127,50l4.943,6.753l6.83-4.202c1.411-0.868,3.259-0.429,4.127,0.983C80.896,54.945,80.456,56.793,79.044,57.662z M59.012,48.523  l4.724-6.454l-7.951,0.865c-1.083,0.119-2.118-0.479-2.558-1.477L50,34.14l-3.227,7.318c-0.439,0.997-1.468,1.596-2.558,1.477  l-7.951-0.865l4.724,6.454c0.644,0.879,0.644,2.074,0,2.953l-4.724,6.454l7.951-0.865c0.091-0.01,0.182-0.015,0.271-0.015  c0.981,0,1.884,0.578,2.287,1.491L50,65.86l3.227-7.318c0.44-0.996,1.47-1.591,2.558-1.477l7.951,0.865l-4.724-6.454  C58.368,50.598,58.368,49.402,59.012,48.523z M15.831,41.119c0.525,0,1.057-0.138,1.54-0.427l6.668-3.997  c0.889-0.533,1.44-1.487,1.457-2.524l0.128-7.774c0.027-1.657-1.293-3.021-2.95-3.049c-1.639-0.049-3.021,1.294-3.049,2.95  l-0.101,6.107l-5.239,3.14c-1.421,0.852-1.882,2.694-1.031,4.116C13.817,40.599,14.811,41.119,15.831,41.119z"/>
</svg>