<svg width="100" height="100" xmlns="http://www.w3.org/2000/svg" id="Layer_1">
 <g>
  <path stroke="null" id="svg_4" d="m46.73618,24.74377l-16.22371,12.1317l-8.455,0c-1.09371,0 -1.97778,0.88406 -1.97778,1.97777l0,22.41614c0,1.09371 0.88407,1.97778 1.97778,1.97778l8.455,0l16.22371,12.13169c0.34809,0.26107 0.7654,0.39358 1.18469,0.39358c0.30062,0 0.60718,-0.06922 0.88605,-0.20767c0.66849,-0.33622 1.09173,-1.02053 1.09173,-1.77011l0,-47.46667c0,-0.74958 -0.42324,-1.43389 -1.09173,-1.77012c-0.66849,-0.33029 -1.47345,-0.26106 -2.07074,0.18591l0,0.00001l0,-0.00001zm-0.79309,45.10323l-13.58733,-10.16182c-0.34216,-0.25513 -0.75749,-0.39358 -1.18469,-0.39358l-7.13582,0l0,-18.46058l7.13582,0c0.4272,0 0.84253,-0.13844 1.18469,-0.39358l13.58733,-10.16182l0,39.57138l0,0z"/>
  <path stroke="null" d="m71.40364,50.00097l8.81294,-8.82458c0.75673,-0.76061 0.75673,-1.98689 -0.00194,-2.74556c-0.75867,-0.75478 -1.98689,-0.75673 -2.74556,0.00194l-8.81876,8.83234l-8.81876,-8.83234c-0.75867,-0.75867 -1.98689,-0.75673 -2.74556,-0.00194c-0.75867,0.75867 -0.75867,1.98495 -0.00194,2.74556l8.81294,8.82458l-8.81294,8.82264c-0.75672,0.76061 -0.75672,1.98689 0.00194,2.74556c0.37836,0.37642 0.87508,0.56657 1.37181,0.56657s0.99539,-0.19015 1.37375,-0.56851l8.81876,-8.8304l8.81876,8.8304c0.37836,0.37836 0.87703,0.56851 1.37375,0.56851s0.99344,-0.19015 1.37181,-0.56657c0.75866,-0.75866 0.75866,-1.98495 0.00194,-2.74556l-8.81294,-8.82264z" id="svg_43"/>
 </g>
</svg>