<svg width="100" height="100" xmlns="http://www.w3.org/2000/svg" id="Layer_1">
  <g>
   <path id="svg_2" d="m59.059,77.211c-0.246,0 -0.492,-0.041 -0.731,-0.123l-7.904,-2.719l-8.458,2.732c-0.548,0.18 -1.146,0.139 -1.673,-0.117l-5.142,-2.49l-5.137,2.49c-0.305,0.149 -0.642,0.227 -0.98,0.227l-11.723,0c-1.242,0 -2.25,-1.008 -2.25,-2.25l0,-29.227c0,-1.242 1.008,-2.25 2.25,-2.25s2.25,1.008 2.25,2.25l0,26.977l8.957,0l5.65,-2.74c0.615,-0.299 1.336,-0.301 1.963,0l5.309,2.57l8.314,-2.688c0.467,-0.148 0.964,-0.144 1.424,0.016l5.549,1.91l-0.668,-25.963c0,-12.994 8.471,-23.027 15.756,-23.027c1.242,0 2.25,1.008 2.25,2.25s-1.008,2.25 -2.25,2.25c-4.531,0 -11.256,7.754 -11.256,18.469l0.75,29.145c0.019,0.738 -0.324,1.438 -0.92,1.871c-0.39,0.287 -0.859,0.437 -1.33,0.437z"/>
   <path id="svg_3" d="m71.814,68.721c-1.242,0 -2.25,-1.008 -2.25,-2.25s1.008,-2.25 2.25,-2.25c4.166,0 8.625,-7.41 8.625,-18.438c0,-10.898 -4.547,-18.492 -8.625,-18.492l-43.348,0c-4.213,0 -8.905,7.576 -8.905,18.444c0,1.242 -1.009,2.25 -2.25,2.25c-1.242,0 -2.25,-1.008 -2.25,-2.25c0,-12.866 5.889,-22.944 13.405,-22.944l43.349,0c7.481,0 13.125,9.885 13.125,22.992c-0.001,13.076 -5.643,22.938 -13.126,22.938z"/>
   <path id="svg_4" d="m70.855,58.25c-2.732,0 -5.674,-3.121 -5.674,-9.973c0,-8.008 2.174,-12.979 5.674,-12.979c3.627,0 5.522,5.769 5.522,11.468c0.002,5.707 -1.895,11.484 -5.522,11.484zm-0.034,-17.605c-0.52,1.213 -1.14,3.597 -1.14,7.633c0,2.666 0.553,4.209 0.986,4.964c0.539,-1.107 1.21,-3.386 1.21,-6.476c0.002,-2.799 -0.552,-4.926 -1.056,-6.121z"/>
  </g>
</svg>