<svg id="Layer_1" xmlns="http://www.w3.org/2000/svg" xmlns:xlink="http://www.w3.org/1999/xlink" version="1.1" x="0px" y="13px" viewBox="0 0 100 125" enable-background="new 0 0 100 100" xml:space="preserve">

<g><path d="M59.059,77.211c-0.246,0-0.492-0.041-0.731-0.123l-7.904-2.719l-8.458,2.732c-0.548,0.18-1.146,0.139-1.673-0.117   l-5.142-2.49l-5.137,2.49c-0.305,0.149-0.642,0.227-0.98,0.227H17.311c-1.242,0-2.25-1.008-2.25-2.25V45.734   c0-1.242,1.008-2.25,2.25-2.25s2.25,1.008,2.25,2.25v26.977h8.957l5.65-2.74c0.615-0.299,1.336-0.301,1.963,0l5.309,2.57   l8.314-2.688c0.467-0.148,0.964-0.144,1.424,0.016l5.549,1.91l-0.668-25.963c0-12.994,8.471-23.027,15.756-23.027   c1.242,0,2.25,1.008,2.25,2.25s-1.008,2.25-2.25,2.25c-4.531,0-11.256,7.754-11.256,18.469l0.75,29.145   c0.019,0.738-0.324,1.438-0.92,1.871C59.999,77.061,59.53,77.211,59.059,77.211z"/><path d="M71.814,68.721c-1.242,0-2.25-1.008-2.25-2.25s1.008-2.25,2.25-2.25c4.166,0,8.625-7.41,8.625-18.438   c0-10.898-4.547-18.492-8.625-18.492H28.466c-4.213,0-8.905,7.576-8.905,18.444c0,1.242-1.009,2.25-2.25,2.25   c-1.242,0-2.25-1.008-2.25-2.25c0-12.866,5.889-22.944,13.405-22.944h43.349c7.481,0,13.125,9.885,13.125,22.992   C84.939,58.859,79.297,68.721,71.814,68.721z"/><path d="M70.855,58.25c-2.732,0-5.674-3.121-5.674-9.973c0-8.008,2.174-12.979,5.674-12.979c3.627,0,5.522,5.769,5.522,11.468   C76.379,52.473,74.482,58.25,70.855,58.25z M70.821,40.645c-0.52,1.213-1.14,3.597-1.14,7.633c0,2.666,0.553,4.209,0.986,4.964   c0.539-1.107,1.21-3.386,1.21-6.476C71.879,43.967,71.325,41.84,70.821,40.645z"/></g></svg>