<?xml version="1.0" encoding="utf-8"?>
<!-- Generator: Adobe Illustrator 17.1.0, SVG Export Plug-In . SVG Version: 6.00 Build 0)  -->
<!DOCTYPE svg PUBLIC "-//W3C//DTD SVG 1.1//EN" "http://www.w3.org/Graphics/SVG/1.1/DTD/svg11.dtd">
<svg version="1.1" id="Layer_1" xmlns="http://www.w3.org/2000/svg" xmlns:xlink="http://www.w3.org/1999/xlink" x="0px" y="0px"
	 viewBox="0 0 50 50" enable-background="new 0 0 50 50" xml:space="preserve">
<path d="M37.341,37.567c0.264,0,0.526-0.104,0.724-0.31c2.852-2.987,4.487-7.332,4.487-11.922c0-4.589-1.636-8.934-4.486-11.921
	c-0.381-0.399-1.016-0.414-1.414-0.033c-0.399,0.382-0.414,1.015-0.033,1.414c2.5,2.619,3.934,6.461,3.934,10.54
	c0,4.08-1.434,7.922-3.935,10.541c-0.381,0.399-0.366,1.032,0.033,1.414C36.844,37.476,37.093,37.567,37.341,37.567z"/>
<path d="M34.016,34.482c0.252,0,0.504-0.095,0.698-0.284c2.225-2.172,3.501-5.401,3.501-8.861c0-3.461-1.276-6.69-3.501-8.862
	c-0.395-0.385-1.027-0.378-1.414,0.018c-0.386,0.396-0.378,1.028,0.018,1.414c1.841,1.797,2.897,4.506,2.897,7.431
	s-1.057,5.633-2.897,7.43c-0.396,0.386-0.403,1.019-0.018,1.414C33.496,34.382,33.756,34.482,34.016,34.482z"/>
<path d="M30.084,29.571c-0.424,0.354-0.479,0.985-0.126,1.409c0.198,0.236,0.482,0.358,0.769,0.358c0.226,0,0.453-0.076,0.641-0.232
	c1.572-1.314,2.511-3.472,2.511-5.77c0-2.333-0.961-4.508-2.57-5.82c-0.428-0.35-1.058-0.282-1.407,0.144
	c-0.349,0.428-0.284,1.058,0.144,1.407c1.148,0.936,1.834,2.532,1.834,4.27C31.878,27.05,31.207,28.633,30.084,29.571z"/>
<path d="M24.03,12.536l-8.203,6.134h-4.275c-0.553,0-1,0.447-1,1v11.334c0,0.553,0.447,1,1,1h4.275l8.203,6.134
	c0.176,0.132,0.387,0.199,0.599,0.199c0.152,0,0.307-0.035,0.448-0.105c0.338-0.17,0.552-0.516,0.552-0.895v-24
	c0-0.379-0.214-0.725-0.552-0.895C24.739,12.275,24.332,12.31,24.03,12.536z M23.629,35.341l-6.87-5.138
	c-0.173-0.129-0.383-0.199-0.599-0.199h-3.608V20.67h3.608c0.216,0,0.426-0.07,0.599-0.199l6.87-5.138V35.341z"/>
</svg>
