<svg width="100" height="100" xmlns="http://www.w3.org/2000/svg" id="Layer_1">
  <g stroke="null" id="svg_5">
   <path stroke="null" id="svg_1" d="m15.887049,43.792209c8.492355,-9.736305 20.93186,-15.31016 34.089029,-15.31016c13.157169,0 25.572752,5.573855 34.089029,15.31016c0.478443,0.550209 1.148262,0.813352 1.794159,0.813352c0.550209,0 1.12434,-0.191377 1.57886,-0.598053c1.004729,-0.861197 1.100418,-2.36829 0.239221,-3.37302c-9.401395,-10.764957 -23.132696,-16.960787 -37.677348,-16.960787c-14.544652,0 -28.275953,6.171908 -37.677348,16.960787c-0.861197,1.004729 -0.765508,2.511823 0.239221,3.37302c0.932963,0.885119 2.440057,0.78943 3.325175,-0.215299z"/>
   <path stroke="null" id="svg_2" d="m74.137425,53.289293c0.478443,0.574131 1.172184,0.885119 1.865926,0.885119c0.526287,0 1.052574,-0.167455 1.507094,-0.526287c1.028651,-0.837274 1.172184,-2.344368 0.33491,-3.37302c-6.793884,-8.348822 -16.960787,-13.133247 -27.869276,-13.133247c-10.932411,0 -21.075393,4.784425 -27.869276,13.133247c-0.837274,1.028651 -0.66982,2.535745 0.33491,3.37302c1.028651,0.837274 2.535745,0.66982 3.37302,-0.33491c5.884843,-7.224482 14.688185,-11.36301 24.161347,-11.36301c9.473162,-0.047844 18.276504,4.114606 24.161347,11.339088z"/>
   <path stroke="null" id="svg_3" d="m63.970522,62.547156c0.765508,1.076496 2.24868,1.339639 3.325175,0.598053c1.076496,-0.765508 1.339639,-2.24868 0.598053,-3.325175c-4.042839,-5.813077 -10.764957,-9.257863 -17.941594,-9.257863c-7.296248,0 -14.06621,3.540475 -18.085127,9.473162c-0.741586,1.100418 -0.45452,2.58359 0.645897,3.325175c0.406676,0.287066 0.885119,0.406676 1.339639,0.406676c0.765508,0 1.531016,-0.358832 1.985536,-1.052574c3.133798,-4.61697 8.420588,-7.391937 14.137976,-7.391937c5.597777,0 10.860645,2.7032 13.994444,7.224482z"/>
   <ellipse stroke="null" id="svg_4" ry="4.712659" rx="4.784425" cy="71.613642" cx="49.952156"/>
  </g>
</svg>