<?xml version="1.0" encoding="utf-8"?>
<!-- Generator: Adobe Illustrator 17.1.0, SVG Export Plug-In . SVG Version: 6.00 Build 0)  -->
<!DOCTYPE svg PUBLIC "-//W3C//DTD SVG 1.1//EN" "http://www.w3.org/Graphics/SVG/1.1/DTD/svg11.dtd">
<svg version="1.1" id="Layer_1" xmlns="http://www.w3.org/2000/svg" xmlns:xlink="http://www.w3.org/1999/xlink" x="0px" y="0px"
	 viewBox="0 0 50 50" enable-background="new 0 0 50 50" xml:space="preserve">
<path d="M11.016,21.884c3.554-4.068,8.747-6.401,14.247-6.401c5.501,0,10.694,2.334,14.247,6.402
	c0.197,0.227,0.475,0.343,0.753,0.343c0.233,0,0.468-0.081,0.657-0.247c0.416-0.363,0.459-0.994,0.096-1.41
	c-3.933-4.505-9.674-7.088-15.753-7.088c-6.078,0-11.819,2.582-15.753,7.085c-0.363,0.416-0.321,1.048,0.095,1.411
	C10.021,22.343,10.653,22.3,11.016,21.884z"/>
<path d="M35.367,25.849c0.197,0.243,0.485,0.369,0.776,0.369c0.222,0,0.444-0.073,0.63-0.225c0.429-0.349,0.493-0.979,0.145-1.406
	c-2.84-3.491-7.089-5.493-11.655-5.493c-4.565,0-8.813,2.002-11.655,5.491c-0.349,0.429-0.284,1.059,0.144,1.407
	c0.43,0.351,1.061,0.283,1.407-0.144c2.46-3.021,6.144-4.755,10.104-4.755C29.225,21.094,32.908,22.827,35.367,25.849z"/>
<path d="M31.124,29.723c0.316,0.453,0.941,0.563,1.393,0.248c0.453-0.316,0.563-0.939,0.248-1.393
	c-1.693-2.426-4.497-3.874-7.502-3.874c-3.05,0-5.877,1.482-7.564,3.964c-0.311,0.457-0.191,1.079,0.265,1.39
	c0.173,0.117,0.368,0.173,0.562,0.173c0.32,0,0.635-0.153,0.828-0.438c1.314-1.935,3.523-3.089,5.91-3.089
	C27.614,26.704,29.806,27.833,31.124,29.723z"/>
<ellipse cx="25.263" cy="33.514" rx="2" ry="1.969"/>
</svg>
