<svg xmlns="http://www.w3.org/2000/svg" id="Layer_1" enable-background="new 0 0 374.8 128.5" viewBox="0 0 374.8 128.5">
  <style>
    .st1{fill:#fff}.st6{fill:#e88623}
  </style>
  <g id="busbud_engineering_logo">
    <g id="Page-1" transform="translate(46 8)">
      <g id="Group-3">
        <defs>
          <filter id="Adobe_OpacityMaskFilter" width="88.9" height="124" x="-43.1" y="-6.5" filterUnits="userSpaceOnUse">
            <feColorMatrix values="1 0 0 0 0 0 1 0 0 0 0 0 1 0 0 0 0 0 1 0"/>
          </filter>
        </defs>
        <mask id="mask-2" width="88.9" height="124" x="-43.1" y="-6.5" maskUnits="userSpaceOnUse">
          <g filter="url(#Adobe_OpacityMaskFilter)">
            <path id="path-1" d="M-43.1-6.5h369.9v124H-43.1" class="st1"/>
          </g>
        </mask>
        <path id="Fill-1" fill="#fbae19" d="M43.3 31.9L7.5-3.9c-3.4-3.4-8.9-3.4-12.3 0l-35.7 35.8c-3.4 3.4-3.4 8.9 0 12.3L-29 55.7l8.9 8.9 11.9 11.9 3.6 3.6c.3.3.7.6 1.1.9v31.4c0 2.9 2.3 5.2 5.2 5.2 2.9 0 5.2-2.3 5.2-5.2V84.5c-1.2.9-3.1 1.9-5.3 1.9-2.5 0-4.2-1.1-5.1-1.9v-3.7C-.6 83 3.7 83 6.7 80.6c.3-.2.6-.5.8-.7l3.9-3.9L23 64.4l8.1-8.1 12.2-12.2c3.4-3.3 3.4-8.8 0-12.2" mask="url(#mask-2)"/>
      </g>
      <path id="Fill-4" fill="#f89421" d="M6.7 80.6v3.9-3.9z"/>
      <g id="Group-8">
        <defs>
          <filter id="Adobe_OpacityMaskFilter_1_" width="40.1" height="71.1" x="286.6" y="23" filterUnits="userSpaceOnUse">
            <feColorMatrix values="1 0 0 0 0 0 1 0 0 0 0 0 1 0 0 0 0 0 1 0"/>
          </filter>
        </defs>
        <mask id="mask-4" width="40.1" height="71.1" x="286.6" y="23" maskUnits="userSpaceOnUse">
          <g filter="url(#Adobe_OpacityMaskFilter_1_)">
            <path id="path-3" d="M-43.1-6.5h369.9v124H-43.1" class="st1"/>
          </g>
        </mask>
        <path id="Fill-6" fill="#fff" d="M303 94.1c9.3 0 12.5-7.9 12.5-7.9V93h11.3V23h-11.3v28c0-1.2-4.3-7.5-12.2-7.5-11.3 0-16.6 10.5-16.6 26.5-.1 26.2 16.3 24.1 16.3 24.1m4-41.8s8.4-.9 8.4 16.2-8.2 16.9-8.2 16.9-8.7 1.8-8.7-16.7 8.5-16.4 8.5-16.4" mask="url(#mask-4)"/>
      </g>
      <path id="Fill-9" d="M254.1 94c11.7 0 14.6-10.3 14.6-10.3V93H280V44.7h-11.3v21c0 8.7-4.4 17.9-11.5 17.9-5.2 0-4.9-10.3-4.9-10.3V44.7h-11.2v33.2c0 5.3 1.3 16.1 13 16.1" class="st1"/>
      <path id="Fill-11" d="M213.9 94.1c12.7 0 20.3-6.6 20.3-25.4s-7.2-25.2-16.5-25.2-12.8 7.3-12.8 7.3V22.9h-11.3v49.8c.1 13.9 7.6 21.4 20.3 21.4m.1-43.4c4.1-.1 8.3 2.5 8.3 17.5s-3.9 18.2-8.3 18.2c-6.9 0-9.1-5.9-9.1-17.9-.1-11.9 4.4-17.8 9.1-17.8" class="st1"/>
      <path id="Fill-13" d="M85.6 94.1c12.7 0 20.3-6.6 20.3-25.4s-7.2-25.2-16.5-25.2-12.8 7.3-12.8 7.3V22.9H65.3v49.8c0 13.9 7.6 21.4 20.3 21.4m0-43.4c4.1-.1 8.3 2.5 8.3 17.5S90 86.4 85.6 86.4c-6.9 0-9.1-5.9-9.1-17.9 0-11.9 4.5-17.8 9.1-17.8" class="st1"/>
      <path id="Fill-15" d="M125.8 94c11.7 0 14.6-10.3 14.6-10.3V93h11.3V44.7h-11.3v21c0 8.7-4.4 17.9-11.5 17.9-5.2 0-4.9-10.3-4.9-10.3V44.7h-11.2v33.2c0 5.3 1.3 16.1 13 16.1" class="st1"/>
      <path id="Fill-17" d="M189.2 79.6c0-13.1-21.2-18.2-21.2-23.8 0-2.4 4.4-4.3 7.7-4.3 4.7 0 10.5 3.4 10.5 3.4v-9.5s-5.8-1.9-10.7-1.9c-4.2 0-17.4 1.2-17.4 14.1 0 13.1 20.7 18.3 20.7 23.7 0 2.1-2 4.1-8.7 4.1s-12.2-3-12.2-3V92s5.5 2 13 2 18.3-2.3 18.3-14.4" class="st1"/>
      <path id="Fill-19" d="M21.3 34.8C20.7 45.4 12 53.9 1.2 53.9s-19.5-8.5-20.1-19.1h-5.5c.3 13.8 11.5 25 25.4 25 13.9 0 25.2-11.1 25.4-25h-5.1z" class="st6"/>
      <path id="Fill-21" d="M6.7 80.6c-3 2.4-7.3 2.4-10.4.2v3.8c.9.8 2.6 1.9 5.1 1.9 2.2 0 4.1-1 5.3-1.9v-4" class="st6"/>
    </g>
  </g>
</svg>
