<svg xmlns="http://www.w3.org/2000/svg" version="1.1" xmlnsXlink="http://www.w3.org/1999/xlink"   viewBox="0 0 40 40" width="40" height="40"><g transform="matrix(1.6666666666666667,0,0,1.6666666666666667,0,0)"><path d="M2.250 6.000 A2.250 2.250 0 1 0 6.750 6.000 A2.250 2.250 0 1 0 2.250 6.000 Z" fill="none" stroke="#000000" stroke-linecap="round" stroke-linejoin="round" stroke-width="1.5"></path><path d="M4.5,9.75A3.75,3.75,0,0,0,.75,13.5v2.25h1.5l.75,6H6" fill="none" stroke="#000000" stroke-linecap="round" stroke-linejoin="round" stroke-width="1.5"></path><path d="M17.250 6.000 A2.250 2.250 0 1 0 21.750 6.000 A2.250 2.250 0 1 0 17.250 6.000 Z" fill="none" stroke="#000000" stroke-linecap="round" stroke-linejoin="round" stroke-width="1.5"></path><path d="M19.5,9.75a3.75,3.75,0,0,1,3.75,3.75v2.25h-1.5l-.75,6H18" fill="none" stroke="#000000" stroke-linecap="round" stroke-linejoin="round" stroke-width="1.5"></path><path d="M9.000 3.750 A3.000 3.000 0 1 0 15.000 3.750 A3.000 3.000 0 1 0 9.000 3.750 Z" fill="none" stroke="#000000" stroke-linecap="round" stroke-linejoin="round" stroke-width="1.5"></path><path d="M17.25,13.5a5.25,5.25,0,0,0-10.5,0v2.25H9l.75,7.5h4.5l.75-7.5h2.25Z" fill="none" stroke="#000000" stroke-linecap="round" stroke-linejoin="round" stroke-width="1.5"></path></g></svg>