<svg xmlns="http://www.w3.org/2000/svg" xmlns:xlink="http://www.w3.org/1999/xlink" version="1.1" x="0px" y="0px" viewBox="0 0 512 640" enable-background="new 0 0 512 512" xml:space="preserve">
<path d="M469,104.4H122.1c-32.1,0-62.2,12.5-84.9,35.2C14.5,162.3,2,192.4,2,224.5v101.1c0,22.6,18.4,41,41,41h33.5  c3.9,23.2,24.1,41,48.4,41c24.3,0,44.5-17.8,48.4-41h165.4c3.9,23.2,24.1,41,48.4,41c24.3,0,44.5-17.8,48.4-41H469  c22.6,0,41-18.4,41-41V145.4C510,122.8,491.6,104.4,469,104.4z M264.2,120.8h106.5v73.7H264.2V120.8z M133.1,120.8h114.7v73.7H133.1  V120.8z M18.4,224.5c0-27.7,10.8-53.7,30.4-73.3c18.3-18.3,42.3-28.8,67.9-30.1v122.6H18.4V224.5z M124.9,391.2  c-18.1,0-32.8-14.7-32.8-32.8c0-18.1,14.7-32.8,32.8-32.8c18.1,0,32.8,14.7,32.8,32.8C157.7,376.5,143,391.2,124.9,391.2z   M387.1,391.2c-18.1,0-32.8-14.7-32.8-32.8c0-18.1,14.7-32.8,32.8-32.8c18.1,0,32.8,14.7,32.8,32.8  C419.9,376.5,405.2,391.2,387.1,391.2z M493.6,325.6c0,13.6-11,24.6-24.6,24.6h-33.5c-3.9-23.2-24.1-41-48.4-41  c-24.3,0-44.5,17.8-48.4,41H173.3c-3.9-23.2-24.1-41-48.4-41c-24.3,0-44.5,17.8-48.4,41H43c-13.6,0-24.6-11-24.6-24.6v-65.5h114.7  v-49.2h360.5V325.6z M493.6,194.5H387.1v-73.7H469c13.6,0,24.6,11,24.6,24.6V194.5z"/>
</svg>