<svg xmlns="http://www.w3.org/2000/svg" viewBox="0 0 320 220">
  <defs>
    <pattern id="svgPattern" patternUnits="userSpaceOnUse" width="5" height="5" patternTransform="rotate(77)">
      <rect x='0' y='0' width='5' height='5' fill='#fff' stroke-width="0" />
      <line x1="0" y="0" x2="0" y2="9.5" stroke='#2a187f' stroke-width="2" />
    </pattern>
  </defs>
  <path fill='url(#svgPattern)' d="M17.2 38.2h-5.7c-.5 0-.8-.1-1-.3-.3-.3-.4-.6-.4-1.1V12c0-.5.1-.8.3-1.1.2-.2.6-.3 1-.3h6.1c.4 0 .7.1 1 .3.4.2.6.5.9.9l3.4 6.2c.1.2.2.4.3.5.1.1.2.2.4.2h.3c.2 0 .3 0 .4-.2.1-.1.2-.3.3-.5l3.4-6.2c.2-.4.5-.7.7-.9.3-.2.6-.3 1-.3h6.2c.5 0 .8.1 1 .3s.3.6.3 1.1v24.7c0 .5-.1.8-.3 1.1-.2.2-.6.3-1 .3h-5.9c-.5 0-.8-.1-1.1-.3-.2-.2-.3-.6-.3-1.1V23.3l-2.3 4.2c-.2.4-.5.7-.8.9-.3.2-.7.3-1.2.3h-1.5c-.5 0-.9-.1-1.2-.3-.3-.2-.6-.5-.8-.9l-2.3-4.2v13.4c0 .5-.1.8-.3 1.1-.1.3-.5.4-.9.4zm37.8 0h-6.2c-.5 0-.8-.1-1.1-.3-.2-.2-.3-.6-.3-1.1v-4.9l-5.8-7.8c-.6-.8-1-1.5-1.2-2.1s-.3-1.5-.3-2.6V12c0-.5.1-.8.3-1.1.2-.2.6-.3 1.1-.3h5.9c.5 0 .8.1 1.1.3.2.2.3.6.3 1.1v7.1c0 .3.1.5.3.8l1.8 2.7c.1.2.3.4.4.5.1.1.3.2.5.2h.4c.2 0 .4-.1.5-.2.1-.1.3-.3.4-.5l1.8-2.7c.2-.2.3-.5.3-.8V12c0-.5.1-.8.3-1.1.2-.2.6-.3 1.1-.3h5.7c.5 0 .8.1 1.1.3.2.2.3.6.3 1.1v7.3c0 1.2-.1 2-.3 2.6-.2.6-.6 1.3-1.1 2.1l-5.8 7.9v4.8c0 .5-.1.8-.3 1.1-.3.3-.7.4-1.2.4zm34.3 0H74.8c-.5 0-.8-.1-1-.3-.2-.2-.3-.6-.3-1.1V12c0-.5.1-.8.3-1.1.2-.2.6-.3 1-.3H87c2.5 0 4.3.5 5.5 1.4 1.2 1 1.8 2.4 1.8 4.4v1.8c0 1.1-.2 1.9-.6 2.6-.4.7-.9 1.2-1.7 1.5 1.6.2 2.8.7 3.6 1.7.8 1 1.2 2.4 1.2 4.2v3.5c0 2.1-.6 3.7-1.8 4.7-1.3 1.3-3.1 1.8-5.7 1.8zm-7.3-21v4.1h3.2c.5 0 .8-.1 1.1-.4.2-.3.4-.6.4-1.1v-1.1c0-.5-.1-.9-.4-1.1-.2-.3-.6-.4-1.1-.4H82zm0 10v4.5h5c.5 0 .8-.1 1.1-.4.2-.3.4-.6.4-1.1v-1.5c0-.5-.1-.9-.4-1.1-.2-.2-.6-.4-1.1-.4h-5zm41 3.7c0 1.2-.2 2.2-.5 3.2s-1 1.8-1.8 2.4c-.9.7-2.1 1.2-3.6 1.6-1.5.4-3.5.6-5.8.6-2.4 0-4.3-.2-5.8-.6-1.5-.4-2.7-.9-3.6-1.6-.9-.7-1.5-1.5-1.8-2.4-.3-1-.5-2-.5-3.2V12c0-.5.1-.8.3-1.1.2-.2.6-.3 1.1-.3h6c.5 0 .8.1 1.1.3.2.2.3.6.3 1.1v17.4c0 .5.2.9.6 1.3.4.3 1.2.5 2.6.5 1.3 0 2.2-.2 2.6-.5s.6-.8.6-1.3V12c0-.5.1-.8.3-1.1.2-.2.6-.3 1.1-.3h5.8c.5 0 .8.1 1.1.3.2.2.3.6.3 1.1l-.4 18.9zm16.4 7.3h-12.1c-.5 0-.8-.1-1.1-.3-.2-.2-.3-.6-.3-1.1v-4.5c0-.5.1-.8.3-1.1.2-.2.6-.3 1.1-.3h10.3c.3 0 .6-.1.7-.3.2-.2.2-.5.2-.8 0-.4-.1-.8-.2-1-.2-.2-.4-.3-.7-.3l-5.7-.8c-1.8-.3-3.2-.8-4.3-1.8-1.1-.9-1.6-2.4-1.6-4.6v-4c0-2.2.7-3.8 2.1-5 1.4-1.2 3.3-1.7 5.8-1.7h10.7c.5 0 .8.1 1.1.3.2.2.3.6.3 1.1v4.5c0 .5-.1.8-.3 1-.2.2-.6.3-1.1.3h-8.9c-.3 0-.6.1-.8.3-.2.2-.3.5-.3.8 0 .3.1.6.3.8.2.2.4.4.8.4l5.7.8c1.8.3 3.2.8 4.3 1.8 1.1.9 1.6 2.4 1.6 4.6v4c0 2.2-.7 3.8-2.1 5-1.4 1.3-3.4 1.9-5.8 1.9zm25.1 0h-5.9c-.5 0-.8-.1-1-.3-.2-.2-.3-.6-.3-1.1V12c0-.5.1-.8.3-1.1.2-.2.6-.3 1-.3h12.7c2.9 0 4.8.6 5.9 1.8s1.6 2.7 1.6 4.6v1.8c0 1.1-.2 2-.5 2.7-.3.8-.9 1.3-1.7 1.6 1.4.2 2.5.7 3.3 1.7.9 1 1.3 2.3 1.3 3.9v8.1c0 .5-.1.8-.3 1.1-.2.2-.6.3-1.1.3H174c-.5 0-.8-.1-1.1-.3-.2-.2-.3-.6-.3-1.1V31c0-.6-.1-1-.3-1.2-.2-.3-.6-.4-1.1-.4h-5.3v7.5c0 .5-.1.8-.3 1.1-.3.1-.7.2-1.1.2zm1.3-20.7v4.9h2.9c.7 0 1.1-.2 1.3-.5.2-.3.3-.8.3-1.3v-1.3c0-.5-.1-.9-.3-1.3-.2-.3-.7-.5-1.3-.5h-2.9zm19.1 20.7c-.5 0-.8-.1-1.1-.3-.2-.2-.3-.6-.3-1.1v-4.5c0-.5.1-.8.3-1.1.2-.2.6-.3 1.1-.3h3.8V18h-3.8c-.5 0-.8-.1-1.1-.3-.2-.2-.3-.6-.3-1.1V12c0-.5.1-.8.3-1.1.2-.2.6-.3 1.1-.3h16.3c.5 0 .8.1 1 .3.2.2.3.6.3 1.1v4.6c0 .5-.1.8-.3 1.1-.2.2-.6.3-1 .3h-3.7v12.8h3.7c.5 0 .8.1 1 .3.2.2.3.6.3 1.1v4.5c0 .5-.1.8-.3 1.1-.2.2-.6.3-1 .3l-16.3.1c0-.1 0 0 0 0zm35.2 0h-12.9c-.5 0-.8-.1-1-.3s-.3-.6-.3-1.1V12c0-.5.1-.8.3-1.1.2-.2.6-.3 1-.3h12.9c3.2 0 5.5.6 7.1 1.9 1.5 1.3 2.3 3.2 2.3 5.9v11.9c0 2.6-.8 4.6-2.3 5.9-1.6 1.3-3.9 2-7.1 2zM214.5 18v13h4.5c.6 0 1.1-.2 1.4-.5.3-.3.4-.8.4-1.4v-9.3c0-.6-.1-1.1-.4-1.4-.3-.3-.7-.4-1.4-.4h-4.5zm37.4 20.2h-17.7c-.5 0-.8-.1-1-.3-.2-.2-.3-.6-.3-1.1V12c0-.5.1-.8.3-1.1.2-.2.6-.3 1-.3h17.7c.5 0 .8.1 1.1.3.2.2.3.6.3 1.1v4.5c0 .5-.1.8-.3 1.1-.2.2-.6.3-1.1.3h-10.5v2.9h7.4c.5 0 .8.1 1.1.3.2.2.3.6.3 1.1v4.1c0 .5-.1.8-.3 1.1-.2.2-.6.3-1.1.3h-7.4V31h10.5c.5 0 .8.1 1.1.3.2.2.3.6.3 1.1v4.5c0 .5-.1.8-.3 1.1-.3.1-.6.2-1.1.2zm24.3 0H270c-.5 0-.8-.1-1.1-.3-.2-.2-.3-.6-.3-1.1V18H263c-.5 0-.8-.1-1.1-.3-.2-.2-.3-.6-.3-1.1V12c0-.5.1-.8.3-1.1.2-.2.6-.3 1.1-.3h20.2c.5 0 .8.1 1.1.3.2.2.3.6.3 1.1v4.6c0 .5-.1.8-.3 1.1-.2.2-.6.3-1.1.3h-5.6v18.7c0 .5-.1.8-.3 1.1-.3.3-.7.4-1.1.4zm33.7-7.3c0 1.2-.2 2.2-.5 3.2s-1 1.8-1.8 2.4c-.9.7-2.1 1.2-3.6 1.6s-3.5.6-5.9.6c-2.4 0-4.3-.2-5.9-.6s-2.8-.9-3.6-1.6c-.9-.7-1.5-1.5-1.8-2.4-.3-1-.5-2-.5-3.2v-13c0-1.2.2-2.2.5-3.2s1-1.8 1.8-2.5c.9-.7 2.1-1.2 3.6-1.6 1.6-.4 3.5-.6 5.9-.6 2.4 0 4.3.2 5.9.6 1.5.4 2.7.9 3.6 1.6.9.7 1.5 1.5 1.8 2.5.3 1 .5 2 .5 3.2v13zm-15-1.3c0 .5.2.9.6 1.3.4.4 1.3.5 2.6.5 1.4 0 2.3-.2 2.6-.5.4-.3.6-.8.6-1.3V19.3c0-.5-.2-.9-.6-1.2-.4-.3-1.3-.5-2.6-.5-1.4 0-2.3.2-2.6.5-.4.3-.6.8-.6 1.2v10.3zm-244.6 46c0 2-.3 3.8-.9 5.4-.6 1.6-1.6 3-3.1 4.1-1.5 1.1-3.5 2-6.2 2.7-2.6.6-5.9 1-9.9 1s-7.3-.3-10-1c-2.6-.6-4.7-1.5-6.2-2.7-1.4-1.1-2.4-2.4-3-4.1-.6-1.6-.9-3.4-.9-5.4v-22c0-2 .3-3.8.9-5.4.6-1.6 1.6-3 3.1-4.2s3.5-2.1 6.2-2.7c2.6-.6 6-1 10-1s7.3.3 9.9 1c2.6.6 4.7 1.6 6.2 2.7 1.5 1.2 2.5 2.6 3.1 4.2.6 1.6.9 3.4.9 5.4l-.1 22zm-25.5-2.3c0 .9.3 1.6 1 2.2.6.6 2.1.9 4.5.9 2.3 0 3.8-.3 4.5-.9.6-.6 1-1.3 1-2.2V56c0-.8-.3-1.5-1-2.1-.6-.6-2.1-.9-4.5-.9-2.3 0-3.8.3-4.5.9-.6.6-1 1.3-1 2.1v17.3zm53 14.6H57.3c-.8 0-1.4-.2-1.8-.6-.4-.4-.6-1-.6-1.8V78c0-.8.2-1.4.6-1.8.4-.4 1-.6 1.8-.6h17.4c.6 0 1-.2 1.3-.6.3-.4.4-.8.4-1.3 0-.7-.1-1.3-.4-1.6-.3-.3-.7-.5-1.3-.6L65 70.1c-3-.4-5.5-1.4-7.3-3-1.8-1.6-2.8-4.1-2.8-7.8v-6.8c0-3.7 1.2-6.5 3.6-8.5 2.4-2 5.7-2.9 9.8-2.9h18.1c.8 0 1.4.2 1.8.6.4.4.6 1 .6 1.8v7.7c0 .8-.2 1.4-.6 1.8-.4.4-1 .6-1.8.6h-15c-.6 0-1 .2-1.3.6-.3.4-.5.8-.5 1.4s.2 1 .5 1.4c.3.4.7.6 1.3.6L81 59c3 .4 5.5 1.4 7.3 3 1.9 1.6 2.8 4.1 2.8 7.8v6.8c0 3.7-1.2 6.5-3.6 8.4-2.4 1.9-5.6 2.9-9.7 2.9zm30.3 0H98c-.8 0-1.4-.2-1.8-.6s-.6-1-.6-1.8v-42c0-.8.2-1.4.6-1.8.4-.4 1-.6 1.8-.6h10c.8 0 1.4.2 1.8.6s.5 1 .5 1.8v14h10.8v-14c0-.8.2-1.4.6-1.8.4-.4 1-.6 1.8-.6h10c.8 0 1.4.2 1.8.6s.5 1 .5 1.8v42c0 .8-.2 1.4-.5 1.8-.4.4-1 .6-1.8.6h-10c-.8 0-1.4-.2-1.8-.6s-.6-1-.6-1.8V71.2h-10.8v14.4c0 .8-.2 1.4-.5 1.8-.3.3-.9.5-1.7.5zm66.7 0h-30c-.8 0-1.4-.2-1.8-.6s-.6-1-.6-1.8v-42c0-.8.2-1.4.6-1.8.4-.4 1-.6 1.8-.6h30c.8 0 1.4.2 1.8.6.4.4.5 1 .5 1.8v7.6c0 .8-.2 1.4-.5 1.8-.4.4-1 .6-1.8.6H157v5h12.6c.8 0 1.4.2 1.8.6s.6 1 .6 1.8v6.9c0 .8-.2 1.4-.6 1.8-.4.4-1 .6-1.8.6H157v5.6h17.9c.8 0 1.4.2 1.8.6s.5 1 .5 1.8v7.6c0 .8-.2 1.4-.5 1.8-.5.1-1.1.3-1.9.3zm20.8-2.4c0 .8-.2 1.4-.6 1.8s-1 .6-1.8.6h-9.5c-.8 0-1.4-.2-1.8-.6-.4-.4-.6-1-.6-1.8V68.4c0-1.3.2-2.8.6-4.5s1-3.6 1.9-5.9l5.6-14.7c.3-.7.7-1.3 1.2-1.6s1.2-.5 2.1-.5h17.4c.8 0 1.5.2 2 .5s.9.9 1.2 1.6l5.6 14.7c.9 2.2 1.5 4.2 1.9 5.9.4 1.7.6 3.2.6 4.5v17.1c0 .8-.2 1.4-.6 1.8-.4.4-1 .6-1.8.6h-9.8c-.9 0-1.5-.2-1.9-.6-.4-.4-.6-1-.6-1.8v-9.1h-11.5l.4 9.1zm3.7-30.5l-3 9.8h10.2l-3-9.8c-.2-.4-.4-.7-.6-.8-.2-.2-.4-.3-.7-.3h-1.6c-.3 0-.5.1-.7.3-.2.1-.4.4-.6.8zm63.5 32.9h-20.4c-5.4 0-9.4-1.1-12-3.2-2.6-2.2-3.9-5.5-3.9-10V54.6c0-4.5 1.3-7.8 3.9-10s6.6-3.2 12-3.2h16.2c.8 0 1.4.2 1.8.6.4.4.6 1 .6 1.8v7.8c0 .8-.2 1.4-.6 1.8-.4.4-1 .5-1.8.5h-13.5c-1.3 0-2.3.3-3 .8-.7.5-1 1.3-1 2.4v15.5c0 1.1.2 1.9.7 2.4.5.5 1.2.8 2.2.8h6.3V65.5c0-.8.2-1.4.5-1.8.4-.4 1-.5 1.8-.5h10c.8 0 1.4.2 1.8.5.4.4.6 1 .6 1.8v20c0 .8-.2 1.4-.6 1.8-.2.4-.8.6-1.6.6zm21-2.4c0 .8-.2 1.4-.6 1.8-.4.4-1 .6-1.8.6h-9.5c-.8 0-1.4-.2-1.8-.6-.4-.4-.6-1-.6-1.8V68.4c0-1.3.2-2.8.6-4.5.4-1.7 1-3.6 1.9-5.9l5.6-14.7c.3-.7.7-1.3 1.2-1.6s1.2-.5 2.1-.5h17.4c.8 0 1.5.2 2 .5s.9.9 1.2 1.6l5.6 14.7c.9 2.2 1.5 4.2 1.9 5.9s.6 3.2.6 4.5v17.1c0 .8-.2 1.4-.6 1.8s-1 .6-1.8.6h-9.8c-.9 0-1.5-.2-1.9-.6-.4-.4-.6-1-.6-1.8v-9.1h-11.5l.4 9.1zm3.7-30.5l-3 9.8h10.2l-3-9.8c-.2-.4-.4-.7-.6-.8-.2-.2-.4-.3-.7-.3h-1.6c-.3 0-.5.1-.7.3-.2.1-.4.4-.6.8zM71 176.6H14.4c-1.5 0-2.6-.3-3.3-1s-1-1.8-1-3.3V152c0-4.6.5-8.4 1.4-11.4s2.2-5.4 3.9-7.3 3.6-3.4 5.9-4.5c2.3-1.1 4.8-2.1 7.5-2.9l15.9-5c1.3-.3 2.1-.8 2.6-1.4.4-.6.7-1.6.7-2.9 0-1.2-.2-2-.7-2.4-.5-.4-1.3-.7-2.5-.7H18.9c-1.5 0-2.6-.3-3.3-1-.7-.7-1-1.8-1-3.3V95.4c0-1.5.3-2.6 1-3.3.7-.7 1.8-1 3.3-1H54c6.7 0 11.9 1.7 15.5 5.1 3.6 3.4 5.4 8.3 5.4 14.7V122c0 5.9-1.7 10.5-5 13.7-3.3 3.2-7.8 5.6-13.6 7.4l-16.2 5.1c-1.2.3-2 .7-2.4 1.1-.4.4-.7 1.2-.7 2.5v2.5h33.9c1.5 0 2.6.3 3.3 1 .7.7 1 1.8 1 3.3v13.9c0 1.5-.3 2.6-1 3.3-.6.5-1.7.8-3.2.8zm85.4-22.3c0 3.6-.5 7-1.5 9.9-1 3-2.9 5.5-5.6 7.6-2.7 2.1-6.4 3.7-11.1 4.9-4.7 1.2-10.7 1.8-18 1.8s-13.3-.6-18-1.8c-4.7-1.2-8.4-2.8-11.1-4.9-2.7-2.1-4.6-4.6-5.7-7.6s-1.6-6.3-1.6-9.9v-40.5c0-3.6.5-7 1.6-9.9 1.1-3 3-5.5 5.7-7.7 2.7-2.1 6.4-3.8 11.1-5s10.7-1.8 18-1.8 13.3.6 18 1.8c4.7 1.2 8.4 2.9 11.1 5 2.7 2.1 4.6 4.7 5.6 7.7s1.5 6.3 1.5 9.9v40.5zm-45.8-4.3c0 1.6.6 2.9 1.7 4s3.7 1.6 7.8 1.6c4 0 6.6-.5 7.8-1.6 1.2-1.1 1.7-2.4 1.7-4v-32c0-1.5-.6-2.8-1.7-3.9s-3.7-1.6-7.8-1.6c-4 0-6.6.5-7.8 1.6-1.2 1.1-1.7 2.4-1.7 3.9v32zm113.9 26.6h-56.6c-1.5 0-2.6-.3-3.3-1-.7-.7-1-1.8-1-3.3V152c0-4.6.5-8.4 1.4-11.4.9-3 2.2-5.4 3.9-7.3 1.7-1.9 3.6-3.4 5.9-4.5 2.3-1.1 4.8-2.1 7.5-2.9l15.9-5c1.3-.3 2.1-.8 2.6-1.4.4-.6.7-1.6.7-2.9 0-1.2-.2-2-.7-2.4-.5-.4-1.3-.7-2.5-.7h-25.8c-1.5 0-2.6-.3-3.3-1-.7-.7-1-1.8-1-3.3V95.4c0-1.5.3-2.6 1-3.3.7-.7 1.8-1 3.3-1h35.1c6.7 0 11.9 1.7 15.5 5.1 3.6 3.4 5.4 8.3 5.4 14.7V122c0 5.9-1.7 10.5-5 13.7-3.3 3.2-7.8 5.6-13.6 7.4l-16.2 5.1c-1.2.3-2 .7-2.4 1.1-.4.4-.7 1.2-.7 2.5v2.5h33.9c1.5 0 2.6.3 3.3 1 .7.7 1 1.8 1 3.3v13.9c0 1.5-.3 2.6-1 3.3-.7.5-1.8.8-3.3.8zm85.4-22.3c0 3.6-.5 7-1.5 9.9-1 3-2.9 5.5-5.6 7.6-2.7 2.1-6.4 3.7-11.1 4.9-4.7 1.2-10.7 1.8-18 1.8s-13.3-.6-18-1.8c-4.7-1.2-8.4-2.8-11.1-4.9-2.7-2.1-4.6-4.6-5.7-7.6-1.1-3-1.6-6.3-1.6-9.9v-40.5c0-3.6.5-7 1.6-9.9 1.1-3 3-5.5 5.7-7.7 2.7-2.1 6.4-3.8 11.1-5s10.7-1.8 18-1.8 13.3.6 18 1.8c4.7 1.2 8.4 2.9 11.1 5s4.6 4.7 5.6 7.7 1.5 6.3 1.5 9.9v40.5zm-45.8-4.3c0 1.6.6 2.9 1.7 4s3.7 1.6 7.8 1.6c4 0 6.6-.5 7.8-1.6 1.2-1.1 1.7-2.4 1.7-4v-32c0-1.5-.6-2.8-1.7-3.9s-3.7-1.6-7.8-1.6c-4 0-6.6.5-7.8 1.6-1.2 1.1-1.7 2.4-1.7 3.9v32zM16.2 207.1h-5c-.4 0-.7-.1-.9-.3-.2-.2-.3-.5-.3-.9v-20.6c0-.4.1-.7.3-.9.2-.2.5-.3.9-.3h14.2c.4 0 .7.1.9.3s.3.5.3.9v3.8c0 .4-.1.7-.3.9-.2.2-.5.3-.9.3h-8.1v3.3h5.5c.4 0 .7.1.9.3.2.2.3.5.3.9v3.8c0 .4-.1.7-.3.9-.2.2-.5.3-.9.3h-5.5v6.2c0 .4-.1.7-.3.9-.1.1-.4.2-.8.2zm18.4 0h-4.9c-.4 0-.7-.1-.9-.3-.2-.2-.3-.5-.3-.9v-20.6c0-.4.1-.7.3-.9.2-.2.5-.3.9-.3h10.6c2.4 0 4 .5 4.9 1.5.9 1 1.3 2.3 1.3 3.8v1.5c0 .9-.1 1.6-.4 2.3-.3.6-.7 1.1-1.4 1.3 1.1.1 2.1.6 2.8 1.4.7.8 1.1 1.9 1.1 3.2v6.7c0 .4-.1.7-.3.9s-.5.3-.9.3h-4.9c-.4 0-.7-.1-.9-.3-.2-.2-.3-.5-.3-.9v-4.9c0-.5-.1-.8-.3-1-.2-.2-.5-.3-.9-.3h-4.4v6.2c0 .4-.1.7-.3.9-.2.2-.4.4-.8.4zm1.1-17.1v4.1h2.4c.5 0 .9-.1 1.1-.4.2-.3.3-.6.3-1.1v-1.1c0-.4-.1-.8-.3-1.1-.2-.3-.6-.4-1.1-.4h-2.4zm34.4 11.1c0 1-.1 1.9-.4 2.6-.3.8-.8 1.5-1.5 2-.7.6-1.7 1-3 1.3-1.3.3-2.9.5-4.9.5s-3.6-.2-4.9-.5c-1.3-.3-2.3-.8-3-1.3-.7-.6-1.2-1.2-1.5-2-.3-.8-.4-1.7-.4-2.6v-10.8c0-1 .1-1.9.4-2.6.3-.8.8-1.5 1.5-2 .7-.6 1.7-1 3-1.3s2.9-.5 4.9-.5 3.6.2 4.9.5c1.3.3 2.3.8 3 1.3.7.6 1.2 1.3 1.5 2 .3.8.4 1.7.4 2.6v10.8zM57.6 200c0 .4.2.8.5 1.1.3.3 1 .4 2.2.4 1.1 0 1.9-.1 2.2-.4.3-.3.5-.6.5-1.1v-8.5c0-.4-.2-.7-.5-1-.3-.3-1-.4-2.2-.4-1.1 0-1.9.1-2.2.4s-.5.6-.5 1v8.5zm21.3 7.1h-4.8c-.4 0-.7-.1-.9-.3-.2-.2-.3-.5-.3-.9v-20.6c0-.4.1-.7.3-.9s.5-.3.9-.3h5.1c.3 0 .6.1.8.2s.4.4.6.7l2.9 5.2c.1.2.2.3.3.4.1.1.2.1.3.1h.3c.1 0 .2 0 .3-.1.1-.1.2-.2.3-.4l2.8-5.2c.2-.3.4-.6.6-.7.2-.1.5-.2.8-.2h5.1c.4 0 .7.1.9.3.2.2.3.5.3.9v20.6c0 .4-.1.7-.3.9-.2.2-.5.3-.9.3h-4.9c-.4 0-.7-.1-.9-.3-.2-.2-.3-.5-.3-.9v-11.2l-1.9 3.5c-.2.4-.4.6-.7.8s-.6.2-1 .2h-1.3c-.4 0-.7-.1-1-.2-.3-.2-.5-.4-.7-.8l-1.9-3.5v11.2c0 .4-.1.7-.3.9-.2.2-.1.3-.5.3zm37.6 2.9h-4.9c-.4 0-.7-.1-.9-.3-.2-.2-.3-.5-.3-.9v-1.7c-2.5-.4-4.1-1.1-5-2.2-.9-1.1-1.3-2.5-1.3-4v-10.5c0-1 .1-1.9.4-2.6.3-.8.8-1.5 1.5-2 .7-.6 1.7-1 3-1.3 1.3-.3 2.9-.5 4.9-.5 2 0 3.6.2 4.9.5 1.3.3 2.3.8 3 1.3.7.6 1.2 1.3 1.5 2 .3.8.4 1.7.4 2.6v10.5c0 .8-.1 1.5-.3 2.2-.2.7-.5 1.3-1 1.8s-1.1 1-1.9 1.4c-.8.4-1.8.7-3.1.8v1.7c0 .4-.1.7-.3.9.1.2-.2.3-.6.3zm-5-9.9c0 .4.2.8.5 1.1s1 .4 2.2.4c1.1 0 1.9-.1 2.2-.4.3-.3.5-.6.5-1.1v-8.7c0-.4-.2-.7-.5-1-.3-.3-1-.4-2.2-.4-1.1 0-1.9.1-2.2.4-.3.3-.5.6-.5 1v8.7zm34.8 1c0 1-.1 1.9-.4 2.6-.3.8-.8 1.5-1.5 2-.7.6-1.7 1-3 1.3-1.3.3-2.9.5-4.9.5s-3.6-.2-4.9-.5c-1.3-.3-2.3-.8-3-1.3-.7-.6-1.2-1.2-1.5-2-.3-.8-.4-1.7-.4-2.6v-15.7c0-.4.1-.7.3-.9.2-.2.5-.3.9-.3h5c.4 0 .7.1.9.3.2.2.3.5.3.9v14.5c0 .4.2.8.5 1.1.3.3 1 .4 2.1.4s1.8-.1 2.2-.4c.3-.3.5-.6.5-1.1v-14.5c0-.4.1-.7.3-.9.2-.2.5-.3.9-.3h4.8c.4 0 .7.1.9.3.2.2.3.5.3.9v15.7h-.3zm18.9 6h-14.7c-.4 0-.7-.1-.9-.3-.2-.2-.3-.5-.3-.9v-20.6c0-.4.1-.7.3-.9.2-.2.5-.3.9-.3h14.7c.4 0 .7.1.9.3.2.2.3.5.3.9v3.7c0 .4-.1.7-.3.9-.2.2-.5.3-.9.3h-8.8v2.4h6.2c.4 0 .7.1.9.3.2.2.3.5.3.9v3.4c0 .4-.1.7-.3.9s-.5.3-.9.3h-6.2v2.7h8.8c.4 0 .7.1.9.3.2.2.3.5.3.9v3.7c0 .4-.1.7-.3.9-.2.1-.5.2-.9.2zm-1.3-25.3l-11.1 1.4c-.4 0-.6 0-.8-.2s-.3-.5-.3-.8v-3c0-.4.1-.7.3-.8.2-.2.5-.3.9-.3l11.1-1.4c.4 0 .6 0 .8.2.2.2.3.5.3.8v3c0 .4-.1.7-.3.8-.2.2-.5.3-.9.3zm18.3 25.3H170c-.4 0-.7-.1-.9-.3-.2-.2-.3-.5-.3-.9v-20.6c0-.4.1-.7.3-.9.2-.2.5-.3.9-.3h10.1c2.1 0 3.6.4 4.6 1.2 1 .8 1.5 2 1.5 3.7v1.5c0 .9-.2 1.6-.5 2.2-.3.6-.8 1-1.4 1.3 1.4.1 2.4.6 3 1.4.7.8 1 2 1 3.5v2.9c0 1.8-.5 3.1-1.5 3.9-.9 1-2.5 1.4-4.6 1.4zm-6.2-17.4v3.4h2.7c.4 0 .7-.1.9-.3.2-.2.3-.5.3-1v-.9c0-.4-.1-.7-.3-1-.2-.2-.5-.3-.9-.3l-2.7.1zm0 8.3v3.7h4.1c.4 0 .7-.1.9-.3.2-.2.3-.5.3-1v-1.2c0-.4-.1-.7-.3-.9-.2-.2-.5-.3-.9-.3H176zm30.6 9.1h-14.7c-.4 0-.7-.1-.9-.3-.2-.2-.3-.5-.3-.9v-20.6c0-.4.1-.7.3-.9.2-.2.5-.3.9-.3h14.7c.4 0 .7.1.9.3.2.2.3.5.3.9v3.7c0 .4-.1.7-.3.9-.2.2-.5.3-.9.3h-8.8v2.4h6.2c.4 0 .7.1.9.3.2.2.3.5.3.9v3.4c0 .4-.1.7-.3.9s-.5.3-.9.3h-6.2v2.7h8.8c.4 0 .7.1.9.3.2.2.3.5.3.9v3.7c0 .4-.1.7-.3.9-.2.1-.5.2-.9.2zm18.7 0h-7.7c-2.6 0-4.6-.5-5.9-1.6-1.3-1.1-1.9-2.7-1.9-4.9v-9.9c0-2.2.6-3.8 1.9-4.9 1.3-1.1 3.2-1.6 5.9-1.6h7.7c.4 0 .7.1.9.3.2.2.3.5.3.9v3.8c0 .4-.1.7-.3.9-.2.2-.5.3-.9.3h-6.4c-.7 0-1.1.1-1.5.4-.3.3-.5.7-.5 1.2v7.6c0 .5.2.9.5 1.2.3.2.8.4 1.5.4h6.4c.4 0 .7.1.9.3.2.2.3.5.3.9v3.8c0 .4-.1.7-.3.9-.2.2-.5 0-.9 0zm24.6 0h-7.7c-2.6 0-4.6-.5-5.9-1.6s-1.9-2.7-1.9-4.9v-9.9c0-2.2.6-3.8 1.9-4.9 1.3-1.1 3.2-1.6 5.9-1.6h7.7c.4 0 .7.1.9.3.2.2.3.5.3.9v3.8c0 .4-.1.7-.3.9s-.5.3-.9.3h-6.4c-.7 0-1.1.1-1.5.4-.3.3-.5.7-.5 1.2v7.6c0 .5.2.9.5 1.2.3.2.8.4 1.5.4h6.4c.4 0 .7.1.9.3.2.2.3.5.3.9v3.8c0 .4-.1.7-.3.9s-.5 0-.9 0zm4.2 0c-.4 0-.7-.1-.9-.3-.2-.2-.3-.5-.3-.9v-3.8c0-.4.1-.7.3-.9s.5-.3.9-.3h3.1v-10.7h-3.1c-.4 0-.7-.1-.9-.3s-.3-.5-.3-.9v-3.8c0-.4.1-.7.3-.9.2-.2.5-.3.9-.3h13.5c.4 0 .7.1.9.3.2.2.3.5.3.9v3.8c0 .4-.1.7-.3.9-.2.2-.5.3-.9.3h-3.1v10.7h3.1c.4 0 .7.1.9.3.2.2.3.5.3.9v3.8c0 .4-.1.7-.3.9-.2.2-.5.3-.9.3h-13.5zm28.2 0h-5.1c-.4 0-.7-.1-.9-.3-.2-.2-.3-.5-.3-.9v-15.6h-4.7c-.4 0-.7-.1-.9-.3s-.3-.5-.3-.9v-3.8c0-.4.1-.7.3-.9.2-.2.5-.3.9-.3h16.8c.4 0 .7.1.9.3.2.2.3.5.3.9v3.8c0 .4-.1.7-.3.9-.2.2-.5.3-.9.3h-4.7v15.6c0 .4-.1.7-.3.9-.2.2-.4.3-.8.3zm20.4 0h-5.1c-.4 0-.7-.1-.9-.3-.2-.2-.3-.5-.3-.9v-4l-4.9-6.5c-.5-.7-.8-1.2-1-1.7-.2-.5-.2-1.2-.2-2.2v-6.1c0-.4.1-.7.3-.9.2-.2.5-.3.9-.3h4.9c.4 0 .7.1.9.3.2.2.3.5.3.9v5.9c0 .2.1.5.3.7l1.5 2.3c.1.2.2.3.3.4.1.1.3.1.4.1h.3c.2 0 .3 0 .4-.1.1-.1.2-.2.3-.4l1.5-2.3c.1-.2.2-.4.3-.7v-5.9c0-.4.1-.7.3-.9.2-.2.5-.3.9-.3h4.7c.4 0 .7.1.9.3.2.2.3.5.3.9v6.1c0 1-.1 1.7-.3 2.2-.2.5-.5 1.1-1 1.7l-4.8 6.5v4c0 .4-.1.7-.3.9-.2.2-.5.3-.9.3z"/>
</svg>