<svg xmlns="http://www.w3.org/2000/svg" viewBox="0 0 320 220">
  <defs>
    <pattern id="svgPattern" patternUnits="userSpaceOnUse" width="5" height="5" patternTransform="rotate(77)">
      <rect x='0' y='0' width='5' height='5' fill='#fff' stroke-width="0" />
      <line x1="0" y="0" x2="0" y2="9.5" stroke='#2a187f' stroke-width="2" />
    </pattern>
  </defs>
  <path fill='url(#svgPattern)' d="M17.6 40.2h-6.1c-.5 0-.9-.1-1.1-.3-.3-.3-.4-.6-.4-1.2V12.1c0-.5.1-.9.3-1.1.3-.3.7-.4 1.2-.4h6.6c.4 0 .8.1 1.1.3.3.2.5.5.8.9l3.7 6.7c.1.3.2.5.3.6s.2.2.4.2h.4c.2 0 .3-.1.4-.2s.2-.3.3-.5l3.7-6.7c.2-.4.5-.8.8-.9.3-.2.7-.3 1.1-.3h6.7c.5 0 .9.1 1.1.3.2.2.3.6.3 1.1v26.6c0 .5-.1.9-.3 1.1-.2.2-.6.3-1.1.3h-6.3c-.5 0-.9-.1-1.1-.3-.2-.2-.3-.6-.3-1.1V24.3l-2.4 4.5c-.2.5-.5.8-.9 1-.3.2-.8.3-1.3.3h-1.6c-.5 0-1-.1-1.3-.3-.3-.2-.6-.5-.9-1l-2.4-4.5v14.5c0 .5-.1.9-.3 1.1-.5.2-.9.3-1.4.3zm50.8-7.8c0 1.3-.2 2.4-.6 3.4-.4 1-1 1.9-2 2.6-.9.7-2.2 1.3-3.9 1.7-1.7.4-3.8.6-6.3.6s-4.7-.2-6.3-.6c-1.7-.4-3-1-3.9-1.7s-1.6-1.6-2-2.6-.6-2.2-.6-3.4v-14c0-1.3.2-2.4.6-3.4.4-1 1-1.9 2-2.7.9-.7 2.3-1.3 3.9-1.7 1.7-.4 3.9-.6 6.4-.6s4.6.2 6.3.6c1.7.4 3 1 3.9 1.7s1.6 1.6 2 2.7c.4 1 .6 2.2.6 3.4l-.1 14zM52.3 31c0 .5.2 1 .6 1.4.4.4 1.4.6 2.8.6 1.5 0 2.4-.2 2.8-.6.4-.4.6-.8.6-1.4V19.9c0-.5-.2-1-.6-1.3-.4-.4-1.3-.6-2.8-.6s-2.4.2-2.8.6c-.4.4-.6.8-.6 1.3V31zm27.5 9.2h-6.2c-.5 0-.9-.1-1.1-.3-.2-.2-.3-.6-.3-1.1V12.1c0-.5.1-.9.3-1.1.2-.2.6-.3 1.1-.3h4.3c.5 0 1 .1 1.3.2.4.1.8.4 1.1.8l8 9.1v-8.7c0-.5.1-.9.3-1.1.2-.2.6-.3 1.1-.3h6.2c.5 0 .9.1 1.1.3s.3.6.3 1.1v26.6c0 .5-.1.9-.3 1.1-.2.2-.6.3-1.1.3h-6.2c-.5 0-.9-.1-1.1-.3-.2-.2-.3-.6-.3-1.1v-5.1l-7-8.5v13.6c0 .5-.1.9-.3 1.1-.3.3-.7.4-1.2.4zm46.8 0h-15.8c-.5 0-.9-.1-1.1-.3-.2-.2-.3-.6-.3-1.1V12.1c0-.5.1-.9.3-1.1.2-.2.6-.3 1.1-.3h13.1c2.7 0 4.7.5 6 1.5s1.9 2.6 1.9 4.7v2c0 1.2-.2 2.1-.6 2.8-.4.7-1 1.3-1.8 1.6 1.8.2 3.1.8 3.9 1.8s1.3 2.6 1.3 4.6v3.8c0 2.3-.7 4-2 5.1-1.3 1.1-3.3 1.6-6 1.6zm-8.1-22.6V22h3.5c.5 0 .9-.1 1.2-.4.3-.3.4-.7.4-1.2v-1.2c0-.5-.1-1-.4-1.2-.3-.3-.7-.4-1.2-.4h-3.5zm0 10.8v4.9h5.3c.5 0 .9-.1 1.2-.4.3-.3.4-.7.4-1.2V30c0-.5-.1-1-.4-1.2-.3-.3-.7-.4-1.2-.4h-5.3zm44.3 4c0 1.3-.2 2.4-.6 3.4-.4 1-1 1.9-2 2.6-.9.7-2.2 1.3-3.9 1.7-1.6.4-3.7.6-6.3.6s-4.6-.2-6.3-.6c-1.6-.4-2.9-1-3.9-1.7-.9-.7-1.6-1.6-2-2.6s-.6-2.2-.6-3.4V12.1c0-.5.1-.9.3-1.1.2-.2.6-.3 1.1-.3h6.5c.5 0 .9.1 1.1.3.2.2.3.6.3 1.1v18.7c0 .5.2 1 .6 1.4.4.4 1.3.6 2.8.6s2.4-.2 2.8-.6c.4-.4.6-.8.6-1.4V12.1c0-.5.1-.9.3-1.1s.6-.3 1.1-.3h6.2c.5 0 .9.1 1.1.3.2.2.3.6.3 1.1l.5 20.3zm17.6 7.8h-13c-.5 0-.9-.1-1.1-.3-.2-.2-.3-.6-.3-1.1V34c0-.5.1-.9.3-1.1.2-.2.6-.3 1.1-.3h11.1c.4 0 .6-.1.8-.3.2-.2.3-.5.3-.8 0-.5-.1-.8-.3-1s-.4-.3-.8-.4l-6.2-.9c-1.9-.3-3.5-.9-4.6-1.9-1.2-1-1.7-2.6-1.7-4.9v-4.5c0-2.3.8-4.1 2.3-5.4 1.5-1.2 3.6-1.9 6.2-1.9H186c.5 0 .9.1 1.1.3.2.2.4.6.4 1.1v5c0 .5-.1.9-.4 1.1-.2.2-.6.3-1.1.3h-9.6c-.4 0-.6.1-.8.3s-.3.5-.3.9.1.7.3.9.5.4.8.4l6.1.8c1.9.3 3.5.9 4.6 1.9 1.2 1 1.8 2.6 1.8 4.9V33c0 2.3-.8 4.1-2.3 5.4-1.5 1.3-3.5 1.8-6.2 1.8zm27.1 0h-6.4c-.5 0-.9-.1-1.1-.3-.2-.2-.3-.6-.3-1.1V12.1c0-.5.1-.9.3-1.1s.6-.3 1.1-.3h12.6c3.7 0 6.3.7 7.6 2.2 1.4 1.5 2.1 3.4 2.1 5.8V24c0 2.4-.7 4.3-2.1 5.8-1.4 1.5-3.9 2.2-7.6 2.2H209v6.8c0 .5-.1.9-.3 1.1-.3.2-.7.3-1.2.3zm1.4-21.9v6.2h3.7c.8 0 1.3-.2 1.6-.6.2-.4.4-.9.4-1.4v-2.2c0-.5-.1-1-.4-1.4-.2-.4-.8-.6-1.6-.6h-3.7zm42.3 14.1c0 1.3-.2 2.4-.6 3.4-.4 1-1 1.9-2 2.6-.9.7-2.2 1.3-3.9 1.7-1.7.4-3.8.6-6.3.6s-4.7-.2-6.3-.6c-1.7-.4-3-1-3.9-1.7s-1.6-1.6-2-2.6-.6-2.2-.6-3.4v-14c0-1.3.2-2.4.6-3.4.4-1 1-1.9 2-2.7.9-.7 2.3-1.3 3.9-1.7 1.7-.4 3.8-.6 6.3-.6s4.6.2 6.3.6 3 1 3.9 1.7c.9.7 1.6 1.6 2 2.7.4 1 .6 2.2.6 3.4v14zM235 31c0 .5.2 1 .6 1.4.4.4 1.4.6 2.8.6s2.4-.2 2.8-.6c.4-.4.6-.8.6-1.4V19.9c0-.5-.2-1-.6-1.3-.3-.4-1.2-.6-2.7-.6s-2.4.2-2.8.6c-.4.4-.6.8-.6 1.3L235 31zm45.1 1.4c0 1.3-.2 2.4-.6 3.4s-1 1.9-2 2.6c-.9.7-2.2 1.3-3.9 1.7-1.6.4-3.7.6-6.3.6s-4.6-.2-6.3-.6c-1.6-.4-2.9-1-3.9-1.7-.9-.7-1.6-1.6-2-2.6s-.6-2.2-.6-3.4V12.1c0-.5.1-.9.3-1.1s.6-.3 1.1-.3h6.5c.5 0 .9.1 1.1.3s.3.6.3 1.1v18.7c0 .5.2 1 .6 1.4.4.4 1.3.6 2.8.6s2.4-.2 2.8-.6c.4-.4.6-.8.6-1.4V12.1c0-.5.1-.9.3-1.1.2-.2.6-.3 1.1-.3h6.2c.5 0 .9.1 1.1.3s.3.6.3 1.1l.5 20.3zm11.8 7.8h-6.3c-.5 0-.9-.1-1.1-.3-.2-.2-.3-.6-.3-1.1V12.1c0-.5.1-.9.3-1.1.2-.2.6-.3 1.1-.3h13.7c3.1 0 5.2.6 6.3 1.9 1.2 1.3 1.7 2.9 1.7 5v1.9c0 1.2-.2 2.1-.5 2.9-.3.8-.9 1.4-1.8 1.7 1.5.2 2.7.8 3.6 1.8s1.4 2.4 1.4 4.2v8.7c0 .5-.1.9-.4 1.1-.2.2-.6.3-1.1.3h-6.4c-.5 0-.9-.1-1.1-.3-.2-.2-.3-.6-.3-1.1v-6.3c0-.6-.1-1-.3-1.3-.2-.3-.6-.4-1.2-.4h-5.8v8.1c0 .5-.1.9-.3 1.1-.3.1-.7.2-1.2.2zm1.5-22.2v5.3h3.1c.7 0 1.2-.2 1.4-.6.2-.4.4-.8.4-1.4v-1.4c0-.5-.1-1-.4-1.4-.2-.4-.7-.6-1.4-.6l-3.1.1zM50.2 81c0 2-.3 3.8-.9 5.4-.6 1.6-1.6 3-3.1 4.1s-3.5 2-6.2 2.7c-2.6.6-5.9 1-9.9 1s-7.3-.3-10-1c-2.6-.6-4.7-1.5-6.2-2.7-1.5-1.1-2.5-2.5-3.1-4.1-.5-1.6-.8-3.4-.8-5.4V58.9c0-2 .3-3.8.9-5.4.6-1.6 1.6-3 3.1-4.2s3.5-2.1 6.2-2.7c2.6-.6 6-1 10-1s7.3.3 9.9 1c2.6.6 4.7 1.6 6.2 2.7 1.5 1.2 2.5 2.6 3.1 4.2.6 1.6.9 3.4.9 5.4L50.2 81zm-25.5-2.3c0 .9.3 1.6 1 2.2.7.6 2.1.9 4.5.9 2.3 0 3.8-.3 4.5-.9.6-.6 1-1.3 1-2.2V61.3c0-.8-.3-1.5-1-2.1-.6-.6-2.1-.9-4.5-.9-2.3 0-3.8.3-4.5.9s-1 1.3-1 2.1v17.4zm53 14.5H57.2c-.8 0-1.4-.2-1.8-.6s-.6-1-.6-1.8v-7.6c0-.8.2-1.4.6-1.8s1-.6 1.8-.6h17.4c.6 0 1-.2 1.3-.6s.4-.8.4-1.3c0-.7-.1-1.3-.4-1.6-.3-.3-.7-.5-1.3-.6l-9.7-1.4c-3-.4-5.5-1.4-7.3-3s-2.8-4.1-2.8-7.8V58c0-3.7 1.2-6.5 3.6-8.5 2.4-2 5.7-2.9 9.8-2.9h18.1c.8 0 1.4.2 1.8.6.4.4.6 1 .6 1.8v7.7c0 .8-.2 1.4-.6 1.8-.4.4-1 .6-1.8.6h-15c-.6 0-1 .2-1.3.6-.3.4-.5.8-.5 1.4 0 .6.2 1 .5 1.4.3.4.7.6 1.3.6l9.6 1.3c3 .4 5.5 1.4 7.3 3 1.9 1.6 2.8 4.1 2.8 7.8V82c0 3.7-1.2 6.5-3.6 8.4-2.3 1.9-5.6 2.8-9.7 2.8zm30.4 0H98c-.8 0-1.4-.2-1.8-.6s-.6-1-.6-1.8V49c0-.8.2-1.4.6-1.8.4-.4 1-.6 1.8-.6h10c.8 0 1.4.2 1.8.6.4.4.5 1 .5 1.8v14h10.8V49c0-.8.2-1.4.6-1.8.4-.4 1-.6 1.8-.6h10c.8 0 1.4.2 1.8.6.4.4.5 1 .5 1.8v42c0 .8-.2 1.4-.5 1.8-.4.4-1 .6-1.8.6h-10c-.8 0-1.4-.2-1.8-.6s-.6-1-.6-1.8V76.5h-10.8v14.4c0 .8-.2 1.4-.5 1.8s-.9.5-1.7.5zm66.7 0h-30c-.8 0-1.4-.2-1.8-.6-.4-.4-.6-1-.6-1.8V49c0-.8.2-1.4.6-1.8.4-.4 1-.6 1.8-.6h30c.8 0 1.4.2 1.8.6.4.4.5 1 .5 1.8v7.6c0 .8-.2 1.4-.5 1.8-.4.4-1 .6-1.8.6H157v5h12.6c.8 0 1.4.2 1.8.6.4.4.6 1 .6 1.8v6.9c0 .8-.2 1.4-.6 1.8s-1 .6-1.8.6H157V81h17.9c.8 0 1.4.2 1.8.6.4.4.5 1 .5 1.8V91c0 .8-.2 1.4-.5 1.8-.5.3-1.1.4-1.9.4zm20.8-2.3c0 .8-.2 1.4-.6 1.8s-1 .6-1.8.6h-9.5c-.8 0-1.4-.2-1.8-.6s-.6-1-.6-1.8V73.8c0-1.3.2-2.8.6-4.5.4-1.7 1-3.6 1.9-5.9l5.6-14.7c.3-.7.7-1.3 1.2-1.6s1.2-.5 2.1-.5h17.4c.8 0 1.5.2 2 .5s.9.9 1.2 1.6l5.6 14.7c.9 2.2 1.5 4.2 1.9 5.9.4 1.7.6 3.2.6 4.5v17.1c0 .8-.2 1.4-.6 1.8s-1 .6-1.8.6h-9.8c-.9 0-1.5-.2-1.9-.6s-.6-1-.6-1.8v-9.1h-11.5l.4 9.1zm3.7-30.7l-3 9.8h10.2l-3-9.8c-.2-.4-.4-.7-.6-.8-.2-.2-.4-.3-.7-.3h-1.6c-.3 0-.5.1-.7.3-.2.1-.4.4-.6.8zm63.6 33h-20.4c-5.4 0-9.4-1.1-12-3.2-2.6-2.2-3.9-5.5-3.9-10V59.8c0-4.5 1.3-7.8 3.9-10 2.6-2.2 6.6-3.2 12-3.2h16.2c.8 0 1.4.2 1.8.6.4.4.6 1 .6 1.8v7.8c0 .8-.2 1.4-.6 1.8-.4.4-1 .5-1.8.5h-13.5c-1.3 0-2.3.3-3 .8-.6.5-1 1.3-1 2.4v15.5c0 1.1.2 1.9.7 2.4s1.2.8 2.2.8h6.3V70.9c0-.8.2-1.4.5-1.8.4-.4 1-.5 1.8-.5h10c.8 0 1.4.2 1.8.5.4.4.6 1 .6 1.8v20c0 .8-.2 1.4-.6 1.8-.2.4-.8.5-1.6.5zm21-2.3c0 .8-.2 1.4-.5 1.8-.4.4-1 .6-1.8.6h-9.5c-.8 0-1.4-.2-1.8-.6s-.5-1-.5-1.8V73.8c0-1.3.2-2.8.6-4.5.4-1.7 1-3.6 1.9-5.9l5.6-14.7c.3-.7.7-1.3 1.2-1.6s1.2-.5 2.1-.5h17.4c.8 0 1.5.2 2 .5s.9.9 1.2 1.6l5.6 14.7c.9 2.2 1.5 4.2 1.9 5.9.4 1.7.6 3.2.6 4.5v17.1c0 .8-.2 1.4-.5 1.8-.4.4-1 .6-1.8.6h-9.8c-.9 0-1.5-.2-1.9-.6s-.6-1-.6-1.8v-9.1h-11.5l.1 9.1zm3.7-30.7l-3 9.8h10.2l-3-9.8c-.2-.4-.4-.7-.6-.8-.2-.2-.4-.3-.7-.3h-1.6c-.3 0-.5.1-.7.3-.2.1-.4.4-.6.8zM70.9 185.5H14.3c-1.5 0-2.6-.3-3.3-1-.7-.7-1-1.8-1-3.3v-20.5c0-4.6.5-8.4 1.4-11.4.9-3 2.2-5.4 3.9-7.3s3.6-3.4 5.9-4.5 4.8-2.1 7.5-2.9l15.9-5c1.3-.3 2.1-.8 2.6-1.4.5-.6.7-1.6.7-2.9 0-1.2-.2-2-.7-2.4s-1.3-.7-2.5-.7H18.8c-1.5 0-2.6-.3-3.3-1-.7-.7-1-1.8-1-3.3v-13.8c0-1.5.3-2.6 1-3.3.7-.7 1.8-1 3.3-1h35.1c6.7 0 11.9 1.7 15.5 5.1 3.6 3.4 5.4 8.3 5.4 14.7v11.2c0 5.9-1.7 10.5-5 13.7-3.3 3.2-7.8 5.6-13.6 7.4L40 157c-1.2.3-2 .7-2.4 1.1-.4.4-.7 1.2-.7 2.5v2.5h33.9c1.5 0 2.6.3 3.3 1 .7.7 1 1.8 1 3.3v13.9c0 1.5-.3 2.6-1 3.3-.6.5-1.7.9-3.2.9zm85.5-22.5c0 3.6-.5 7-1.5 9.9-1 3-2.9 5.5-5.6 7.6-2.7 2.1-6.4 3.7-11.1 4.9-4.7 1.2-10.7 1.8-18 1.8s-13.3-.6-18-1.8-8.4-2.8-11.1-4.9c-2.7-2.1-4.6-4.6-5.7-7.6s-1.6-6.3-1.6-9.9v-40.5c0-3.6.5-7 1.6-9.9 1.1-3 3-5.5 5.7-7.7 2.7-2.1 6.4-3.8 11.1-5s10.7-1.8 18-1.8 13.3.6 18 1.8c4.7 1.2 8.4 2.9 11.1 5 2.7 2.1 4.6 4.7 5.6 7.7s1.5 6.3 1.5 9.9V163zm-45.8-4.3c0 1.6.6 2.9 1.7 4s3.7 1.6 7.8 1.6c4 0 6.6-.5 7.8-1.6 1.2-1.1 1.7-2.4 1.7-4v-32c0-1.5-.6-2.8-1.7-3.9s-3.7-1.6-7.8-1.6c-4 0-6.6.5-7.8 1.6-1.2 1.1-1.7 2.4-1.7 3.9v32zm113.9 26.8h-56.6c-1.5 0-2.6-.3-3.3-1s-1-1.8-1-3.3v-20.5c0-4.6.5-8.4 1.4-11.4s2.2-5.4 3.9-7.3c1.7-1.9 3.6-3.4 5.9-4.5 2.3-1.1 4.8-2.1 7.5-2.9l15.9-5c1.3-.3 2.1-.8 2.6-1.4.5-.6.7-1.6.7-2.9 0-1.2-.2-2-.7-2.4s-1.3-.7-2.5-.7h-25.8c-1.5 0-2.6-.3-3.3-1s-1-1.8-1-3.3v-13.8c0-1.5.3-2.6 1-3.3.7-.7 1.8-1 3.3-1h35.1c6.7 0 11.9 1.7 15.5 5.1s5.4 8.3 5.4 14.7v11.2c0 5.9-1.7 10.5-5 13.7s-7.8 5.6-13.6 7.4l-16.2 5.1c-1.2.3-2 .7-2.4 1.1-.4.4-.7 1.2-.7 2.5v2.5h33.9c1.5 0 2.6.3 3.3 1s1 1.8 1 3.3v13.9c0 1.5-.3 2.6-1 3.3-.7.5-1.8.9-3.3.9zM310 163c0 3.6-.5 7-1.5 9.9-1 3-2.9 5.5-5.6 7.6s-6.4 3.7-11.1 4.9-10.7 1.8-18 1.8-13.3-.6-18-1.8c-4.7-1.2-8.4-2.8-11.1-4.9-2.7-2.1-4.6-4.6-5.7-7.6-1.1-3-1.6-6.3-1.6-9.9v-40.5c0-3.6.5-7 1.6-9.9 1.1-3 3-5.5 5.7-7.7 2.7-2.1 6.4-3.8 11.1-5s10.7-1.8 18-1.8 13.3.6 18 1.8c4.7 1.2 8.4 2.9 11.1 5s4.6 4.7 5.6 7.7 1.5 6.3 1.5 9.9V163zm-45.8-4.3c0 1.6.6 2.9 1.7 4s3.7 1.6 7.8 1.6c4 0 6.6-.5 7.8-1.6 1.2-1.1 1.7-2.4 1.7-4v-32c0-1.5-.6-2.8-1.7-3.9s-3.7-1.6-7.8-1.6c-4 0-6.6.5-7.8 1.6-1.2 1.1-1.7 2.4-1.7 3.9v32zM17.8 208.1h-7c-.3 0-.5-.1-.6-.2-.1-.1-.2-.3-.2-.6v-13.6c0-.3.1-.5.2-.6.1-.1.3-.2.6-.2h7.1c1.7 0 3 .3 3.9 1 .8.7 1.3 1.8 1.3 3.2v6.5c0 1.5-.4 2.5-1.3 3.2-.9 1-2.2 1.3-4 1.3zm-3-11.1v7.1h2.5c.3 0 .6-.1.7-.3.2-.2.2-.4.2-.8v-5c0-.3-.1-.6-.2-.8-.2-.2-.4-.2-.7-.2h-2.5zm20.5 11.1h-9.7c-.3 0-.5-.1-.6-.2-.1-.1-.2-.3-.2-.6v-13.6c0-.3.1-.5.2-.6s.3-.2.6-.2h9.7c.3 0 .5.1.6.2.1.1.2.3.2.6v2.5c0 .3-.1.5-.2.6-.1.1-.3.2-.6.2h-5.8v1.6h4.1c.3 0 .5.1.6.2.1.1.2.3.2.6v2.2c0 .3-.1.5-.2.6-.1.1-.3.2-.6.2h-4.1v1.8h5.8c.3 0 .5.1.6.2.1.1.2.3.2.6v2.5c0 .3-.1.5-.2.6h-.6zm6.5 0h-3.2c-.3 0-.5-.1-.6-.2-.1-.1-.2-.3-.2-.6v-13.6c0-.3.1-.5.2-.6.1-.1.3-.2.6-.2H45c1.9 0 3.2.4 3.9 1.1.7.8 1 1.7 1 3v2.7c0 1.2-.3 2.2-1 3s-2 1.1-3.9 1.1h-2.4v3.5c0 .3-.1.5-.2.6-.2.2-.3.2-.6.2zm.7-11.2v3.2h1.9c.4 0 .7-.1.8-.3s.2-.4.2-.7V198c0-.3-.1-.5-.2-.7-.1-.2-.4-.3-.8-.3l-1.9-.1zm21.7 7.3c0 .6-.1 1.2-.3 1.7-.2.5-.5 1-1 1.3-.5.4-1.1.7-2 .9-.8.2-1.9.3-3.2.3s-2.4-.1-3.2-.3-1.5-.5-2-.9-.8-.8-1-1.3-.3-1.1-.3-1.7v-10.4c0-.3.1-.5.2-.6.1-.1.3-.2.6-.2h3.3c.3 0 .5.1.6.2.1.1.2.3.2.6v9.6c0 .3.1.5.3.7s.7.3 1.4.3 1.2-.1 1.4-.3.3-.4.3-.7v-9.6c0-.3.1-.5.2-.6.1-.1.3-.2.6-.2h3.2c.3 0 .5.1.6.2.1.1.2.3.2.6l-.1 10.4zm2.4 3.9c-.3 0-.5-.1-.6-.2-.1-.1-.2-.3-.2-.6v-2.5c0-.3.1-.5.2-.6.1-.1.3-.2.6-.2h2.1v-7h-2.1c-.3 0-.5-.1-.6-.2-.1-.1-.2-.3-.2-.6v-2.5c0-.3.1-.5.2-.6.1-.1.3-.2.6-.2h8.9c.3 0 .5.1.6.2.1.1.2.3.2.6v2.5c0 .3-.1.5-.2.6s-.3.2-.6.2h-2v7h2c.3 0 .5.1.6.2.1.1.2.3.2.6v2.5c0 .3-.1.5-.2.6s-.3.2-.6.2h-8.9zm18.5 0h-6.6c-.3 0-.5-.1-.6-.2-.1-.1-.2-.3-.2-.6v-2.5c0-.3.1-.5.2-.6s.3-.2.6-.2h5.6c.2 0 .3-.1.4-.2.1-.1.1-.3.1-.4 0-.2 0-.4-.1-.5s-.2-.2-.4-.2l-3.1-.4c-1-.1-1.8-.5-2.4-1s-.9-1.3-.9-2.5v-2.2c0-1.2.4-2.1 1.2-2.7.8-.6 1.8-1 3.2-1H88c.3 0 .5.1.6.2.1.1.2.3.2.6v2.5c0 .3-.1.5-.2.6s-.3.2-.6.2h-5c-.2 0-.3.1-.4.2-.1.1-.1.3-.1.5s0 .3.1.5c.1.1.2.2.4.2l3.1.4c1 .1 1.8.5 2.4 1s.9 1.3.9 2.5v2.2c0 1.2-.4 2.1-1.2 2.7-.7.6-1.8.9-3.1.9zm21.2 0H95.6c-.3 0-.5-.1-.6-.2-.1-.1-.2-.3-.2-.6v-13.6c0-.3.1-.5.2-.6s.3-.2.6-.2h3.2c.3 0 .5.1.6.2.1.1.2.3.2.6v10.4h2.9v-3.4c0-.3.1-.5.2-.6s.3-.2.6-.2h3c.3 0 .5.1.6.2.1.1.2.3.2.6v6.6c0 .3-.1.5-.2.6-.2.2-.4.2-.6.2zm6.6-.7c0 .3-.1.5-.2.6s-.3.2-.6.2H109c-.3 0-.5-.1-.6-.2s-.2-.3-.2-.6v-5.5c0-.4.1-.9.2-1.4s.3-1.2.6-1.9l1.8-4.8c.1-.2.2-.4.4-.5s.4-.2.7-.2h5.6c.3 0 .5.1.7.2s.3.3.4.5l1.8 4.8c.3.7.5 1.4.6 1.9s.2 1 .2 1.4v5.5c0 .3-.1.5-.2.6s-.3.2-.6.2h-3.2c-.3 0-.5-.1-.6-.2-.1-.1-.2-.3-.2-.6v-2.9h-3.7v2.9h.2zm1.2-10l-1 3.2h3.3l-1-3.2c-.1-.1-.1-.2-.2-.3s-.1-.1-.2-.1h-.5c-.1 0-.2 0-.2.1-.1.1-.1.2-.2.3zm21.7 10.7h-5.4c-.3 0-.5 0-.7-.1s-.3-.3-.4-.5l-2.1-5.1c-.1-.3-.2-.6-.3-.8-.1-.2-.2-.5-.2-.7-.1-.2-.1-.4-.1-.7v-6.3c0-.3.1-.5.2-.6s.3-.2.6-.2h3.3c.3 0 .5.1.6.2.1.1.2.3.2.6v6.2c0 .1.1.3.1.4l1 2.9c0 .1.1.2.1.3.1 0 .1.1.3.1h.2c.1 0 .2 0 .3-.1.1 0 .1-.1.1-.3l1-3c.1-.2.1-.3.1-.4v-6.2c0-.3.1-.5.2-.6.1-.1.3-.2.6-.2h3.3c.3 0 .5.1.6.2.1.1.2.3.2.6v6.3c0 .2-.1.5-.1.7-.1.2-.1.4-.2.7-.1.2-.2.5-.3.8l-2.1 5.1c-.1.3-.2.4-.4.5-.2.2-.4.2-.7.2zm6 0c-.3 0-.5-.1-.6-.2-.1-.1-.2-.3-.2-.6v-2.5c0-.3.1-.5.2-.6.1-.1.3-.2.6-.2h2.1v-7h-2.1c-.3 0-.5-.1-.6-.2-.1-.1-.2-.3-.2-.6v-2.5c0-.3.1-.5.2-.6.1-.1.3-.2.6-.2h8.9c.3 0 .5.1.6.2.1.1.2.3.2.6v2.5c0 .3-.1.5-.2.6s-.3.2-.6.2h-2v7h2c.3 0 .5.1.6.2.1.1.2.3.2.6v2.5c0 .3-.1.5-.2.6s-.3.2-.6.2h-8.9zm22.9 0H154c-.3 0-.5-.1-.6-.2-.1-.1-.2-.3-.2-.6v-13.6c0-.3.1-.5.2-.6.1-.1.3-.2.6-.2h3.2c.3 0 .5.1.6.2.1.1.2.3.2.6v10.4h2.9v-3.4c0-.3.1-.5.2-.6s.3-.2.6-.2h3c.3 0 .5.1.6.2s.2.3.2.6v6.6c0 .3-.1.5-.2.6s-.3.2-.6.2zm13.8 0h-10.7c-.3 0-.5-.1-.6-.2s-.2-.3-.2-.6v-13.6c0-.3.1-.5.2-.6.1-.1.3-.2.6-.2h3.2c.3 0 .5.1.6.2.1.1.2.3.2.6v10.4h2.9v-3.4c0-.3.1-.5.2-.6.1-.1.3-.2.6-.2h3c.3 0 .5.1.6.2.1.1.2.3.2.6v6.6c0 .3-.1.5-.2.6-.1.2-.3.2-.6.2zm12.9 0h-9.7c-.3 0-.5-.1-.6-.2s-.2-.3-.2-.6v-13.6c0-.3.1-.5.2-.6.1-.1.3-.2.6-.2h9.7c.3 0 .5.1.6.2.1.1.2.3.2.6v2.5c0 .3-.1.5-.2.6-.1.1-.3.2-.6.2h-5.8v1.6h4.1c.3 0 .5.1.6.2.1.1.2.3.2.6v2.2c0 .3-.1.5-.2.6-.1.1-.3.2-.6.2h-4.1v1.8h5.8c.3 0 .5.1.6.2.1.1.2.3.2.6v2.5c0 .3-.1.5-.2.6h-.6zm14.2 0h-7.1c-.3 0-.5-.1-.6-.2-.1-.1-.2-.3-.2-.6v-13.6c0-.3.1-.5.2-.6.1-.1.3-.2.6-.2h7.1c1.7 0 3 .3 3.9 1 .8.7 1.3 1.8 1.3 3.2v6.5c0 1.5-.4 2.5-1.3 3.2-.9 1-2.2 1.3-3.9 1.3zm-3.1-11.1v7.1h2.5c.3 0 .6-.1.7-.3.2-.2.2-.4.2-.8v-5c0-.3-.1-.6-.2-.8-.2-.2-.4-.2-.7-.2h-2.5zm20.6 11.1h-9.7c-.3 0-.5-.1-.6-.2-.1-.1-.2-.3-.2-.6v-13.6c0-.3.1-.5.2-.6.1-.1.3-.2.6-.2h9.7c.3 0 .5.1.6.2.1.1.2.3.2.6v2.5c0 .3-.1.5-.2.6-.1.1-.3.2-.6.2h-5.8v1.6h4.1c.3 0 .5.1.6.2.1.1.2.3.2.6v2.2c0 .3-.1.5-.2.6-.1.1-.3.2-.6.2h-4.1v1.8h5.8c.3 0 .5.1.6.2.1.1.2.3.2.6v2.5c0 .3-.1.5-.2.6h-.6zm14.3 1.9h-3.2c-.3 0-.5-.1-.6-.2-.1-.1-.2-.3-.2-.6V208c-1.6-.2-2.7-.7-3.3-1.5-.6-.7-.8-1.6-.8-2.7v-7c0-.6.1-1.2.3-1.7s.5-1 1-1.4 1.1-.7 2-.9 1.9-.3 3.2-.3 2.4.1 3.2.3 1.5.5 2 .9.8.8 1 1.4c.2.5.3 1.1.3 1.7v7c0 .5-.1 1-.2 1.5s-.3.9-.6 1.2-.7.6-1.3.9c-.5.3-1.2.4-2 .5v1.2c0 .3-.1.5-.2.6-.2.2-.4.3-.6.3zm-3.4-6.5c0 .3.1.5.3.7s.7.3 1.4.3c.8 0 1.2-.1 1.4-.3s.3-.4.3-.7v-5.7c0-.3-.1-.5-.3-.7s-.7-.3-1.4-.3c-.8 0-1.2.1-1.4.3s-.3.4-.3.7v5.7zm23 .7c0 .6-.1 1.2-.3 1.7-.2.5-.5 1-1 1.3-.5.4-1.1.7-2 .9-.8.2-1.9.3-3.2.3s-2.4-.1-3.2-.3-1.5-.5-2-.9-.8-.8-1-1.3-.3-1.1-.3-1.7v-10.4c0-.3.1-.5.2-.6.1-.1.3-.2.6-.2h3.3c.3 0 .5.1.6.2.1.1.2.3.2.6v9.6c0 .3.1.5.3.7s.7.3 1.4.3 1.2-.1 1.4-.3.3-.4.3-.7v-9.6c0-.3.1-.5.2-.6.1-.1.3-.2.6-.2h3.2c.3 0 .5.1.6.2.1.1.2.3.2.6v10.4h-.1zm12.5 3.9h-9.7c-.3 0-.5-.1-.6-.2-.1-.1-.2-.3-.2-.6v-13.6c0-.3.1-.5.2-.6s.3-.2.6-.2h9.7c.3 0 .5.1.6.2.1.1.2.3.2.6v2.5c0 .3-.1.5-.2.6s-.3.2-.6.2h-5.8v1.6h4.1c.3 0 .5.1.6.2.1.1.2.3.2.6v2.2c0 .3-.1.5-.2.6s-.3.2-.6.2h-4.1v1.8h5.8c.3 0 .5.1.6.2s.2.3.2.6v2.5c0 .3-.1.5-.2.6s-.3 0-.6 0zm-.8-16.7l-7.3.9c-.2 0-.4 0-.5-.1s-.2-.3-.2-.5v-2c0-.3.1-.5.2-.6s.3-.2.6-.2l7.3-.9c.2 0 .4 0 .5.1s.2.3.2.5v2c0 .3-.1.5-.2.6s-.3.2-.6.2zm12.1 16.7h-8c-.3 0-.5-.1-.6-.2s-.2-.3-.2-.6v-13.6c0-.3.1-.5.2-.6s.3-.2.6-.2h6.7c1.4 0 2.4.3 3 .8.7.5 1 1.3 1 2.4v1c0 .6-.1 1.1-.3 1.4-.2.4-.5.6-.9.8.9.1 1.6.4 2 .9s.6 1.3.6 2.3v1.9c0 1.2-.3 2-1 2.6-.7.8-1.8 1.1-3.1 1.1zm-4.1-11.5v2.3h1.8c.3 0 .5-.1.6-.2.1-.1.2-.3.2-.6v-.6c0-.3-.1-.5-.2-.6s-.3-.2-.6-.2l-1.8-.1zm0 5.5v2.5h2.7c.3 0 .5-.1.6-.2.1-.1.2-.3.2-.6v-.8c0-.3-.1-.5-.2-.6s-.3-.2-.6-.2l-2.7-.1zm20.2 6h-9.7c-.3 0-.5-.1-.6-.2s-.2-.3-.2-.6v-13.6c0-.3.1-.5.2-.6s.3-.2.6-.2h9.7c.3 0 .5.1.6.2.1.1.2.3.2.6v2.5c0 .3-.1.5-.2.6s-.3.2-.6.2h-5.8v1.6h4.1c.3 0 .5.1.6.2.1.1.2.3.2.6v2.2c0 .3-.1.5-.2.6s-.3.2-.6.2h-4.1v1.8h5.8c.3 0 .5.1.6.2.1.1.2.3.2.6v2.5c0 .3-.1.5-.2.6h-.6zm12.3 0h-5.1c-1.7 0-3-.3-3.9-1-.8-.7-1.3-1.8-1.3-3.2v-6.5c0-1.5.4-2.5 1.3-3.2.8-.7 2.1-1.1 3.9-1.1h5.1c.3 0 .5.1.6.2.1.1.2.3.2.6v2.5c0 .3-.1.5-.2.6s-.3.2-.6.2H305c-.4 0-.8.1-1 .3s-.3.4-.3.8v5c0 .3.1.6.3.8.2.2.5.2 1 .2h4.2c.3 0 .5.1.6.2.1.1.2.3.2.6v2.5c0 .3-.1.5-.2.6s-.3-.1-.6-.1z"/></svg>