<?xml version="1.0" encoding="utf-8"?>
<!-- Generator: Adobe Illustrator 17.1.0, SVG Export Plug-In . SVG Version: 6.00 Build 0)  -->
<!DOCTYPE svg PUBLIC "-//W3C//DTD SVG 1.1//EN" "http://www.w3.org/Graphics/SVG/1.1/DTD/svg11.dtd">
<svg version="1.1" id="Layer_1" xmlns="http://www.w3.org/2000/svg" xmlns:xlink="http://www.w3.org/1999/xlink" x="0px" y="0px"
	 viewBox="0 0 50 50" enable-background="new 0 0 50 50" xml:space="preserve">
<path d="M21.026,10c0-0.552-0.448-1-1-1H12.5c-0.552,0-1,0.448-1,1v30c0,0.553,0.448,1,1,1h7.526
	c0.552,0,1-0.447,1-1V10z M19.026,39H13.5V11h5.526V39z"/>
<path d="M34.5,9h-7.526c-0.552,0-1,0.448-1,1v30c0,0.553,0.448,1,1,1H34.5c0.552,0,1-0.447,1-1V10
	C35.5,9.448,35.052,9,34.5,9z M33.5,39h-5.526V11H33.5V39z"/>
</svg>
