<svg width="100" height="100" xmlns="http://www.w3.org/2000/svg" id="Layer_1">
  <g stroke="null" id="svg_3">
   <path stroke="null" id="svg_1" d="m45.155083,20.625c0,-1.081 -0.877333,-1.958333 -1.958333,-1.958333l-14.738417,0c-1.081,0 -1.958333,0.877333 -1.958333,1.958333l0,58.75c0,1.082958 0.877333,1.958333 1.958333,1.958333l14.738417,0c1.081,0 1.958333,-0.875375 1.958333,-1.958333l0,-58.75zm-3.916667,56.791666l-10.82175,0l0,-54.833333l10.82175,0l0,54.833333z"/>
   <path stroke="null" id="svg_2" d="m71.541666,18.666667l-14.738417,0c-1.081,0 -1.958333,0.877333 -1.958333,1.958333l0,58.75c0,1.082958 0.877333,1.958333 1.958333,1.958333l14.738417,0c1.081,0 1.958333,-0.875375 1.958333,-1.958333l0,-58.75c0,-1.081 -0.877333,-1.958333 -1.958333,-1.958333zm-1.958333,58.75l-10.82175,0l0,-54.833333l10.82175,0l0,54.833333z"/>
  </g>
</svg>