<svg id="Layer_1" xmlns="http://www.w3.org/2000/svg" xmlns:xlink="http://www.w3.org/1999/xlink" version="1.1" x="0px" y="11px" viewBox="0 0 100 125" xml:space="preserve">
<path d="M80.1,27.4c4.1,0,7.5-3.4,7.5-7.5s-3.4-7.5-7.5-7.5c-1.4,0-2.7,0.4-3.8,1C68.7,8,59.6,5,50,5C38,5,26.7,9.7,18.2,18.2  C9.7,26.7,5,38,5,50s4.7,23.3,13.2,31.8C26.7,90.3,38,95,50,95s23.3-4.7,31.8-13.2c7.1-7.1,11.6-16.4,12.8-26.3c0.2-2-0.4-4-1.7-5.5  c-1.4-1.6-3.4-2.4-5.4-2.4h-10V45c0-1.4-1.1-2.5-2.5-2.5c-4.2,0-8.1-1.6-11-4.6l-4.4-4.4c-3.9-3.9-9.1-6-14.6-6h-2.5  c-1.4,0-2.5,1.1-2.5,2.5v7.5H25c-1.4,0-2.5,1.1-2.5,2.5s1.1,2.5,2.5,2.5h15v15H25c-1.4,0-2.5,1.1-2.5,2.5s1.1,2.5,2.5,2.5h15V70  c0,1.4,1.1,2.5,2.5,2.5H45c5.5,0,10.7-2.1,14.6-6l4.4-4.4c2.9-2.9,6.9-4.6,11-4.6c1.4,0,2.5-1.1,2.5-2.5v-2.5h10  c0.6,0,1.3,0.3,1.7,0.8c0.2,0.3,0.6,0.8,0.5,1.6c-1.1,8.8-5.1,17.1-11.4,23.4C70.7,85.8,60.7,90,50,90s-20.7-4.2-28.3-11.7  C14.2,70.7,10,60.7,10,50s4.2-20.7,11.7-28.3C29.3,14.2,39.3,10,50,10c8.4,0,16.3,2.6,23,7.3c-0.3,0.8-0.5,1.7-0.5,2.6  C72.6,24.1,75.9,27.4,80.1,27.4z M80.1,17.4c1.4,0,2.5,1.1,2.5,2.5s-1.1,2.5-2.5,2.5s-2.5-1.1-2.5-2.5S78.7,17.4,80.1,17.4z   M72.5,52.6c-4.6,0.5-8.8,2.6-12.1,5.9L56,62.9c-2.9,2.9-6.9,4.6-11,4.6v-35c4.2,0,8.1,1.6,11,4.6l4.4,4.4c3.3,3.3,7.5,5.3,12.1,5.9  V52.6z"/></svg>