<svg xmlns="http://www.w3.org/2000/svg" xmlns:xlink="http://www.w3.org/1999/xlink" version="1.1" x="0px" y="0px" viewBox="0 0 100 125" enable-background="new 0 0 100 100" xml:space="preserve"><path d="M72.273,27.726C66.324,21.776,58.414,18.5,50,18.5c-1.104,0-2,0.896-2,2c0,1.105,0.896,2,2,2  c7.346,0,14.251,2.86,19.445,8.055c10.722,10.722,10.723,28.169,0,38.891c-10.722,10.722-28.169,10.722-38.891,0  c-10.588-10.588-10.713-27.729-0.389-38.481l0,6.151c0,0.553,0.224,1.052,0.585,1.414c0.362,0.362,0.862,0.586,1.414,0.586  c1.105,0,2-0.896,2-2l-0.001-11c0-1.105-0.895-2-2-2l-11-0.001c-1.104,0-2,0.895-2,2c0,1.104,0.895,2,2,2l6.19,0.001  c-11.902,12.311-11.784,32.003,0.37,44.158c12.282,12.282,32.266,12.282,44.547,0C84.556,59.992,84.556,40.008,72.273,27.726z"/><text x="0" y="115" fill="#000000" font-size="5px" font-weight="bold" font-family="'Helvetica Neue', Helvetica, Arial-Unicode, Arial, Sans-serif">Created by Setyo Ari Wibowo</text><text x="0" y="120" fill="#000000" font-size="5px" font-weight="bold" font-family="'Helvetica Neue', Helvetica, Arial-Unicode, Arial, Sans-serif">from the Noun Project</text></svg>