<svg width="100" height="100" xmlns="http://www.w3.org/2000/svg" id="Layer_1">

  <g stroke="null" id="svg_5">
   <path stroke="null" id="svg_1" d="m73.06239,74.24954c0.52213,0 1.04031,-0.20569 1.43191,-0.61311c5.64062,-5.90763 8.87429,-14.50107 8.87429,-23.57907c0,-9.07603 -3.23565,-17.66947 -8.87232,-23.5771c-0.75353,-0.78913 -2.00942,-0.8188 -2.79657,-0.06526c-0.78914,0.75551 -0.8188,2.00744 -0.06527,2.79658c4.94445,5.1798 7.78058,12.77842 7.78058,20.84578c0,8.06933 -2.83613,15.66795 -7.78256,20.84776c-0.75353,0.78913 -0.72386,2.04106 0.06527,2.79657c0.38171,0.36787 0.87418,0.54785 1.36467,0.54785l0,0z"/>
   <path stroke="null" id="svg_2" d="m66.48628,68.14809c0.4984,0 0.99679,-0.18789 1.38048,-0.56169c4.40056,-4.29573 6.9242,-10.68197 6.9242,-17.52509c0,-6.84509 -2.52364,-13.23133 -6.9242,-17.52707c-0.78122,-0.76144 -2.03117,-0.7476 -2.79657,0.0356c-0.76343,0.7832 -0.7476,2.03316 0.0356,2.79658c3.64109,3.55407 5.72962,8.91187 5.72962,14.69687s-2.09051,11.14082 -5.72962,14.69489c-0.7832,0.76342 -0.79705,2.01536 -0.0356,2.79658c0.38764,0.39555 0.90186,0.59333 1.41609,0.59333l0,0z"/>
   <path stroke="null" id="svg_3" d="m58.70965,58.43523c-0.83858,0.70013 -0.94735,1.94811 -0.2492,2.78668c0.3916,0.46676 0.95329,0.70805 1.52091,0.70805c0.44698,0 0.89594,-0.15031 1.26776,-0.45885c3.10907,-2.5988 4.9662,-6.86684 4.9662,-11.41178c0,-4.61415 -1.90064,-8.91582 -5.08289,-11.51066c-0.84649,-0.69223 -2.09249,-0.55774 -2.78273,0.2848c-0.69025,0.84648 -0.56169,2.09249 0.2848,2.78273c2.27049,1.8512 3.62724,5.00773 3.62724,8.44511c-0.00395,3.38794 -1.33104,6.51876 -3.55209,8.37391l0,0.00001z"/>
   <path stroke="null" id="svg_4" d="m46.73618,24.74377l-16.22371,12.1317l-8.455,0c-1.09371,0 -1.97778,0.88406 -1.97778,1.97777l0,22.41614c0,1.09371 0.88407,1.97778 1.97778,1.97778l8.455,0l16.22371,12.13169c0.34809,0.26107 0.7654,0.39358 1.18469,0.39358c0.30062,0 0.60718,-0.06922 0.88605,-0.20767c0.66849,-0.33622 1.09173,-1.02053 1.09173,-1.77011l0,-47.46667c0,-0.74958 -0.42324,-1.43389 -1.09173,-1.77012c-0.66849,-0.33029 -1.47345,-0.26106 -2.07074,0.18591l0,0.00001l0,-0.00001zm-0.79309,45.10323l-13.58733,-10.16182c-0.34216,-0.25513 -0.75749,-0.39358 -1.18469,-0.39358l-7.13582,0l0,-18.46058l7.13582,0c0.4272,0 0.84253,-0.13844 1.18469,-0.39358l13.58733,-10.16182l0,39.57138l0,0z"/>
  </g>

</svg>