<?xml version="1.0" encoding="iso-8859-1"?>
<!-- Generator: Adobe Illustrator 19.0.0, SVG Export Plug-In . SVG Version: 6.00 Build 0)  -->
<svg version="1.1" id="Layer_1" xmlns="http://www.w3.org/2000/svg" xmlns:xlink="http://www.w3.org/1999/xlink" x="0px" y="0px"
	 viewBox="0 0 206.816 206.816" style="enable-background:new 0 0 206.816 206.816;" xml:space="preserve">
<g>
	<g>
		<g>
			<path d="M188.97,28.527H17.847C8.006,28.527,0,36.54,0,46.391v49.852c0,9.851,8.006,17.864,17.847,17.864H188.97
				c9.841,0,17.846-8.013,17.846-17.864V46.391C206.817,36.54,198.811,28.527,188.97,28.527z M199.685,96.243
				c0,5.916-4.807,10.732-10.715,10.732H17.847c-5.908,0-10.715-4.816-10.715-10.732V46.391c0-5.916,4.807-10.732,10.715-10.732
				H188.97c5.908,0,10.715,4.816,10.715,10.732V96.243z"/>
			<path d="M162.982,143.678c-1.393-1.393-3.649-1.393-5.042,0l-6.087,6.087h-2.746c-1.077-3.021-3.454-5.398-6.474-6.474v-2.746
				l6.087-6.087c1.393-1.393,1.393-3.649,0-5.042s-3.649-1.393-5.042,0l-4.61,4.61l-4.611-4.611c-1.393-1.393-3.649-1.393-5.042,0
				c-1.393,1.393-1.393,3.649,0,5.042l6.087,6.087v2.746c-3.021,1.077-5.398,3.454-6.474,6.474h-2.746l-6.087-6.087
				c-1.393-1.393-3.649-1.393-5.042,0s-1.393,3.649,0,5.042l4.61,4.61l-4.611,4.611c-1.393,1.393-1.393,3.649,0,5.042
				c0.697,0.696,1.609,1.044,2.521,1.044s1.825-0.348,2.521-1.045l6.087-6.087h2.747c1.077,3.021,3.453,5.397,6.474,6.474v2.747
				l-6.087,6.087c-1.393,1.393-1.393,3.649,0,5.042s3.649,1.393,5.042,0l4.61-4.611l4.611,4.611
				c0.696,0.696,1.609,1.044,2.521,1.044c0.912,0,1.825-0.348,2.521-1.045c1.393-1.393,1.393-3.649,0-5.042l-6.087-6.087v-2.746
				c3.021-1.077,5.398-3.454,6.474-6.474h2.746l6.087,6.087c0.697,0.696,1.609,1.045,2.521,1.045s1.825-0.348,2.521-1.045
				c1.393-1.393,1.393-3.649,0-5.042l-4.61-4.61l4.611-4.611C164.376,147.327,164.376,145.071,162.982,143.678z M139.067,156.896
				c-1.966,0-3.566-1.598-3.566-3.566c0-1.968,1.6-3.566,3.566-3.566s3.566,1.598,3.566,3.566
				C142.632,155.298,141.032,156.896,139.067,156.896z"/>
			<path d="M88.1,143.678c-1.393-1.393-3.649-1.393-5.042,0l-6.087,6.087h-2.746c-1.077-3.021-3.454-5.398-6.474-6.474v-2.746
				l6.087-6.087c1.393-1.393,1.393-3.649,0-5.042s-3.649-1.393-5.042,0l-4.61,4.61l-4.611-4.611c-1.393-1.393-3.649-1.393-5.042,0
				s-1.393,3.649,0,5.042l6.087,6.087v2.746c-3.021,1.077-5.398,3.454-6.474,6.474H51.4l-6.087-6.087
				c-1.393-1.393-3.649-1.393-5.042,0s-1.393,3.649,0,5.042l4.61,4.61l-4.611,4.611c-1.393,1.393-1.393,3.649,0,5.042
				c0.697,0.696,1.609,1.044,2.521,1.044s1.825-0.348,2.521-1.045l6.087-6.087h2.747c1.077,3.021,3.453,5.397,6.474,6.474v2.747
				l-6.087,6.087c-1.393,1.393-1.393,3.649,0,5.042s3.649,1.393,5.042,0l4.61-4.611l4.611,4.611
				c0.696,0.696,1.609,1.044,2.521,1.044s1.825-0.348,2.521-1.045c1.393-1.393,1.393-3.649,0-5.042l-6.087-6.087v-2.746
				c3.021-1.077,5.398-3.454,6.474-6.474h2.746l6.087,6.087c0.697,0.696,1.609,1.045,2.521,1.045c0.912,0,1.825-0.348,2.521-1.045
				c1.393-1.393,1.393-3.649,0-5.042l-4.61-4.61l4.611-4.611C89.494,147.327,89.494,145.071,88.1,143.678z M64.185,156.896
				c-1.966,0-3.566-1.598-3.566-3.566c0-1.968,1.6-3.566,3.566-3.566s3.566,1.598,3.566,3.566
				C67.75,155.298,66.15,156.896,64.185,156.896z"/>
			<rect x="35.658" y="89.146" width="131.986" height="7.132"/>
			<rect x="21.395" y="78.449" width="164.027" height="7.132"/>
		</g>
	</g>
</g>
<g>
</g>
<g>
</g>
<g>
</g>
<g>
</g>
<g>
</g>
<g>
</g>
<g>
</g>
<g>
</g>
<g>
</g>
<g>
</g>
<g>
</g>
<g>
</g>
<g>
</g>
<g>
</g>
<g>
</g>
</svg>
