<?xml version="1.0" encoding="iso-8859-1"?>
<!-- Generator: Adobe Illustrator 19.0.0, SVG Export Plug-In . SVG Version: 6.00 Build 0)  -->
<svg version="1.1" id="Capa_1" xmlns="http://www.w3.org/2000/svg" xmlns:xlink="http://www.w3.org/1999/xlink" x="0px" y="0px"
	 viewBox="0 0 426.667 426.667" style="enable-background:new 0 0 426.667 426.667;" xml:space="preserve">
<g>
	<g>
		<g>
			<path d="M71.573,88.298c19.307,13.44,45.867,8.747,59.307-10.453c13.547-19.307,8.853-45.867-10.453-59.413
				C101.12,4.885,74.56,9.578,61.013,28.885C47.573,48.191,52.267,74.751,71.573,88.298z"/>
			<path d="M84.587,319.125l-41.92-201.813H0l42.56,208.107c7.893,52.053,52.693,90.56,105.387,90.56h150.72v-42.667H147.84
				C116.267,373.311,89.387,350.271,84.587,319.125z"/>
			<path d="M303.573,287.978H199.467L177.6,200.511c33.6,18.987,69.973,32.96,109.867,26.027v-45.333
				c-34.773,6.507-73.387-5.867-100.053-26.56l-35.093-27.307c-4.8-3.733-10.453-6.4-16.32-8.107
				c-6.72-1.92-13.973-2.453-21.12-1.28l-0.533,0.107c-26.133,4.587-43.627,29.44-39.04,55.573l28.907,126.293
				c5.76,30.187,32.107,52.053,62.827,52.053h146.133l81.493,64l32-32L303.573,287.978z"/>
		</g>
	</g>
</g>
<g>
</g>
<g>
</g>
<g>
</g>
<g>
</g>
<g>
</g>
<g>
</g>
<g>
</g>
<g>
</g>
<g>
</g>
<g>
</g>
<g>
</g>
<g>
</g>
<g>
</g>
<g>
</g>
<g>
</g>
</svg>
