<svg height="511pt" viewBox="0 0 511.9995 511" width="511pt" xmlns="http://www.w3.org/2000/svg"><path d="m501.996094 452.496094v-174.996094h.011718c4.558594 0 8.679688-3.140625 9.738282-7.777344 1.230468-5.386718-2.140625-10.746094-7.523438-11.972656l-2.855468-.652344c-90.96875-20.761718-174.402344-71.003906-235.367188-141.617187v-19.953125l63.636719-36.742188c3.09375-1.785156 5-5.085937 5-8.660156 0-3.570312-1.90625-6.871094-5-8.660156l-68.636719-39.625c-3.09375-1.7851565-6.90625-1.7851565-10 0-2.894531 1.671875-4.730469 4.671875-4.957031 7.976562-.027344.191406-.042969.414063-.042969.683594v104.980469c-60.964844 70.613281-144.398438 120.855469-235.367188 141.617187l-2.855468.652344c-5.386719 1.226562-8.753906 6.585938-7.523438 11.972656 1.058594 4.636719 5.175782 7.777344 9.738282 7.777344h.011718v174.996094c-5.523437 0-9.99999975 4.480468-9.99999975 10v40c0 5.523437 4.47656275 10 9.99999975 10h491.996094c5.519531 0 10-4.476563 10-10v-40c-.003906-5.523438-4.480469-10-10.003906-10zm-141.578125-231.214844c37.929687 23.027344 78.765625 40.347656 121.578125 51.628906v179.585938h-68.308594c-75.957031-69.832032-127.804688-163.980469-146.117188-265.558594l-1.570312-8.71875v-32.949219c27.964844 29.375 59.625 54.886719 94.417969 76.011719zm-94.417969-148.847656v-44.613282l38.636719 22.308594zm-236 200.472656c42.816406-11.277344 83.652344-28.597656 121.582031-51.628906 34.789063-21.125 66.453125-46.632813 94.417969-76.007813v32.542969l-1.644531 9.125c-18.308594 101.578125-70.160157 195.722656-146.117188 265.558594h-68.238281zm461.996094 219.589844h-471.996094v-20h191.125c5.523438 0 10-4.476563 10-10 0-5.523438-4.476562-10-10-10h-84.003906c32.433594-32.46875 60.132812-69.175782 82.492187-109.433594 20.351563-36.652344 35.867188-75.503906 46.351563-115.898438 10.480468 40.394532 25.996094 79.246094 46.351562 115.898438 22.355469 40.257812 50.054688 76.960938 82.488282 109.433594h-83.679688c-5.523438 0-10 4.476562-10 10 0 5.523437 4.476562 10 10 10h190.871094zm0 0"/><path d="m417.914062 124.289062c22.101563 0 40.082032-17.980468 40.082032-40.082031v-58.445312c6.941406 3.917969 13.015625 9.238281 17.839844 15.660156 3.316406 4.417969 9.582031 5.3125 14 1.992187 4.417968-3.316406 5.308593-9.582031 1.992187-14-8.714844-11.605468-20.464844-20.53125-33.988281-25.808593l-6.207032-2.421875c-3.078124-1.199219-6.550781-.804688-9.277343 1.058594-2.726563 1.863281-4.355469 4.957031-4.355469 8.257812v39.042969c-5.910156-3.4375-12.769531-5.417969-20.085938-5.417969-22.101562 0-40.082031 17.980469-40.082031 40.082031 0 22.101563 17.980469 40.082031 40.082031 40.082031zm0-60.164062c11.074219 0 20.082032 9.007812 20.082032 20.082031s-9.007813 20.082031-20.082032 20.082031c-11.074218 0-20.082031-9.007812-20.082031-20.082031s9.007813-20.082031 20.082031-20.082031zm0 0"/><path d="m64.652344 178.289062c22.101562 0 40.085937-17.980468 40.085937-40.082031v-58.445312c6.9375 3.917969 13.011719 9.234375 17.835938 15.660156 3.316406 4.417969 9.582031 5.3125 14 1.992187 4.417969-3.316406 5.308593-9.582031 1.992187-14-8.714844-11.605468-20.464844-20.53125-33.988281-25.808593l-6.207031-2.421875c-3.078125-1.199219-6.546875-.804688-9.273438 1.058594-2.730468 1.863281-4.359375 4.953124-4.359375 8.257812v39.042969c-5.910156-3.4375-12.769531-5.417969-20.082031-5.417969-22.101562 0-40.085938 17.980469-40.085938 40.082031 0 22.101563 17.984376 40.082031 40.082032 40.082031zm0-60.164062c11.074218 0 20.085937 9.007812 20.085937 20.082031s-9.011719 20.082031-20.085937 20.082031c-11.074219 0-20.082032-9.007812-20.082032-20.082031s9.007813-20.082031 20.082032-20.082031zm0 0"/><path d="m256 452.496094c-2.628906 0-5.210938 1.070312-7.070312 2.929687-1.859376 1.859375-2.929688 4.441407-2.929688 7.070313s1.066406 5.210937 2.929688 7.070312c1.859374 1.859375 4.441406 2.929688 7.070312 2.929688s5.210938-1.070313 7.066406-2.929688c1.863282-1.859375 2.933594-4.441406 2.933594-7.070312s-1.070312-5.210938-2.933594-7.070313c-1.855468-1.859375-4.4375-2.929687-7.066406-2.929687zm0 0"/></svg>