<svg class="panel-logo" width="26px" height="36px" viewBox="0 0 26 36" version="1.1" xmlns="http://www.w3.org/2000/svg"
>
    <g stroke="none" stroke-width="1" fill="none" fill-rule="evenodd">
        <path d="M14.1520378,24.2403784 C13.2885243,24.9083243 12.0854432,24.9234054 11.2034432,24.289027 L11.2034432,27.3539459 C11.4569027,27.5694595 11.9482541,27.8881081 12.6473351,27.8881081 C13.2603081,27.8881081 13.8027405,27.5947568 14.1515514,27.3481081"
              fill="#E78624"></path>
        <path d="M14.3720757,1.21115676 C13.4068865,0.245481081 11.8433189,0.244994595 10.8791027,1.20872432 L0.722237838,11.3655892 C-0.241491892,12.3293189 -0.240518919,13.893373 0.72467027,14.8590486 L3.97926486,18.1131568 L6.49877838,20.6336432 L9.86867027,24.0030486 L10.8966162,25.0314811 C10.993427,25.1273189 11.0965622,25.2114811 11.2031027,25.2883459 L11.2031027,28.2228324 L11.2031027,34.215373 C11.2031027,35.0389946 11.8637514,35.7064541 12.6771568,35.7064541 C13.4915351,35.7064541 14.1516973,35.0389946 14.1516973,34.215373 L14.1516973,28.2228324 L14.1516973,26.3484 C13.8028865,26.5950486 13.2604541,26.8879135 12.6474811,26.8879135 C11.9479135,26.8879135 11.4570486,26.5697514 11.2035892,26.3532649 L11.2035892,25.2888324 C12.0855892,25.9236973 13.2881838,25.9076432 14.1521838,25.2401838 C14.2344,25.1769405 14.3146703,25.1093189 14.3900757,25.0339135 L15.4871027,23.937373 L18.7903459,20.6336432 L21.093373,18.3296432 L24.547427,14.8765622 C25.5106703,13.9128324 25.5096973,12.3482919 24.5445081,11.3835892 L14.3720757,1.21115676 Z"
              id="Fill-1" fill="#F9AD1B"></path>
        <path d="M18.2966595,12.2097405 C18.1404973,15.2303351 15.6492,17.6326054 12.590173,17.6326054 C9.53065946,17.6326054 7.03936216,15.2303351 6.88368649,12.2097405 L5.31379459,12.2097405 C5.38774054,16.1366595 8.59174054,19.2983351 12.536173,19.2983351 C16.4815784,19.2983351 19.6850919,16.1366595 19.7585514,12.2097405 L18.2966595,12.2097405 Z"
              fill="#E78624"></path>
    </g>
</svg>
