<?xml version="1.0" encoding="UTF-8" standalone="no"?>
<svg
   xmlns:dc="http://purl.org/dc/elements/1.1/"
   xmlns:cc="http://creativecommons.org/ns#"
   xmlns:rdf="http://www.w3.org/1999/02/22-rdf-syntax-ns#"
   xmlns:svg="http://www.w3.org/2000/svg"
   xmlns="http://www.w3.org/2000/svg"
   xmlns:sodipodi="http://sodipodi.sourceforge.net/DTD/sodipodi-0.dtd"
   xmlns:inkscape="http://www.inkscape.org/namespaces/inkscape"
   version="1.1"
   x="0px"
   y="0px"
   viewBox="0 0 73.533912 62.171177"
   enable-background="new 0 0 100 100"
   xml:space="preserve"
   id="svg8"
   sodipodi:docname="Biodome.svg"
   inkscape:version="1.0.1 (3bc2e813f5, 2020-09-07)"
   width="73.533913"
   height="62.171177"><metadata
     id="metadata14"><rdf:RDF><cc:Work
         rdf:about=""><dc:format>image/svg+xml</dc:format><dc:type
           rdf:resource="http://purl.org/dc/dcmitype/StillImage" /><dc:title></dc:title></cc:Work></rdf:RDF></metadata><defs
     id="defs12"><clipPath
       clipPathUnits="userSpaceOnUse"
       id="clipPath78"><rect
         style="fill:#0000ff;fill-rule:evenodd;stroke-width:1.83144"
         id="rect80"
         width="79.932091"
         height="81.176468"
         x="-0.079145983"
         y="-10.441176" /></clipPath><clipPath
       clipPathUnits="userSpaceOnUse"
       id="clipPath84"><rect
         style="fill:#0000ff;fill-rule:evenodd"
         id="rect86"
         width="89.411766"
         height="80.441177"
         x="6.3235292"
         y="-0.44117647" /></clipPath><clipPath
       clipPathUnits="userSpaceOnUse"
       id="clipPath90"><rect
         style="fill:#0000ff;fill-rule:evenodd"
         id="rect92"
         width="86.029411"
         height="74.705879"
         x="6.3235292"
         y="-0.44117647" /></clipPath><clipPath
       clipPathUnits="userSpaceOnUse"
       id="clipPath96"><rect
         style="fill:#0000ff;fill-rule:evenodd"
         id="rect98"
         width="89.260246"
         height="64.97464"
         x="-2.3484907"
         y="-2.9411764" /></clipPath><clipPath
       clipPathUnits="userSpaceOnUse"
       id="clipPath110"><rect
         style="fill:#0000ff;fill-rule:evenodd;stroke-width:1.01363"
         id="rect112"
         width="74.054611"
         height="63.053532"
         x="6.2395096"
         y="-0.88235295"
         ry="2.3695192" /></clipPath></defs><sodipodi:namedview
     pagecolor="#ffffff"
     bordercolor="#666666"
     borderopacity="1"
     objecttolerance="10"
     gridtolerance="10"
     guidetolerance="10"
     inkscape:pageopacity="0"
     inkscape:pageshadow="2"
     inkscape:window-width="1920"
     inkscape:window-height="1017"
     id="namedview10"
     showgrid="false"
     inkscape:zoom="6.8"
     inkscape:cx="33.053588"
     inkscape:cy="49.080229"
     inkscape:window-x="-8"
     inkscape:window-y="-8"
     inkscape:window-maximized="1"
     inkscape:current-layer="svg8"
     fit-margin-top="0"
     fit-margin-left="0"
     fit-margin-right="0"
     fit-margin-bottom="0"
     inkscape:document-rotation="0" /><path
     fill="#000000"
     d="m 79.109098,33.724 c 0,-0.004 -0.004,-0.005 -0.006,-0.01 0,-0.004 0.004,-0.006 0.003,-0.01 l -1.294,-6.149 c -0.001,-0.004 -0.005,-0.005 -0.006,-0.009 0,-0.003 0.002,-0.006 10e-4,-0.009 -10e-4,-0.004 -0.006,-0.005 -0.007,-0.009 -0.001,-0.003 10e-4,-0.007 0,-0.01 l -2.55,-5.719 c -10e-4,-0.004 -0.006,-0.004 -0.007,-0.008 -0.002,-0.002 0,-0.006 -0.002,-0.009 l -3.094,-5.344 c -0.003,-0.006 -0.012,-0.006 -0.015,-0.012 -0.005,-0.006 -0.003,-0.013 -0.007,-0.019 l -3.975,-4.424 v 0 l -0.149,-0.169 c -0.003,-0.003 -0.007,-0.003 -0.01,-0.005 -0.002,-0.002 -0.002,-0.007 -0.005,-0.01 l -4.668,-4.199 c -0.004,-0.004 -0.01,-0.002 -0.014,-0.005 -0.003,-0.003 -0.003,-0.009 -0.007,-0.011 -0.002,-10e-4 -0.005,0 -0.006,-10e-4 -0.002,-0.001 -0.002,-0.005 -0.005,-0.006 l -5.418,-3.132 c -0.006,-0.003 -0.012,0 -0.018,-0.002 -0.005,-0.002 -0.006,-0.008 -0.012,-0.011 l -0.199,-0.072 -5.434,-2.417 c -0.006,-0.002 -0.013,0.002 -0.019,0 -0.007,-0.002 -0.009,-0.01 -0.017,-0.012 l -6.019,-1.293 c -0.003,-0.002 -0.006,0.002 -0.009,0.001 -0.004,0 -0.006,-0.005 -0.01,-0.005 l -6.238,-0.633 c -0.003,0 -0.004,0.003 -0.008,0.003 -0.005,0 -0.007,-0.004 -0.011,-0.004 -0.006,0 -0.012,0.001 -0.019,0.001 l -6.225,0.638 c -0.004,0 -0.006,0.005 -0.01,0.005 -0.004,0.001 -0.006,-0.003 -0.01,-0.001 l -6.017,1.292 c -0.007,0.002 -0.009,0.009 -0.015,0.011 -0.008,0.001 -0.014,-0.002 -0.021,0 l -5.467,2.417 c -0.001,0 -0.001,0 -0.002,0 l -0.188,0.074 c -0.005,0.003 -0.006,0.008 -0.011,0.01 -0.004,0.002 -0.008,0 -0.013,0.002 l -5.438,3.132 c -0.004,0.002 -0.004,0.007 -0.007,0.009 -0.004,0.002 -0.008,0 -0.011,0.003 -0.003,0.002 -0.003,0.006 -0.005,0.007 -0.002,0.002 -0.006,0.001 -0.008,0.004 l -4.632,4.199 c -10e-4,0.002 -10e-4,0.003 -10e-4,0.004 -0.002,10e-4 -0.005,10e-4 -0.006,0.002 l -0.169,0.169 c -10e-4,10e-4 -10e-4,0.005 -0.002,0.006 -0.001,10e-4 -0.004,10e-4 -0.005,0.003 l -3.9520002,4.424 c -0.005,0.005 -0.003,0.013 -0.006,0.019 -0.005,0.005 -0.012,0.005 -0.016,0.011 l -3.094,5.344 c -10e-4,0.003 0,0.007 -10e-4,0.009 -0.001,0.004 -0.006,0.004 -0.007,0.008 l -2.55,5.719 c -0.002,0.003 10e-4,0.007 0,0.01 -0.002,0.004 -0.006,0.005 -0.008,0.009 -10e-4,0.003 0.002,0.006 0.002,0.009 -0.002,0.004 -0.005,0.005 -0.006,0.009 l -1.31200002,6.149 c -0.002,0.004 0.002,0.006 0.002,0.01 -0.001,0.005 -0.006,0.006 -0.006,0.01 L 9.7777778e-5,39.839 c -9.99999998e-4,0.007 0.0060000022,0.012 0.0060000022,0.019 0,0.006 -0.007000002,0.011 -0.0060000022,0.018 L 0.60109778,45.801 c 0,0.004 0.003,0.005 0.003,0.007 0.001,0.003 -0.001,0.005 -0.001,0.008 l 0.037,0.206 c 0,0.001 0.002,0.001 0.002,0.003 0.001,0 0,0.002 0,0.003 l 1.31200002,6.149 c 0,0.003 0.003,0.005 0.004,0.008 0,0.002 -0.002,0.006 -10e-4,0.008 10e-4,0.005 0.006,0.007 0.009,0.011 10e-4,0.003 -0.002,0.007 0,0.011 l 2.55,5.719 c 0,0.001 0.002,0.001 0.003,0.002 0,10e-4 -0.001,0.004 0,0.005 l 0.094,0.188 c 0.002,0.001 0.004,0.001 0.004,0.002 0.001,0.003 0,0.005 0.001,0.007 l 3,5.156 c 0.004,0.006 0.011,0.004 0.015,0.009 0.004,0.007 0.002,0.017 0.008,0.022 l 4.1250002,4.594 c 0.002,0.002 0.006,0.001 0.008,0.003 0.003,0.003 0.003,0.007 0.005,0.01 l 4.632,4.2 c 0.002,0.002 0.007,10e-4 0.01,0.003 0.002,0.003 0.002,0.006 0.004,0.007 0.004,0.003 0.007,0.002 0.011,0.004 0.002,0.002 0.002,0.006 0.006,0.008 l 5.438,3.132 c 0.003,0.002 0.008,0.001 0.012,0.003 0.002,0.002 0.003,0.005 0.006,0.006 l 5.662,2.494 c 0.01,0.004 0.019,0.004 0.028,0.006 0.004,0.001 0.005,0.005 0.007,0.005 l 5.812,1.237 c 0.001,0 0.004,0 0.005,10e-4 10e-4,0 10e-4,0 10e-4,0 l 0.206,0.038 c 0.004,0.001 0.008,0.001 0.011,0.001 0.001,0 0.001,0.001 0.003,0.001 l 6.225,0.656 c 0.006,0 0.013,0.001 0.019,0.001 0.006,0 0.013,-0.001 0.019,-0.001 l 6.244,-0.656 c 10e-4,0 10e-4,-0.001 0.002,-0.001 0.004,0 0.008,0 0.011,-0.001 l 0.206,-0.038 c 0,0 0,0 0.002,0 0.001,-10e-4 0.003,-10e-4 0.004,-10e-4 l 5.812,-1.237 c 0.003,0 0.004,-0.004 0.008,-0.005 0.009,-0.002 0.019,-0.002 0.027,-0.006 l 5.645,-2.495 c 0.002,-10e-4 0.002,-0.003 0.004,-0.005 0.004,-0.002 0.01,-0.001 0.014,-0.003 l 5.418,-3.132 c 0.003,-10e-4 0.003,-0.003 0.005,-0.006 0.003,-10e-4 0.006,0 0.009,-0.002 0.003,-0.002 0.002,-0.007 0.006,-0.01 0.003,-0.002 0.008,-10e-4 0.012,-0.004 l 4.668,-4.2 c 0.003,-0.003 0.003,-0.007 0.005,-0.01 0.003,-0.002 0.006,-10e-4 0.009,-0.003 l 4.125,-4.594 c 0.006,-0.006 0.003,-0.016 0.008,-0.022 0.004,-0.005 0.011,-0.003 0.014,-0.009 l 2.959,-5.148 0.127,-0.182 c 0.005,-0.008 10e-4,-0.016 0.005,-0.022 0.002,-0.004 0.009,-0.003 0.012,-0.007 l 2.55,-5.719 c 0.001,-0.004 -10e-4,-0.008 0,-0.011 0.002,-0.004 0.007,-0.006 0.008,-0.011 0.002,-0.002 -0.001,-0.006 -0.001,-0.008 0.001,-0.003 0.005,-0.005 0.005,-0.008 l 1.294,-6.149 c 0.001,-0.004 -0.003,-0.007 -0.003,-0.011 0.002,-0.004 0.006,-0.006 0.006,-0.011 l 0.02,-0.204 v 0 l 0.637,-5.925 c 0.002,-0.007 -0.006,-0.012 -0.006,-0.019 0,-0.007 0.008,-0.012 0.006,-0.019 z m -39.525,6.037 -4.397,1.427 1.692,-5.16 z m -2.413,-3.944 h 5.425 l -2.722,3.732 z m 2.522,4.285 v 4.647 l -4.397,-3.22 z m 0.362,0 4.398,1.428 -4.398,3.22 z m 0.11,-0.341 2.722,-3.733 1.676,5.16 z m -3.047,-4.305 2.757,-5.193 2.774,5.193 z m -2.29,5.671 -4.077,-4.229 5.802,-1.031 z m 4.698,3.947 -5.278,2.555 0.795,-5.838 z m 5.18,-3.283 0.812,5.838 -5.295,-2.555 z m -1.493,-5.925 5.768,1.031 -4.059,4.229 z m -3.016,-5.762 5.974,0.796 -3.198,4.398 z m -3.404,5.194 -3.196,-4.397 5.954,-0.795 z m -0.289,0.212 -5.805,1.033 2.606,-5.432 z m -1.928,5.876 -5.176,1.692 1.099,-5.92 z m 0.113,0.342 -0.796,5.836 -4.38,-4.145 z m 5.004,3.664 v 5.428 l -5.275,-2.874 z m 0.362,0 5.295,2.554 -5.295,2.876 z m 5.006,-3.664 5.178,1.691 -4.365,4.146 z m 0.11,-0.342 4.06,-4.229 1.117,5.921 z m -1.907,-5.876 3.196,-4.396 2.57,5.428 z m -3.086,-5.77 3.039,-4.754 2.953,5.552 z m -6.582,0.798 2.92,-5.55 3.054,4.752 z m -3.249,5.909 -3.582,-4.38 6.198,-1.07 z m -1.292,6.521 -4.38,-4.515 5.483,-1.427 z m 4.638,4.904 -5.262,2.055 0.866,-6.212 z m 5.789,3.244 -5.635,2.767 0.338,-5.653 z m 6.098,-2.887 0.34,5.653 -5.653,-2.767 z m 4.871,-4.516 0.883,6.213 -5.262,-2.054 z m -0.879,-6.687 5.483,1.427 -4.362,4.515 z m -2.767,-6.029 6.197,1.07 -3.617,4.38 z m 0.004,-0.363 3.476,-4.771 2.743,5.844 z m -0.291,-0.211 -2.965,-5.572 6.44,0.802 z m -6.644,-0.875 -3.046,-4.737 h 6.074 z m -6.626,0.874 -3.475,-4.77 6.406,-0.802 z m -0.289,0.212 -6.219,1.073 2.743,-5.844 z m -2.89,6.042 -5.465,1.422 1.896,-5.787 z m -1.23,6.586 -5.605,1.84 1.21,-6.372 z m 0.111,0.342 -0.868,6.234 -4.736,-4.395 z m 4.878,4.602 -0.338,5.635 -4.907,-3.587 z m 5.865,3.208 v 5.892 l -5.654,-3.116 z m 0.362,0 5.672,2.775 -5.672,3.117 z m 5.884,-3.208 5.245,2.048 -4.906,3.587 z m 4.861,-4.602 5.604,1.84 -4.718,4.395 z m 0.11,-0.343 4.378,-4.531 1.227,6.371 z m -1.248,-6.583 3.604,-4.367 1.86,5.788 z m 0.97,-10.92 6.321,1.243 -3.578,4.6 z m -7.087,-1.27 3.271,-4.823 3.17,5.624 z m -6.729,-0.038 3.058,-5.112 3.039,5.112 z m -7.037,0.839 3.152,-5.623 3.255,4.822 z m -3.387,6.311 -3.577,-4.6 6.32,-1.243 z m -2.134,6.398 -3.906,-4.483 5.809,-1.325 z m -1.369,6.984 -4.378,-4.753 5.588,-1.618 z m 4.983,5.153 -5.503,1.978 0.768,-6.372 z m 5.416,4.005 -5.451,2.326 0.526,-5.927 z m 6.187,3.458 -5.842,2.69 0.188,-5.808 z m 6.472,-3.118 0.188,5.808 -5.859,-2.69 z m 5.457,-3.941 0.526,5.927 -5.452,-2.326 z m 5.207,-4.797 0.75,6.37 -5.468,-1.975 z m -0.98,-7.131 5.606,1.618 -4.379,4.754 z m -2.026,-6.422 5.791,1.324 -3.924,4.484 z m 0.047,-0.359 3.566,-4.585 2.225,5.909 z m -3.023,-6.441 3.373,-4.669 2.947,5.913 z m -0.292,-0.21 -3.17,-5.624 6.545,0.955 z m -7.096,-0.884 -3.041,-5.112 6.302,0.306 z m -6.751,0 -3.245,-4.807 6.302,-0.306 z m -7.06,0.884 -3.392,-4.67 6.545,-0.954 z m -0.291,0.21 -6.322,1.244 2.931,-5.912 z m -3.024,6.441 -5.809,1.324 2.241,-5.91 z m -2.105,6.431 -5.571,1.613 1.664,-6.097 z m -1.334,7.021 -5.488,1.756 1.109,-6.51 z m 0.112,0.343 -0.769,6.371 -4.719,-4.617 z m 5.22,4.846 -0.527,5.93 -4.961,-3.959 z m 5.451,3.986 -0.186,5.79 -5.266,-3.464 z m 6.234,3.435 v 5.776 l -5.843,-3.084 z m 0.362,0 5.861,2.692 -5.861,3.084 z m 6.253,-3.435 5.452,2.326 -5.266,3.464 z m 5.452,-3.986 5.452,1.97 -4.925,3.957 z m 5.201,-4.846 5.504,1.754 -4.754,4.618 z m 0.111,-0.343 4.381,-4.755 1.125,6.511 z m -1.35,-7.021 3.925,-4.485 1.664,6.099 z m 4.063,-5.22 -2.216,-5.887 5.532,1.625 z m 3.555,-3.984 1.888,5.748 -5.192,-1.5 z m -8.972,-8.409 6.073,1.577 -3.138,4.311 z m -7.217,-1.459 3.156,-4.326 3.359,5.276 z m -6.949,-0.367 3.028,-4.483 3.25,4.788 z m -0.328,-0.156 -3.035,-4.468 h 6.053 z m -0.328,0.156 -6.278,0.305 3.231,-4.788 z m -13.465,1.318 3.378,-5.278 3.139,4.328 z m -3.617,6.395 -3.156,-4.31 6.073,-1.577 z m -2.501,6.507 -3.316,-4.263 5.55,-1.625 z m -0.25,0.264 -5.175,1.5 1.872,-5.748 z m 0.047,0.362 -1.658,6.074 -3.535,-4.568 z m -2.909,13.213 -3.987,-4.836 5.09,-1.646 z m 4.967,5.42 -5.092,1.664 0.39,-6.263 z m 5.45,4.388 -5.111,1.845 0.169,-5.788 z m 0.172,0.319 -0.201,5.398 -4.892,-3.56 z m 0.358,0.066 5.245,3.452 -5.447,1.963 z m 11.645,6.87 -5.82,2.29 v -5.361 z m 6.701,-3.071 v 5.362 l -5.837,-2.291 z m 5.823,-3.798 0.187,5.415 -5.431,-1.963 z m 0.359,-0.067 5.076,1.839 -4.891,3.558 z m 0.173,-0.319 4.906,-3.942 0.187,5.787 z m 10.149,-8.987 0.356,6.263 -5.092,-1.663 z m -0.853,-7.303 5.091,1.646 -3.97,4.836 z m -1.807,-6.731 5.213,1.506 -3.555,4.569 z m 3.708,-4.681 4.371,1.712 -2.511,3.957 z m -6.127,-2.208 3.129,-4.295 2.401,5.92 z m -3.236,-6.513 2.921,-4.003 3.126,5.573 z m -0.292,-0.211 -3.345,-5.253 6.267,1.251 z m -7.206,-1.043 -3.247,-4.787 6.394,0.475 z m -9.952,-5.174 2.991,-3.606 2.975,3.606 z m -3.971,5.174 -3.129,-4.312 6.359,-0.475 z m -7.203,1.044 -2.905,-4.003 6.266,-1.25 z m -0.291,0.21 -6.047,1.57 3.141,-5.573 z m -3.222,6.513 -5.548,1.625 2.402,-5.92 z m -7.987,7.875 -2.509,-3.955 4.354,-1.712 z m 3.673,5.39 -5.074,1.641 1.54,-6.207 z m -1.228,7.166 -4.712,1.536 0.743,-6.349 z m 0.112,0.343 -0.389,6.232 -4.324,-4.695 z m 5.202,5.078 -0.17,5.783 -4.903,-4.126 z m 5.022,10.039 -4.52,1.163 -0.299,-4.67 z m 6.273,-1.839 v 5.345 l -5.446,-3.383 z m 6.43,3.401 v 4.93 l -5.79,-2.651 z m 0.362,-0.001 5.808,2.279 -5.808,2.651 z m 6.45,-3.401 5.429,1.963 -5.429,3.383 z m 11.073,-1.668 -0.283,4.671 -4.537,-1.163 z m 0.185,-6.531 5.074,1.658 -4.888,4.127 z m 5.237,-5.078 4.695,1.537 -4.342,4.694 z m 0.111,-0.343 3.951,-4.812 0.743,6.349 z m -1.244,-7.166 3.552,-4.566 1.522,6.207 z m 6.418,-9.015 1.845,5.564 -4.354,-1.611 z m -4.605,-2.434 2.592,-3.873 1.779,5.585 z m -0.236,-0.296 -2.378,-5.859 4.99,1.958 z m -5.781,-12.041 5.466,1.904 -2.373,3.61 z m -7.021,-1.834 2.691,-3.395 3.511,4.632 z m -7.061,-0.561 2.914,-3.684 3.416,4.152 z m -0.352,-0.131 -2.975,-3.606 5.865,-0.049 z m -6.725,-0.002 -2.857,-3.653 5.847,0.049 z m -0.354,0.133 -6.295,0.469 3.415,-4.15 z m -13.227,1.798 3.511,-4.632 2.692,3.395 z m -3.929,6.112 -2.375,-3.611 5.483,-1.906 z m -2.689,6.526 -2.612,-3.901 4.989,-1.958 z m -0.237,0.296 -4.354,1.712 1.762,-5.584 z m -2.078,6.387 -4.3880002,1.611 1.8780002,-5.566 z m 0.015,0.378 -1.523,6.146 -2.8970002,-4.522 z m -2.399,13.151 -3.3100002,-4.78 4.0450002,-1.503 z m 4.593,5.613 -4.125,1.152 -0.15,-5.795 z m 5.392,4.588 -4.521,1.271 -0.335,-5.356 z m 0.212,0.315 0.299,4.669 -4.786,-3.407 z m 5.432,3.951 0.199,4.652 -4.719,-3.488 z m 0.364,0.103 5.392,3.349 -5.189,1.34 z m 11.766,6.328 -5.546,1.67 -0.185,-4.294 z m 6.767,-2.624 -0.184,4.294 -5.564,-1.671 z m 6.018,-3.704 -0.185,4.688 -5.19,-1.34 z m 0.364,-0.103 4.538,1.164 -4.721,3.49 z m 5.431,-3.951 4.487,1.262 -4.77,3.407 z m 0.21,-0.316 4.84,-4.085 -0.318,5.357 z m 9.672,-9.234 -0.134,5.799 -4.161,-1.153 z m -0.421,-7.25 4.045,1.503 -3.308,4.781 z m -1.645,-6.867 4.386,1.624 -2.88,4.519 z m 2.876,-4.416 3.621,1.632 -1.811,3.833 z m -1.998,-6.258 3.72,2.039 -1.975,3.443 z m -5.624,-2.655 2.364,-3.597 2.598,5.544 z m -3.452,-6.191 2.161,-2.971 3.234,4.852 z m -0.291,-0.211 -3.466,-4.571 5.628,1.601 z m -6.957,-1.372 -3.397,-4.131 6.08,0.75 z m -10.031,-4.492 2.676,-2.953 3.083,2.903 z m -0.41,-0.084 -2.651,-2.944 h 5.32 z m -0.407,0.084 -5.742,-0.05 3.083,-2.902 z m -10.016,4.492 -2.682,-3.381 6.079,-0.75 z m -6.956,1.372 -2.179,-2.971 5.646,-1.602 z m -0.292,0.211 -5.414,1.883 3.236,-4.854 z m -3.47,6.191 -4.962,1.947 2.599,-5.544 z m -7.35,8.138 -1.9910002,-3.444 3.7210002,-2.039 z m -2.1000002,6.241 -1.794,-3.834 3.6390002,-1.632 z m 3.0000002,5.454 -4.0280002,1.499 1.149,-5.993 z m -0.838,7.045 -3.4810002,1.138 0.214,-5.857 z m 0.111,0.343 0.149,5.726 -3.6300002,-4.587 z m 4.809,5.199 0.333,5.325 -4.442,-4.177 z m 5.502,9.52 -3.9,0.815 -0.8,-4.161 z m 0.28,0.307 0.423,3.955 -4.313,-3.142 z m 0.381,0.171 4.637,3.428 -4.213,0.539 z m 10.745,2.279 0.183,4.276 -5.342,-2.944 z m 6.42,2.957 v 3.68 l -5.479,-2.029 z m 0.362,-0.001 5.496,1.651 -5.496,2.03 z m 6.439,-2.956 5.158,1.332 -5.341,2.944 z m 10.742,-2.277 -0.44,3.965 -4.194,-0.539 z m 0.383,-0.173 3.891,0.813 -4.33,3.142 z m 0.281,-0.307 4.683,-3.346 -0.783,4.161 z m 5.465,-9.52 4.146,1.148 -4.462,4.179 z m 4.827,-5.199 3.499,1.139 -3.63,4.588 z m 0.111,-0.343 3.27,-4.723 0.23,5.862 z m -0.838,-7.045 2.863,-4.493 1.164,5.99 z m 4.99,-8.859 1.455,5.339 -3.252,-1.536 z m -3.864,-2.477 1.969,-3.433 1.644,5.061 z m -2.016,-6.288 1.731,-3.154 1.958,5.177 z m -0.231,-0.326 -2.549,-5.438 4.296,2.254 z m -6.111,-10.93 4.997,2.304 -1.818,2.466 z m -6.6,-2.35 1.783,-2.465 3.745,4.037 z m -6.765,-0.876 2.48,-2.628 3.478,3.363 z m -0.382,-0.119 -3.059,-2.879 5.517,0.273 z m -9.107,-3.264 2.496,-1.792 2.512,1.792 z m -4.098,3.265 -2.492,-2.606 5.551,-0.273 z m -0.384,0.118 -5.96,0.735 3.445,-3.363 z m -12.313,2.449 3.73,-4.038 1.816,2.466 z m -4.248,5.546 -1.8,-2.465 4.978,-2.303 z m -2.93,6.16 -1.73,-3.183 4.277,-2.254 z m -0.232,0.326 -3.6880002,2.022 1.9740002,-5.176 z m -1.999,6.29 -3.6290002,1.627 1.643,-5.062 z m -2.1030002,6.278 -3.234,1.537 1.456,-5.338 z m -0.004,0.401 -1.127,5.875 -2.137,-4.324 z m -1.45,12.442 -2.674,-4.798 2.884,-0.956 z m 3.9800002,5.77 -2.9200002,0.958 -0.649,-5.468 z m 4.925,4.685 -3.559,0.652 -0.8,-4.749 z m 0.24,0.323 0.792,4.123 -4.317,-3.477 z m 5.469,8.004 -3.097,-0.03 -0.966,-2.928 z m 5.243,-0.233 0.453,3.561 -4.627,-3.025 z m 0.379,0.129 5.24,2.889 -4.783,0.702 z m 11.361,5.243 -5.385,1.07 v -3.064 z m 6.723,-1.995 v 3.066 l -5.401,-1.071 z m 5.974,-3.246 -0.474,3.589 -4.765,-0.7 z m 0.379,-0.129 4.157,0.533 -4.626,3.024 z m 9.303,-2.727 -0.98,2.927 -3.096,0.03 z m 1.393,-5.047 3.542,0.647 -4.319,3.479 z m 0.24,-0.322 4.377,-4.1 -0.801,4.752 z m 8.511,-9.195 -0.648,5.468 -2.921,-0.958 z m 0.182,-7.016 2.903,0.958 -2.676,4.801 z m -1.257,-6.686 3.281,1.551 -2.139,4.325 z m 2.098,-4.446 2.596,0.855 -1.171,4.369 z m -1.812,-5.631 2.482,1.825 -0.935,2.942 z m -0.093,-0.516 1.558,-2.158 0.94,3.995 z m -0.2,-0.337 -1.915,-5.063 3.512,2.849 z m -6.981,-8.272 1.805,-2.448 2.433,4.673 z m -3.67,-5.522 1.566,-2.174 3.357,4.444 z m -0.292,-0.213 -3.695,-3.981 5.262,1.807 z m -6.399,-1.807 -3.431,-3.317 5.201,0.869 z m -10.025,-4.072 1.599,-2.199 3.797,2.469 z m -0.381,-0.086 -2.53,-1.806 4.089,-0.339 z m -6.051,-0.001 -1.572,-2.144 4.086,0.339 z m -0.382,0.087 -5.43,0.27 3.816,-2.469 z m -10.022,4.072 -1.804,-2.448 5.202,-0.869 z m -6.418,1.806 -1.566,-2.174 5.245,-1.807 z m -0.291,0.214 -4.909,2.271 3.342,-4.446 z m -3.67,5.522 -4.219,2.222 2.432,-4.67 z m -6.9800002,8.272 -1.599,-2.215 3.5280002,-2.848 z m -0.201,0.337 -2.499,1.837 0.941,-3.995 z m -0.093,0.516 -1.548,4.768 -0.936,-2.942 z m -3.236,10.851 -1.154,-4.365 2.578,-0.854 z m 2.201,5.555 -2.864,0.949 0.756,-5.213 z m -0.255,6.658 -2.559,0.816 -0.08,-5.55 z m 0.111,0.342 0.64,5.39 -3.199,-4.574 z m 4.1370002,5.211 0.788,4.689 -3.6880002,-3.738 z m 5.695,9.184 -2.615,0.855 -1.617,-4.263 z m 0.256,0.294 0.973,2.949 -3.52,-2.116 z m 4.903,3.57 v 2.654 l -3.117,-2.685 z m 0.362,0.156 4.524,2.958 -4.524,-0.237 z m 10.495,2.574 v 3.045 l -4.721,-2.353 z m 6.224,2.319 v 2.667 l -5.304,-1.613 z m 0.362,-0.001 5.321,1.055 -5.321,1.614 z m 6.244,-2.318 4.702,0.692 -4.702,2.353 z m 10.476,-2.574 v 2.721 l -4.525,0.237 z m 0.361,-0.156 3.117,-0.03 -3.117,2.685 z m 4.921,-3.57 2.515,0.833 -3.501,2.113 z m 0.257,-0.294 4.227,-3.403 -1.646,4.258 z m 5.696,-9.184 2.9,0.951 -3.689,3.738 z m 4.137,-5.211 2.524,0.815 -3.163,4.568 z m 0.11,-0.341 2.636,-4.728 -0.113,5.541 z m -0.274,-6.659 2.109,-4.267 0.772,5.216 z m 3.591,-9.344 1.238,4.626 -2.398,-0.298 z m -2.849,-1.821 0.941,-2.964 1.59,3.797 z m 0.155,-7.511 2.403,3.312 -1.509,0.483 z m -4.271,-4.215 1.738,-1.645 1.738,4.461 z m -0.223,-0.286 -2.379,-4.568 4.128,2.915 z m -6.143,-9.761 4.673,2.679 -1.401,1.651 z m -6.574,-2.81 1.121,-1.854 4.005,3.614 z m -6.063,-1.053 1.042,-2.209 4.056,3.062 z m -0.338,-0.126 -3.764,-2.446 4.8,0.25 z m -9.213,-2.444 v -1.6 l 3.889,1.277 z m -0.362,0 -3.888,-0.322 3.888,-1.277 z m -9.23,2.444 -1.02,-2.196 4.8,-0.25 z m -0.339,0.126 -5.098,0.853 4.072,-3.062 z m -11.169,2.813 4.002,-3.612 1.105,1.853 z m -4.703,5.382 -1.418,-1.653 4.678,-2.682 z m -2.872,5.431 -1.7820002,-1.657 4.1650002,-2.918 z m -0.225,0.284 -3.4970002,2.822 1.725,-4.469 z m -5.1800002,8.01 -1.491,-0.483 2.383,-3.302 z m 1.049,3.716 -2.514,0.832 1.572,-3.794 z m -1.688,6.149 -2.382,0.298 1.237,-4.622 z m 0.014,0.361 -0.74,5.106 -1.656,-4.807 z m -0.769,11.504 -2.197,-4.895 2.12,-0.515 z m 3.667,6.151 -2.012,0.826 -1.105,-5.285 z m 4.2740002,4.388 -2.146,1.185 -1.4690002,-4.847 z m 0.201,0.3 1.602,4.223 -3.735,-3.045 z m 6.022,7.41 -0.922,1.289 -2.418,-3.296 z m 0.292,0.211 2.963,2.551 -3.887,-1.261 z m 8.904,3.447 -0.438,2.366 -4.044,-2.602 z m 0.348,0.098 4.618,2.302 -5.06,0.078 z m 10.694,4.281 -5.344,0.594 0.171,-2.166 z m 6.973,-1.573 0.171,2.167 -5.358,-0.594 z m 5.505,-2.708 0.457,2.38 -5.061,-0.078 z m 0.348,-0.098 4.483,-0.235 -4.028,2.603 z m 8.904,-3.449 0.939,1.292 -3.906,1.262 z m 0.29,-0.211 3.331,-2.01 -2.391,3.302 z m 6.039,-7.408 2.101,1.177 -3.73,3.041 z m 0.201,-0.299 3.609,-3.656 -1.497,4.839 z m 7.359,-8.844 -1.09,5.28 -1.994,-0.825 z m 0.661,-7.106 2.12,0.515 -2.229,4.894 z m -0.863,-6.094 2.414,0.3 -1.657,4.812 z m 1.414,-5.18 1.787,0.165 -0.602,4.264 z m -1.929,-4.704 1.509,-0.484 v 4.088 z m -1.145,-4.941 1.342,-1.178 1.104,4.547 z m -0.166,-0.332 -1.668,-4.28 3.021,3.095 z m -6.804,-8.542 1.397,-1.645 2.67,4.518 z m -3.938,-5.233 0.987,-1.347 3.499,3.919 z m -0.291,-0.212 -3.843,-3.469 4.828,2.123 z m -6.192,-2.116 -3.987,-3.01 5.104,1.164 z m -10.238,-3.838 0.722,-1.653 3.877,1.894 z m -0.368,-0.058 -3.949,-1.296 4.665,-0.343 z m -9.737,0 -0.7,-1.639 4.648,0.343 z m -0.366,0.057 -4.598,0.241 3.891,-1.894 z m -10.258,3.839 -1.101,-1.846 5.104,-1.164 z m -6.173,2.115 -0.971,-1.345 4.809,-2.119 z m -0.292,0.212 -4.481,2.57 3.511,-3.914 z m -3.921,5.236 -4.1020002,2.873 2.6870002,-4.521 z m -6.8220002,8.54 -1.352,-1.187 3.004,-3.096 z m -0.166,0.332 -2.428,3.365 1.087,-4.542 z m -1.144,4.941 -1.491,3.596 v -4.078 z m -3.097,9.133 -0.601,-4.264 1.787,-0.165 z m 1.679,6.49 -2.113,0.513 0.481,-5.253 z m 0.083,6.529 -1.568,0.536 -0.536,-5.226 z m 0.112,0.341 1.061,5.065 -2.63,-4.527 z m 3.768,5.368 1.444,4.766 -3.447,-3.943 z m 6.0070002,9.129 -1.527,0.898 -2.038,-3.806 z m 0.266,0.262 2.449,3.34 -3.964,-2.449 z m 7.899,5.714 -0.387,1.725 -3.556,-3.005 z m 0.331,0.17 3.87,2.49 -4.26,-0.75 z m 10.543,2.912 -0.172,2.157 -4.812,-2.08 z m 6.238,1.911 v 1.676 l -5.131,-1.107 z m 0.362,0 5.146,0.568 -5.146,1.107 z m 6.258,-1.911 4.982,0.077 -4.812,2.08 z m 10.525,-2.912 0.404,1.74 -4.262,0.75 z m 0.331,-0.171 3.962,-1.281 -3.561,3.01 z m 7.881,-5.715 1.548,0.894 -3.975,2.456 z m 0.265,-0.262 3.573,-2.914 -2.012,3.814 z m 6.041,-9.126 1.985,0.821 -3.459,3.941 z m 3.734,-5.369 1.604,0.54 -2.654,4.543 z m 0.113,-0.344 2.142,-4.704 -0.539,5.244 z m 0.118,-6.526 1.631,-4.74 0.481,5.253 z m 2.514,-9.83 0.866,4.418 -1.444,-0.318 z m -2.08,-1.456 v -4.154 l 1.771,4.318 z m -1.073,-9.509 2.111,3.852 -1.09,0.358 z m -4.017,-5.144 1.017,-1.116 1.901,4.107 z m -0.217,-0.296 -2.521,-4.265 3.547,3.136 z m -6.389,-8.936 3.707,2.694 -0.587,0.8 z m -1.298,-1.387 -2.405,-1.741 2.586,1.475 z m -1.429,-0.59 -4.304,-1.893 0.586,-0.799 z m -10.473,-3.344 0.761,-1.301 4.048,2.396 z m -0.35,-0.114 -3.731,-1.822 4.484,0.534 z m -10.454,-1.89 V 0.997 l 4.301,0.812 z m -0.362,0 -4.285,-0.316 4.285,-0.811 z m -10.453,1.889 -0.738,-1.285 4.482,-0.536 z m -0.348,0.113 -4.805,1.096 4.06,-2.395 z m -10.472,3.35 3.698,-2.697 0.601,0.802 z m -1.42,0.59 -0.205,-0.275 2.665,-1.518 z m -4.431,4.877 -0.587,-0.8 3.722,-2.694 z m -3.2870002,5.441 -1.009,-1.127 3.5400002,-3.131 z m -0.217,0.297 -2.896,2.984 1.897,-4.1 z m -5.001,9.354 -1.092,-0.358 2.1,-3.854 z m -0.051,5.299 -1.772,0.164 1.772,-4.318 z m -1.503,5.555 -1.461,0.319 0.883,-4.429 z m 0,0.369 -0.453,4.943 -1.024,-4.622 z m -0.054,11.033 -1.447,-4.394 0.965,-0.294 z m 3.382,7.218 -0.947,0.307 -1.402,-4.351 z m 4.133,4.798 -1.354,0.597 -1.878,-4.294 z m 0.2180002,0.298 1.962,3.663 -3.3030002,-3.071 z m 7.375,7.676 -0.677,0.923 -3.006,-3.199 z m 0.291,0.211 3.298,2.786 -3.974,-1.863 z m 9.577,4.61 -0.174,1.494 -3.945,-2.22 z m 0.349,0.114 4.539,1.962 -4.715,-0.454 z m 10.405,3.458 h -4.563 v -0.984 z m 7.958,-0.985 v 0.984 h -4.576 z m 5.839,-2.472 0.161,1.507 -4.696,0.454 z m 0.351,-0.115 4.116,-0.725 -3.957,2.218 z m 9.576,-4.61 0.661,0.923 -3.952,1.859 z m 0.292,-0.21 3.673,-2.27 -3.014,3.19 z m 7.342,-7.678 1.374,0.594 -3.313,3.083 z m 0.216,-0.298 3.262,-3.715 -1.872,4.314 z m 6.502,-8.822 -1.421,4.33 -0.93,-0.306 z m 1.532,-7.878 0.928,0.291 -1.406,4.352 z m -0.537,-6.348 1.459,0.321 -1.007,4.61 z m 0.768,-5.367 0.725,0.025 v 3.666 z m -2.211,-5.514 1.09,-0.358 0.553,4.364 z m -1.394,-5.779 0.574,-0.432 1.258,3.771 z m -0.163,-0.328 -1.585,-3.424 2.165,2.989 z m -6.821,-9.066 0.581,-0.794 2.619,3.622 z m -4.384,-4.931 0.181,-0.266 2.203,1.998 z m -6.352,-2.856 -3.661,-2.168 4.242,1.374 z m -10.712,-3.684 0.241,-0.691 3.516,1.139 z m -0.363,-0.052 -3.759,-0.709 3.999,0.024 z m -11.482,-10e-4 -0.24,-0.684 3.984,-0.024 z m -0.364,0.053 -3.757,0.447 3.516,-1.139 z m -10.732,3.685 -0.596,-0.795 4.277,-1.377 z m -6.338,2.86 -2.48,1.795 2.276,-2.07 z m -4.396,4.926 -3.2000002,2.828 2.6190002,-3.622 z m -6.8210002,9.065 -0.563,-0.433 2.136,-2.963 z m -0.162,0.329 -1.805,3.313 1.246,-3.741 z m -1.377,5.779 -1.644,4.006 0.554,-4.364 z M 0.99809778,37.615 V 33.918 L 1.7400978,33.893 Z m 0.92000002,7.629 -0.95600002,0.293 0.027,-4.49 z m 0.659,6.568 -0.312,0.095 -0.623,-2.933 z m 0.112,0.342 0.907,2.813 -1.218,-2.719 z m 3.316,5.679 1.705,3.897 -2.643,-3.594 z m 6.5290002,9.285 -0.594,0.425 -2.1850002,-3.009 z m 0.261,0.257 2.62,2.787 -3.209,-2.367 z m 9.293,6.739 -0.219,0.717 -3.278,-2.355 z m 0.324,0.171 3.334,1.875 -3.555,-1.152 z m 10.851,3.347 v 0.976 l -4.246,-1.385 z m 6.43,1.404 v 0.312 l -2.896,-0.312 z m 0.362,0 h 2.906 l -2.906,0.312 z m 6.45,-1.404 4.231,-0.409 -4.231,1.385 z m 10.847,-3.346 0.207,0.721 -3.543,1.148 z m 0.326,-0.171 3.469,-1.631 -3.263,2.344 z m 9.295,-6.74 0.588,0.42 -3.22,2.366 z m 0.259,-0.257 2.779,-2.584 -2.185,3.009 z m 6.51,-9.284 0.923,0.303 -2.608,3.584 z m 3.336,-5.68 0.311,0.095 -1.233,2.716 z m 0.111,-0.344 0.918,-2.84 -0.606,2.937 z m 0.659,-6.565 0.907,-4.154 0.013,4.443 z m 1.263,-8.132 0.256,2.392 -0.256,-0.161 z m -1.147,-3.584 -0.479,-3.779 1.196,3.805 z m -0.794,-5.974 -0.746,-2.241 0.967,2.169 z m -5.238,-10.34 0.098,-0.263 1.142,1.973 z m -0.253,-0.351 -1.532,-2.12 1.641,1.826 z m -19.752,-14.351 0.238,-0.192 2.221,0.988 z m -0.409,-0.134 -1.984,-0.644 2.197,0.473 z m -11.463,-1.778 V 0.379 l 2.299,0.235 z m -0.362,0 -2.292,0.014 2.292,-0.235 z m -11.444,1.778 -0.212,-0.171 2.197,-0.473 z m -0.646,-0.059 0.236,0.191 -2.466,0.794 z m -19.5280002,14.536 -0.097,-0.284 1.578,-1.766 z m -0.343,0.107 0.085,0.25 -1.169,1.623 z m -5.135,10.592 -0.22,-0.072 0.967,-2.169 z m -0.793,5.974 -0.737,0.025 1.22,-3.842 z m -1.16600002,5.817 -0.239,0.154 0.239,-2.288 z m -0.003,0.428 -0.015,2.634 -0.25,-2.461 z m 7.55200002,23.214 -0.312,0.023 -1.253,-2.154 z m 0.251,0.341 1.284,1.77 -1.569,-1.747 z m 8.2150002,8.196 -0.148,0.201 -1.843,-1.671 z m 0.291,0.211 2.009,1.443 -2.158,-1.242 z m 10.316,5.292 0.082,0.265 -2.053,-0.903 z m 0.42,0.138 2.466,0.804 -2.374,-0.505 z m 24.398,-0.003 -0.086,0.302 -2.399,0.51 z m 0.412,-0.136 2.015,-0.652 -2.091,0.924 z m 10.311,-5.287 0.139,0.195 -2.101,1.213 z m 0.429,-0.017 -0.138,-0.196 1.945,-1.43 z m 8.1,-8.394 0.284,0.022 -1.569,1.747 z m 0.564,-0.317 -0.315,-0.023 1.56,-2.144 z m 7.218,-23.243 0.283,0.179 -0.275,2.561 z m -1.119,-9.609 -0.712,-2.264 0.221,-0.071 z m -75.7270002,-2.335 0.221,0.071 -0.723,2.275 z"
     id="path2"
     clip-path="url(#clipPath110)"
     transform="translate(-6.2395096)" /></svg>
